solid OpenSCAD_Model
  facet normal -0.5 0.866025 0
    outer loop
      vertex 0 19.75 0
      vertex -17.104 9.875 16
      vertex 0 19.75 16
    endloop
  endfacet
  facet normal -0.5 0.866025 0
    outer loop
      vertex -17.104 9.875 16
      vertex 0 19.75 0
      vertex -17.104 9.875 0
    endloop
  endfacet
  facet normal 1 -0 0
    outer loop
      vertex 17.104 -9.875 16
      vertex 17.104 9.875 0
      vertex 17.104 9.875 16
    endloop
  endfacet
  facet normal 1 0 0
    outer loop
      vertex 17.104 9.875 0
      vertex 17.104 -9.875 16
      vertex 17.104 -9.875 0
    endloop
  endfacet
  facet normal -0.5 -0.866025 0
    outer loop
      vertex -17.104 -9.875 0
      vertex 0 -19.75 16
      vertex -17.104 -9.875 16
    endloop
  endfacet
  facet normal -0.5 -0.866025 -0
    outer loop
      vertex 0 -19.75 16
      vertex -17.104 -9.875 0
      vertex 0 -19.75 0
    endloop
  endfacet
  facet normal 0.5 0.866025 -0
    outer loop
      vertex 17.104 9.875 0
      vertex 0 19.75 16
      vertex 17.104 9.875 16
    endloop
  endfacet
  facet normal 0.5 0.866025 0
    outer loop
      vertex 0 19.75 16
      vertex 17.104 9.875 0
      vertex 0 19.75 0
    endloop
  endfacet
  facet normal 0.5 -0.866025 0
    outer loop
      vertex 0 -19.75 0
      vertex 17.104 -9.875 16
      vertex 0 -19.75 16
    endloop
  endfacet
  facet normal 0.5 -0.866025 0
    outer loop
      vertex 17.104 -9.875 16
      vertex 0 -19.75 0
      vertex 17.104 -9.875 0
    endloop
  endfacet
  facet normal -1 0 0
    outer loop
      vertex -17.104 -9.875 0
      vertex -17.104 9.875 16
      vertex -17.104 9.875 0
    endloop
  endfacet
  facet normal -1 -0 0
    outer loop
      vertex -17.104 9.875 16
      vertex -17.104 -9.875 0
      vertex -17.104 -9.875 16
    endloop
  endfacet
  facet normal 0 0 -1
    outer loop
      vertex 0 -19.75 0
      vertex 17.104 9.875 0
      vertex 17.104 -9.875 0
    endloop
  endfacet
  facet normal 0 0 -1
    outer loop
      vertex 0 -19.75 0
      vertex 0 19.75 0
      vertex 17.104 9.875 0
    endloop
  endfacet
  facet normal 0 0 -1
    outer loop
      vertex -17.104 -9.875 0
      vertex 0 19.75 0
      vertex 0 -19.75 0
    endloop
  endfacet
  facet normal 0 0 -1
    outer loop
      vertex 0 19.75 0
      vertex -17.104 -9.875 0
      vertex -17.104 9.875 0
    endloop
  endfacet
  facet normal 0 0 1
    outer loop
      vertex 17.104 9.875 16
      vertex 7.05 7.05 16
      vertex 17.104 -9.875 16
    endloop
  endfacet
  facet normal 0 0 1
    outer loop
      vertex 0 19.75 16
      vertex 7.05 7.05 16
      vertex 17.104 9.875 16
    endloop
  endfacet
  facet normal 0 0 1
    outer loop
      vertex 0 19.75 16
      vertex -7.05 7.05 16
      vertex 7.05 7.05 16
    endloop
  endfacet
  facet normal 0 0 1
    outer loop
      vertex -7.05 7.05 16
      vertex -17.104 9.875 16
      vertex -7.05 -7.05 16
    endloop
  endfacet
  facet normal -0 0 1
    outer loop
      vertex -17.104 9.875 16
      vertex -7.05 7.05 16
      vertex 0 19.75 16
    endloop
  endfacet
  facet normal -0 0 1
    outer loop
      vertex 7.05 -7.05 16
      vertex 17.104 -9.875 16
      vertex 7.05 7.05 16
    endloop
  endfacet
  facet normal 0 0 1
    outer loop
      vertex 7.05 -7.05 16
      vertex 0 -19.75 16
      vertex 17.104 -9.875 16
    endloop
  endfacet
  facet normal -0 0 1
    outer loop
      vertex -7.05 -7.05 16
      vertex 0 -19.75 16
      vertex 7.05 -7.05 16
    endloop
  endfacet
  facet normal 0 0 1
    outer loop
      vertex -17.104 -9.875 16
      vertex -7.05 -7.05 16
      vertex -17.104 9.875 16
    endloop
  endfacet
  facet normal 0 0 1
    outer loop
      vertex -7.05 -7.05 16
      vertex -17.104 -9.875 16
      vertex 0 -19.75 16
    endloop
  endfacet
  facet normal -0.989176 -0.146736 0
    outer loop
      vertex 10.4494 1.02918 4.5
      vertex 10.2982 2.04845 14.51
      vertex 10.2982 2.04845 4.5
    endloop
  endfacet
  facet normal -0.989176 -0.146736 0
    outer loop
      vertex 10.2982 2.04845 14.51
      vertex 10.4494 1.02918 4.5
      vertex 10.4494 1.02918 14.51
    endloop
  endfacet
  facet normal -0.998794 -0.049106 0
    outer loop
      vertex 10.5 0 4.5
      vertex 10.4494 1.02918 14.51
      vertex 10.4494 1.02918 4.5
    endloop
  endfacet
  facet normal -0.998794 -0.049106 0
    outer loop
      vertex 10.4494 1.02918 14.51
      vertex 10.5 0 4.5
      vertex 10.5 0 14.51
    endloop
  endfacet
  facet normal -0.970048 -0.242915 0
    outer loop
      vertex 10.2982 2.04845 4.5
      vertex 10.0479 3.04799 14.51
      vertex 10.0479 3.04799 4.5
    endloop
  endfacet
  facet normal -0.970048 -0.242915 0
    outer loop
      vertex 10.0479 3.04799 14.51
      vertex 10.2982 2.04845 4.5
      vertex 10.2982 2.04845 14.51
    endloop
  endfacet
  facet normal -0.336916 0.941535 0
    outer loop
      vertex 4.01818 -9.70073 4.5
      vertex 3.04799 -10.0479 14.51
      vertex 4.01818 -9.70073 14.51
    endloop
  endfacet
  facet normal -0.336916 0.941535 0
    outer loop
      vertex 3.04799 -10.0479 14.51
      vertex 4.01818 -9.70073 4.5
      vertex 3.04799 -10.0479 4.5
    endloop
  endfacet
  facet normal -0.671561 -0.74095 0
    outer loop
      vertex 6.66113 8.11661 4.5
      vertex 7.42462 7.42462 14.51
      vertex 6.66113 8.11661 14.51
    endloop
  endfacet
  facet normal -0.671561 -0.74095 -0
    outer loop
      vertex 7.42462 7.42462 14.51
      vertex 6.66113 8.11661 4.5
      vertex 7.42462 7.42462 4.5
    endloop
  endfacet
  facet normal -0.941535 -0.336916 0
    outer loop
      vertex 10.0479 3.04799 4.5
      vertex 9.70073 4.01818 14.51
      vertex 9.70073 4.01818 4.5
    endloop
  endfacet
  facet normal -0.941535 -0.336916 0
    outer loop
      vertex 9.70073 4.01818 14.51
      vertex 10.0479 3.04799 4.5
      vertex 10.0479 3.04799 14.51
    endloop
  endfacet
  facet normal 0.514102 0.857729 -0
    outer loop
      vertex -4.94967 -9.26017 4.5
      vertex -5.83349 -8.73043 14.51
      vertex -4.94967 -9.26017 14.51
    endloop
  endfacet
  facet normal 0.514102 0.857729 0
    outer loop
      vertex -5.83349 -8.73043 14.51
      vertex -4.94967 -9.26017 4.5
      vertex -5.83349 -8.73043 4.5
    endloop
  endfacet
  facet normal -0.74095 -0.671561 0
    outer loop
      vertex 8.11661 6.66113 4.5
      vertex 7.42462 7.42462 14.51
      vertex 7.42462 7.42462 4.5
    endloop
  endfacet
  facet normal -0.74095 -0.671561 0
    outer loop
      vertex 7.42462 7.42462 14.51
      vertex 8.11661 6.66113 4.5
      vertex 8.11661 6.66113 14.51
    endloop
  endfacet
  facet normal -0.514102 0.857729 0
    outer loop
      vertex 5.83349 -8.73043 4.5
      vertex 4.94967 -9.26017 14.51
      vertex 5.83349 -8.73043 14.51
    endloop
  endfacet
  facet normal -0.514102 0.857729 0
    outer loop
      vertex 4.94967 -9.26017 14.51
      vertex 5.83349 -8.73043 4.5
      vertex 4.94967 -9.26017 4.5
    endloop
  endfacet
  facet normal 0.427554 -0.90399 0
    outer loop
      vertex -4.94967 9.26017 4.5
      vertex -4.01818 9.70073 14.51
      vertex -4.94967 9.26017 14.51
    endloop
  endfacet
  facet normal 0.427554 -0.90399 0
    outer loop
      vertex -4.01818 9.70073 14.51
      vertex -4.94967 9.26017 4.5
      vertex -4.01818 9.70073 4.5
    endloop
  endfacet
  facet normal -0.989176 0.146736 0
    outer loop
      vertex 10.2982 -2.04845 4.5
      vertex 10.4494 -1.02918 14.51
      vertex 10.4494 -1.02918 4.5
    endloop
  endfacet
  facet normal -0.989176 0.146736 0
    outer loop
      vertex 10.4494 -1.02918 14.51
      vertex 10.2982 -2.04845 4.5
      vertex 10.2982 -2.04845 14.51
    endloop
  endfacet
  facet normal -0.242915 0.970048 0
    outer loop
      vertex 3.04799 -10.0479 4.5
      vertex 2.04845 -10.2982 14.51
      vertex 3.04799 -10.0479 14.51
    endloop
  endfacet
  facet normal -0.242915 0.970048 0
    outer loop
      vertex 2.04845 -10.2982 14.51
      vertex 3.04799 -10.0479 4.5
      vertex 2.04845 -10.2982 4.5
    endloop
  endfacet
  facet normal 0.242915 -0.970048 0
    outer loop
      vertex -3.04799 10.0479 4.5
      vertex -2.04845 10.2982 14.51
      vertex -3.04799 10.0479 14.51
    endloop
  endfacet
  facet normal 0.242915 -0.970048 0
    outer loop
      vertex -2.04845 10.2982 14.51
      vertex -3.04799 10.0479 4.5
      vertex -2.04845 10.2982 4.5
    endloop
  endfacet
  facet normal 0.941535 0.336916 0
    outer loop
      vertex -9.70073 -4.01818 14.51
      vertex -10.0479 -3.04799 4.5
      vertex -10.0479 -3.04799 14.51
    endloop
  endfacet
  facet normal 0.941535 0.336916 0
    outer loop
      vertex -10.0479 -3.04799 4.5
      vertex -9.70073 -4.01818 14.51
      vertex -9.70073 -4.01818 4.5
    endloop
  endfacet
  facet normal -0.803207 0.5957 0
    outer loop
      vertex 8.11661 -6.66113 4.5
      vertex 8.73043 -5.83349 14.51
      vertex 8.73043 -5.83349 4.5
    endloop
  endfacet
  facet normal -0.803207 0.5957 0
    outer loop
      vertex 8.73043 -5.83349 14.51
      vertex 8.11661 -6.66113 4.5
      vertex 8.11661 -6.66113 14.51
    endloop
  endfacet
  facet normal 0.514102 -0.857729 0
    outer loop
      vertex -5.83349 8.73043 4.5
      vertex -4.94967 9.26017 14.51
      vertex -5.83349 8.73043 14.51
    endloop
  endfacet
  facet normal 0.514102 -0.857729 0
    outer loop
      vertex -4.94967 9.26017 14.51
      vertex -5.83349 8.73043 4.5
      vertex -4.94967 9.26017 4.5
    endloop
  endfacet
  facet normal 0.146736 0.989176 -0
    outer loop
      vertex -1.02918 -10.4494 4.5
      vertex -2.04845 -10.2982 14.51
      vertex -1.02918 -10.4494 14.51
    endloop
  endfacet
  facet normal 0.146736 0.989176 0
    outer loop
      vertex -2.04845 -10.2982 14.51
      vertex -1.02918 -10.4494 4.5
      vertex -2.04845 -10.2982 4.5
    endloop
  endfacet
  facet normal -0.5957 0.803207 0
    outer loop
      vertex 6.66113 -8.11661 4.5
      vertex 5.83349 -8.73043 14.51
      vertex 6.66113 -8.11661 14.51
    endloop
  endfacet
  facet normal -0.5957 0.803207 0
    outer loop
      vertex 5.83349 -8.73043 14.51
      vertex 6.66113 -8.11661 4.5
      vertex 5.83349 -8.73043 4.5
    endloop
  endfacet
  facet normal 0.242915 0.970048 -0
    outer loop
      vertex -2.04845 -10.2982 4.5
      vertex -3.04799 -10.0479 14.51
      vertex -2.04845 -10.2982 14.51
    endloop
  endfacet
  facet normal 0.242915 0.970048 0
    outer loop
      vertex -3.04799 -10.0479 14.51
      vertex -2.04845 -10.2982 4.5
      vertex -3.04799 -10.0479 4.5
    endloop
  endfacet
  facet normal -0.90399 0.427554 0
    outer loop
      vertex 9.26017 -4.94967 4.5
      vertex 9.70073 -4.01818 14.51
      vertex 9.70073 -4.01818 4.5
    endloop
  endfacet
  facet normal -0.90399 0.427554 0
    outer loop
      vertex 9.70073 -4.01818 14.51
      vertex 9.26017 -4.94967 4.5
      vertex 9.26017 -4.94967 14.51
    endloop
  endfacet
  facet normal -0.514102 -0.857729 0
    outer loop
      vertex 4.94967 9.26017 4.5
      vertex 5.83349 8.73043 14.51
      vertex 4.94967 9.26017 14.51
    endloop
  endfacet
  facet normal -0.514102 -0.857729 -0
    outer loop
      vertex 5.83349 8.73043 14.51
      vertex 4.94967 9.26017 4.5
      vertex 5.83349 8.73043 4.5
    endloop
  endfacet
  facet normal 0.857729 0.514102 0
    outer loop
      vertex -8.73043 -5.83349 14.51
      vertex -9.26017 -4.94967 4.5
      vertex -9.26017 -4.94967 14.51
    endloop
  endfacet
  facet normal 0.857729 0.514102 0
    outer loop
      vertex -9.26017 -4.94967 4.5
      vertex -8.73043 -5.83349 14.51
      vertex -8.73043 -5.83349 4.5
    endloop
  endfacet
  facet normal -0.970048 0.242915 0
    outer loop
      vertex 10.0479 -3.04799 4.5
      vertex 10.2982 -2.04845 14.51
      vertex 10.2982 -2.04845 4.5
    endloop
  endfacet
  facet normal -0.970048 0.242915 0
    outer loop
      vertex 10.2982 -2.04845 14.51
      vertex 10.0479 -3.04799 4.5
      vertex 10.0479 -3.04799 14.51
    endloop
  endfacet
  facet normal 0.857729 -0.514102 0
    outer loop
      vertex -9.26017 4.94967 14.51
      vertex -8.73043 5.83349 4.5
      vertex -8.73043 5.83349 14.51
    endloop
  endfacet
  facet normal 0.857729 -0.514102 0
    outer loop
      vertex -8.73043 5.83349 4.5
      vertex -9.26017 4.94967 14.51
      vertex -9.26017 4.94967 4.5
    endloop
  endfacet
  facet normal 0 0 1
    outer loop
      vertex 10.4494 1.02918 4.5
      vertex 10.4494 -1.02918 4.5
      vertex 10.5 0 4.5
    endloop
  endfacet
  facet normal 0 0 1
    outer loop
      vertex 10.2982 2.04845 4.5
      vertex 10.4494 -1.02918 4.5
      vertex 10.4494 1.02918 4.5
    endloop
  endfacet
  facet normal 0 0 1
    outer loop
      vertex 10.2982 2.04845 4.5
      vertex 10.2982 -2.04845 4.5
      vertex 10.4494 -1.02918 4.5
    endloop
  endfacet
  facet normal 0 0 1
    outer loop
      vertex 10.0479 3.04799 4.5
      vertex 10.2982 -2.04845 4.5
      vertex 10.2982 2.04845 4.5
    endloop
  endfacet
  facet normal 0 0 1
    outer loop
      vertex 10.0479 3.04799 4.5
      vertex 10.0479 -3.04799 4.5
      vertex 10.2982 -2.04845 4.5
    endloop
  endfacet
  facet normal 0 0 1
    outer loop
      vertex 9.70073 4.01818 4.5
      vertex 10.0479 -3.04799 4.5
      vertex 10.0479 3.04799 4.5
    endloop
  endfacet
  facet normal 0 0 1
    outer loop
      vertex 9.70073 4.01818 4.5
      vertex 9.70073 -4.01818 4.5
      vertex 10.0479 -3.04799 4.5
    endloop
  endfacet
  facet normal 0 0 1
    outer loop
      vertex 9.26017 4.94967 4.5
      vertex 9.70073 -4.01818 4.5
      vertex 9.70073 4.01818 4.5
    endloop
  endfacet
  facet normal 0 0 1
    outer loop
      vertex 9.26017 4.94967 4.5
      vertex 9.26017 -4.94967 4.5
      vertex 9.70073 -4.01818 4.5
    endloop
  endfacet
  facet normal 0 0 1
    outer loop
      vertex 8.73043 5.83349 4.5
      vertex 9.26017 -4.94967 4.5
      vertex 9.26017 4.94967 4.5
    endloop
  endfacet
  facet normal 0 0 1
    outer loop
      vertex 8.73043 5.83349 4.5
      vertex 8.73043 -5.83349 4.5
      vertex 9.26017 -4.94967 4.5
    endloop
  endfacet
  facet normal 0 0 1
    outer loop
      vertex 8.11661 6.66113 4.5
      vertex 8.73043 -5.83349 4.5
      vertex 8.73043 5.83349 4.5
    endloop
  endfacet
  facet normal 0 0 1
    outer loop
      vertex 8.11661 6.66113 4.5
      vertex 8.11661 -6.66113 4.5
      vertex 8.73043 -5.83349 4.5
    endloop
  endfacet
  facet normal 0 0 1
    outer loop
      vertex 7.42462 7.42462 4.5
      vertex 8.11661 -6.66113 4.5
      vertex 8.11661 6.66113 4.5
    endloop
  endfacet
  facet normal 0 0 1
    outer loop
      vertex 7.42462 7.42462 4.5
      vertex 7.42462 -7.42462 4.5
      vertex 8.11661 -6.66113 4.5
    endloop
  endfacet
  facet normal 0 0 1
    outer loop
      vertex 6.66113 8.11661 4.5
      vertex 7.42462 -7.42462 4.5
      vertex 7.42462 7.42462 4.5
    endloop
  endfacet
  facet normal 0 0 1
    outer loop
      vertex 6.66113 8.11661 4.5
      vertex 6.66113 -8.11661 4.5
      vertex 7.42462 -7.42462 4.5
    endloop
  endfacet
  facet normal 0 0 1
    outer loop
      vertex 5.83349 8.73043 4.5
      vertex 6.66113 -8.11661 4.5
      vertex 6.66113 8.11661 4.5
    endloop
  endfacet
  facet normal 0 0 1
    outer loop
      vertex 5.83349 8.73043 4.5
      vertex 5.83349 -8.73043 4.5
      vertex 6.66113 -8.11661 4.5
    endloop
  endfacet
  facet normal 0 0 1
    outer loop
      vertex 4.94967 9.26017 4.5
      vertex 5.83349 -8.73043 4.5
      vertex 5.83349 8.73043 4.5
    endloop
  endfacet
  facet normal 0 0 1
    outer loop
      vertex 4.94967 9.26017 4.5
      vertex 4.94967 -9.26017 4.5
      vertex 5.83349 -8.73043 4.5
    endloop
  endfacet
  facet normal 0 0 1
    outer loop
      vertex 4.01818 9.70073 4.5
      vertex 4.94967 -9.26017 4.5
      vertex 4.94967 9.26017 4.5
    endloop
  endfacet
  facet normal 0 0 1
    outer loop
      vertex 4.01818 9.70073 4.5
      vertex 4.01818 -9.70073 4.5
      vertex 4.94967 -9.26017 4.5
    endloop
  endfacet
  facet normal 0 0 1
    outer loop
      vertex 3.04799 10.0479 4.5
      vertex 4.01818 -9.70073 4.5
      vertex 4.01818 9.70073 4.5
    endloop
  endfacet
  facet normal 0 0 1
    outer loop
      vertex 3.04799 10.0479 4.5
      vertex 3.04799 -10.0479 4.5
      vertex 4.01818 -9.70073 4.5
    endloop
  endfacet
  facet normal 0 0 1
    outer loop
      vertex 2.04845 10.2982 4.5
      vertex 3.04799 -10.0479 4.5
      vertex 3.04799 10.0479 4.5
    endloop
  endfacet
  facet normal 0 0 1
    outer loop
      vertex 2.04845 10.2982 4.5
      vertex 2.04845 -10.2982 4.5
      vertex 3.04799 -10.0479 4.5
    endloop
  endfacet
  facet normal 0 0 1
    outer loop
      vertex 1.02918 10.4494 4.5
      vertex 2.04845 -10.2982 4.5
      vertex 2.04845 10.2982 4.5
    endloop
  endfacet
  facet normal 0 0 1
    outer loop
      vertex 1.02918 10.4494 4.5
      vertex 1.02918 -10.4494 4.5
      vertex 2.04845 -10.2982 4.5
    endloop
  endfacet
  facet normal 0 0 1
    outer loop
      vertex 0 10.5 4.5
      vertex 1.02918 -10.4494 4.5
      vertex 1.02918 10.4494 4.5
    endloop
  endfacet
  facet normal 0 0 1
    outer loop
      vertex 0 10.5 4.5
      vertex 0 -10.5 4.5
      vertex 1.02918 -10.4494 4.5
    endloop
  endfacet
  facet normal -0 0 1
    outer loop
      vertex -1.02918 10.4494 4.5
      vertex 0 -10.5 4.5
      vertex 0 10.5 4.5
    endloop
  endfacet
  facet normal 0 0 1
    outer loop
      vertex -1.02918 10.4494 4.5
      vertex -1.02918 -10.4494 4.5
      vertex 0 -10.5 4.5
    endloop
  endfacet
  facet normal -0 0 1
    outer loop
      vertex -2.04845 10.2982 4.5
      vertex -1.02918 -10.4494 4.5
      vertex -1.02918 10.4494 4.5
    endloop
  endfacet
  facet normal 0 0 1
    outer loop
      vertex -2.04845 10.2982 4.5
      vertex -2.04845 -10.2982 4.5
      vertex -1.02918 -10.4494 4.5
    endloop
  endfacet
  facet normal -0 0 1
    outer loop
      vertex -3.04799 10.0479 4.5
      vertex -2.04845 -10.2982 4.5
      vertex -2.04845 10.2982 4.5
    endloop
  endfacet
  facet normal 0 0 1
    outer loop
      vertex -3.04799 10.0479 4.5
      vertex -3.04799 -10.0479 4.5
      vertex -2.04845 -10.2982 4.5
    endloop
  endfacet
  facet normal -0 0 1
    outer loop
      vertex -4.01818 9.70073 4.5
      vertex -3.04799 -10.0479 4.5
      vertex -3.04799 10.0479 4.5
    endloop
  endfacet
  facet normal 0 0 1
    outer loop
      vertex -4.01818 9.70073 4.5
      vertex -4.01818 -9.70073 4.5
      vertex -3.04799 -10.0479 4.5
    endloop
  endfacet
  facet normal -0 0 1
    outer loop
      vertex -4.94967 9.26017 4.5
      vertex -4.01818 -9.70073 4.5
      vertex -4.01818 9.70073 4.5
    endloop
  endfacet
  facet normal 0 0 1
    outer loop
      vertex -4.94967 9.26017 4.5
      vertex -4.94967 -9.26017 4.5
      vertex -4.01818 -9.70073 4.5
    endloop
  endfacet
  facet normal -0 0 1
    outer loop
      vertex -5.83349 8.73043 4.5
      vertex -4.94967 -9.26017 4.5
      vertex -4.94967 9.26017 4.5
    endloop
  endfacet
  facet normal 0 0 1
    outer loop
      vertex -5.83349 8.73043 4.5
      vertex -5.83349 -8.73043 4.5
      vertex -4.94967 -9.26017 4.5
    endloop
  endfacet
  facet normal -0 0 1
    outer loop
      vertex -6.66113 8.11661 4.5
      vertex -5.83349 -8.73043 4.5
      vertex -5.83349 8.73043 4.5
    endloop
  endfacet
  facet normal 0 0 1
    outer loop
      vertex -6.66113 8.11661 4.5
      vertex -6.66113 -8.11661 4.5
      vertex -5.83349 -8.73043 4.5
    endloop
  endfacet
  facet normal -0 0 1
    outer loop
      vertex -7.42462 7.42462 4.5
      vertex -6.66113 -8.11661 4.5
      vertex -6.66113 8.11661 4.5
    endloop
  endfacet
  facet normal 0 0 1
    outer loop
      vertex -7.42462 7.42462 4.5
      vertex -7.42462 -7.42462 4.5
      vertex -6.66113 -8.11661 4.5
    endloop
  endfacet
  facet normal -0 0 1
    outer loop
      vertex -8.11661 6.66113 4.5
      vertex -7.42462 -7.42462 4.5
      vertex -7.42462 7.42462 4.5
    endloop
  endfacet
  facet normal 0 0 1
    outer loop
      vertex -8.11661 6.66113 4.5
      vertex -8.11661 -6.66113 4.5
      vertex -7.42462 -7.42462 4.5
    endloop
  endfacet
  facet normal -0 0 1
    outer loop
      vertex -8.73043 5.83349 4.5
      vertex -8.11661 -6.66113 4.5
      vertex -8.11661 6.66113 4.5
    endloop
  endfacet
  facet normal 0 0 1
    outer loop
      vertex -8.73043 5.83349 4.5
      vertex -8.73043 -5.83349 4.5
      vertex -8.11661 -6.66113 4.5
    endloop
  endfacet
  facet normal -0 0 1
    outer loop
      vertex -9.26017 4.94967 4.5
      vertex -8.73043 -5.83349 4.5
      vertex -8.73043 5.83349 4.5
    endloop
  endfacet
  facet normal 0 0 1
    outer loop
      vertex -9.26017 4.94967 4.5
      vertex -9.26017 -4.94967 4.5
      vertex -8.73043 -5.83349 4.5
    endloop
  endfacet
  facet normal -0 0 1
    outer loop
      vertex -9.70073 4.01818 4.5
      vertex -9.26017 -4.94967 4.5
      vertex -9.26017 4.94967 4.5
    endloop
  endfacet
  facet normal 0 0 1
    outer loop
      vertex -9.70073 4.01818 4.5
      vertex -9.70073 -4.01818 4.5
      vertex -9.26017 -4.94967 4.5
    endloop
  endfacet
  facet normal -0 0 1
    outer loop
      vertex -10.0479 3.04799 4.5
      vertex -9.70073 -4.01818 4.5
      vertex -9.70073 4.01818 4.5
    endloop
  endfacet
  facet normal 0 0 1
    outer loop
      vertex -10.0479 3.04799 4.5
      vertex -10.0479 -3.04799 4.5
      vertex -9.70073 -4.01818 4.5
    endloop
  endfacet
  facet normal -0 0 1
    outer loop
      vertex -10.2982 2.04845 4.5
      vertex -10.0479 -3.04799 4.5
      vertex -10.0479 3.04799 4.5
    endloop
  endfacet
  facet normal 0 0 1
    outer loop
      vertex -10.2982 2.04845 4.5
      vertex -10.2982 -2.04845 4.5
      vertex -10.0479 -3.04799 4.5
    endloop
  endfacet
  facet normal -0 0 1
    outer loop
      vertex -10.4494 1.02918 4.5
      vertex -10.2982 -2.04845 4.5
      vertex -10.2982 2.04845 4.5
    endloop
  endfacet
  facet normal 0 0 1
    outer loop
      vertex -10.4494 1.02918 4.5
      vertex -10.4494 -1.02918 4.5
      vertex -10.2982 -2.04845 4.5
    endloop
  endfacet
  facet normal 0 -0 1
    outer loop
      vertex -10.4494 -1.02918 4.5
      vertex -10.4494 1.02918 4.5
      vertex -10.5 0 4.5
    endloop
  endfacet
  facet normal 0.5957 -0.803207 0
    outer loop
      vertex -6.66113 8.11661 4.5
      vertex -5.83349 8.73043 14.51
      vertex -6.66113 8.11661 14.51
    endloop
  endfacet
  facet normal 0.5957 -0.803207 0
    outer loop
      vertex -5.83349 8.73043 14.51
      vertex -6.66113 8.11661 4.5
      vertex -5.83349 8.73043 4.5
    endloop
  endfacet
  facet normal 0.803207 0.5957 0
    outer loop
      vertex -8.11661 -6.66113 14.51
      vertex -8.73043 -5.83349 4.5
      vertex -8.73043 -5.83349 14.51
    endloop
  endfacet
  facet normal 0.803207 0.5957 0
    outer loop
      vertex -8.73043 -5.83349 4.5
      vertex -8.11661 -6.66113 14.51
      vertex -8.11661 -6.66113 4.5
    endloop
  endfacet
  facet normal -0.427554 -0.90399 0
    outer loop
      vertex 4.01818 9.70073 4.5
      vertex 4.94967 9.26017 14.51
      vertex 4.01818 9.70073 14.51
    endloop
  endfacet
  facet normal -0.427554 -0.90399 -0
    outer loop
      vertex 4.94967 9.26017 14.51
      vertex 4.01818 9.70073 4.5
      vertex 4.94967 9.26017 4.5
    endloop
  endfacet
  facet normal -0.146736 0.989176 0
    outer loop
      vertex 2.04845 -10.2982 4.5
      vertex 1.02918 -10.4494 14.51
      vertex 2.04845 -10.2982 14.51
    endloop
  endfacet
  facet normal -0.146736 0.989176 0
    outer loop
      vertex 1.02918 -10.4494 14.51
      vertex 2.04845 -10.2982 4.5
      vertex 1.02918 -10.4494 4.5
    endloop
  endfacet
  facet normal 0.146736 -0.989176 0
    outer loop
      vertex -2.04845 10.2982 4.5
      vertex -1.02918 10.4494 14.51
      vertex -2.04845 10.2982 14.51
    endloop
  endfacet
  facet normal 0.146736 -0.989176 0
    outer loop
      vertex -1.02918 10.4494 14.51
      vertex -2.04845 10.2982 4.5
      vertex -1.02918 10.4494 4.5
    endloop
  endfacet
  facet normal 0.90399 0.427554 0
    outer loop
      vertex -9.26017 -4.94967 14.51
      vertex -9.70073 -4.01818 4.5
      vertex -9.70073 -4.01818 14.51
    endloop
  endfacet
  facet normal 0.90399 0.427554 0
    outer loop
      vertex -9.70073 -4.01818 4.5
      vertex -9.26017 -4.94967 14.51
      vertex -9.26017 -4.94967 4.5
    endloop
  endfacet
  facet normal -0.998794 0.049106 0
    outer loop
      vertex 10.4494 -1.02918 4.5
      vertex 10.5 0 14.51
      vertex 10.5 0 4.5
    endloop
  endfacet
  facet normal -0.998794 0.049106 0
    outer loop
      vertex 10.5 0 14.51
      vertex 10.4494 -1.02918 4.5
      vertex 10.4494 -1.02918 14.51
    endloop
  endfacet
  facet normal -0.242915 -0.970048 0
    outer loop
      vertex 2.04845 10.2982 4.5
      vertex 3.04799 10.0479 14.51
      vertex 2.04845 10.2982 14.51
    endloop
  endfacet
  facet normal -0.242915 -0.970048 -0
    outer loop
      vertex 3.04799 10.0479 14.51
      vertex 2.04845 10.2982 4.5
      vertex 3.04799 10.0479 4.5
    endloop
  endfacet
  facet normal 0.970048 -0.242915 0
    outer loop
      vertex -10.2982 2.04845 14.51
      vertex -10.0479 3.04799 4.5
      vertex -10.0479 3.04799 14.51
    endloop
  endfacet
  facet normal 0.970048 -0.242915 0
    outer loop
      vertex -10.0479 3.04799 4.5
      vertex -10.2982 2.04845 14.51
      vertex -10.2982 2.04845 4.5
    endloop
  endfacet
  facet normal 0.5957 0.803207 -0
    outer loop
      vertex -5.83349 -8.73043 4.5
      vertex -6.66113 -8.11661 14.51
      vertex -5.83349 -8.73043 14.51
    endloop
  endfacet
  facet normal 0.5957 0.803207 0
    outer loop
      vertex -6.66113 -8.11661 14.51
      vertex -5.83349 -8.73043 4.5
      vertex -6.66113 -8.11661 4.5
    endloop
  endfacet
  facet normal 0.74095 -0.671561 0
    outer loop
      vertex -8.11661 6.66113 14.51
      vertex -7.42462 7.42462 4.5
      vertex -7.42462 7.42462 14.51
    endloop
  endfacet
  facet normal 0.74095 -0.671561 0
    outer loop
      vertex -7.42462 7.42462 4.5
      vertex -8.11661 6.66113 14.51
      vertex -8.11661 6.66113 4.5
    endloop
  endfacet
  facet normal -0.857729 0.514102 0
    outer loop
      vertex 8.73043 -5.83349 4.5
      vertex 9.26017 -4.94967 14.51
      vertex 9.26017 -4.94967 4.5
    endloop
  endfacet
  facet normal -0.857729 0.514102 0
    outer loop
      vertex 9.26017 -4.94967 14.51
      vertex 8.73043 -5.83349 4.5
      vertex 8.73043 -5.83349 14.51
    endloop
  endfacet
  facet normal -0.5957 -0.803207 0
    outer loop
      vertex 5.83349 8.73043 4.5
      vertex 6.66113 8.11661 14.51
      vertex 5.83349 8.73043 14.51
    endloop
  endfacet
  facet normal -0.5957 -0.803207 -0
    outer loop
      vertex 6.66113 8.11661 14.51
      vertex 5.83349 8.73043 4.5
      vertex 6.66113 8.11661 4.5
    endloop
  endfacet
  facet normal -0.336916 -0.941535 0
    outer loop
      vertex 3.04799 10.0479 4.5
      vertex 4.01818 9.70073 14.51
      vertex 3.04799 10.0479 14.51
    endloop
  endfacet
  facet normal -0.336916 -0.941535 -0
    outer loop
      vertex 4.01818 9.70073 14.51
      vertex 3.04799 10.0479 4.5
      vertex 4.01818 9.70073 4.5
    endloop
  endfacet
  facet normal -0.803207 -0.5957 0
    outer loop
      vertex 8.73043 5.83349 4.5
      vertex 8.11661 6.66113 14.51
      vertex 8.11661 6.66113 4.5
    endloop
  endfacet
  facet normal -0.803207 -0.5957 0
    outer loop
      vertex 8.11661 6.66113 14.51
      vertex 8.73043 5.83349 4.5
      vertex 8.73043 5.83349 14.51
    endloop
  endfacet
  facet normal -0.857729 -0.514102 0
    outer loop
      vertex 9.26017 4.94967 4.5
      vertex 8.73043 5.83349 14.51
      vertex 8.73043 5.83349 4.5
    endloop
  endfacet
  facet normal -0.857729 -0.514102 0
    outer loop
      vertex 8.73043 5.83349 14.51
      vertex 9.26017 4.94967 4.5
      vertex 9.26017 4.94967 14.51
    endloop
  endfacet
  facet normal 0.427554 0.90399 -0
    outer loop
      vertex -4.01818 -9.70073 4.5
      vertex -4.94967 -9.26017 14.51
      vertex -4.01818 -9.70073 14.51
    endloop
  endfacet
  facet normal 0.427554 0.90399 0
    outer loop
      vertex -4.94967 -9.26017 14.51
      vertex -4.01818 -9.70073 4.5
      vertex -4.94967 -9.26017 4.5
    endloop
  endfacet
  facet normal 0.970048 0.242915 0
    outer loop
      vertex -10.0479 -3.04799 14.51
      vertex -10.2982 -2.04845 4.5
      vertex -10.2982 -2.04845 14.51
    endloop
  endfacet
  facet normal 0.970048 0.242915 0
    outer loop
      vertex -10.2982 -2.04845 4.5
      vertex -10.0479 -3.04799 14.51
      vertex -10.0479 -3.04799 4.5
    endloop
  endfacet
  facet normal -0.90399 -0.427554 0
    outer loop
      vertex 9.70073 4.01818 4.5
      vertex 9.26017 4.94967 14.51
      vertex 9.26017 4.94967 4.5
    endloop
  endfacet
  facet normal -0.90399 -0.427554 0
    outer loop
      vertex 9.26017 4.94967 14.51
      vertex 9.70073 4.01818 4.5
      vertex 9.70073 4.01818 14.51
    endloop
  endfacet
  facet normal 0 0 -1
    outer loop
      vertex 7.05 -7.05 14.51
      vertex 10.5 0 14.51
      vertex 10.4494 -1.02918 14.51
    endloop
  endfacet
  facet normal 0 0 -1
    outer loop
      vertex 7.05 -7.05 14.51
      vertex 10.4494 -1.02918 14.51
      vertex 10.2982 -2.04845 14.51
    endloop
  endfacet
  facet normal -0 0 -1
    outer loop
      vertex 10.5 0 14.51
      vertex 7.05 -7.05 14.51
      vertex 10.4494 1.02918 14.51
    endloop
  endfacet
  facet normal 0 0 -1
    outer loop
      vertex 7.05 -7.05 14.51
      vertex 10.2982 -2.04845 14.51
      vertex 10.0479 -3.04799 14.51
    endloop
  endfacet
  facet normal 0 0 -1
    outer loop
      vertex 7.05 7.05 14.51
      vertex 10.4494 1.02918 14.51
      vertex 7.05 -7.05 14.51
    endloop
  endfacet
  facet normal 0 0 -1
    outer loop
      vertex 7.05 -7.05 14.51
      vertex 10.0479 -3.04799 14.51
      vertex 9.70073 -4.01818 14.51
    endloop
  endfacet
  facet normal 0 0 -1
    outer loop
      vertex 10.4494 1.02918 14.51
      vertex 7.05 7.05 14.51
      vertex 10.2982 2.04845 14.51
    endloop
  endfacet
  facet normal 0 0 -1
    outer loop
      vertex 7.05 -7.05 14.51
      vertex 9.70073 -4.01818 14.51
      vertex 9.26017 -4.94967 14.51
    endloop
  endfacet
  facet normal 0 0 -1
    outer loop
      vertex 10.2982 2.04845 14.51
      vertex 7.05 7.05 14.51
      vertex 10.0479 3.04799 14.51
    endloop
  endfacet
  facet normal 0 0 -1
    outer loop
      vertex 7.05 -7.05 14.51
      vertex 9.26017 -4.94967 14.51
      vertex 8.73043 -5.83349 14.51
    endloop
  endfacet
  facet normal 0 0 -1
    outer loop
      vertex 10.0479 3.04799 14.51
      vertex 7.05 7.05 14.51
      vertex 9.70073 4.01818 14.51
    endloop
  endfacet
  facet normal 0 0 -1
    outer loop
      vertex 7.05 -7.05 14.51
      vertex 8.73043 -5.83349 14.51
      vertex 8.11661 -6.66113 14.51
    endloop
  endfacet
  facet normal 0 0 -1
    outer loop
      vertex 9.70073 4.01818 14.51
      vertex 7.05 7.05 14.51
      vertex 9.26017 4.94967 14.51
    endloop
  endfacet
  facet normal 0 0 -1
    outer loop
      vertex 7.05 -7.05 14.51
      vertex 8.11661 -6.66113 14.51
      vertex 7.42462 -7.42462 14.51
    endloop
  endfacet
  facet normal 0 0 -1
    outer loop
      vertex 9.26017 4.94967 14.51
      vertex 7.05 7.05 14.51
      vertex 8.73043 5.83349 14.51
    endloop
  endfacet
  facet normal 0 0 -1
    outer loop
      vertex 8.73043 5.83349 14.51
      vertex 7.05 7.05 14.51
      vertex 8.11661 6.66113 14.51
    endloop
  endfacet
  facet normal 0 0 -1
    outer loop
      vertex 6.66113 -8.11661 14.51
      vertex 7.05 -7.05 14.51
      vertex 7.42462 -7.42462 14.51
    endloop
  endfacet
  facet normal 0 0 -1
    outer loop
      vertex 5.83349 -8.73043 14.51
      vertex 7.05 -7.05 14.51
      vertex 6.66113 -8.11661 14.51
    endloop
  endfacet
  facet normal 0 0 -1
    outer loop
      vertex 4.94967 -9.26017 14.51
      vertex 7.05 -7.05 14.51
      vertex 5.83349 -8.73043 14.51
    endloop
  endfacet
  facet normal 0 0 -1
    outer loop
      vertex 4.01818 -9.70073 14.51
      vertex 7.05 -7.05 14.51
      vertex 4.94967 -9.26017 14.51
    endloop
  endfacet
  facet normal 0 0 -1
    outer loop
      vertex 3.04799 -10.0479 14.51
      vertex 7.05 -7.05 14.51
      vertex 4.01818 -9.70073 14.51
    endloop
  endfacet
  facet normal 0 0 -1
    outer loop
      vertex 2.04845 -10.2982 14.51
      vertex 7.05 -7.05 14.51
      vertex 3.04799 -10.0479 14.51
    endloop
  endfacet
  facet normal 0 0 -1
    outer loop
      vertex 1.02918 -10.4494 14.51
      vertex 7.05 -7.05 14.51
      vertex 2.04845 -10.2982 14.51
    endloop
  endfacet
  facet normal 0 0 -1
    outer loop
      vertex 0 -10.5 14.51
      vertex 7.05 -7.05 14.51
      vertex 1.02918 -10.4494 14.51
    endloop
  endfacet
  facet normal 0 0 -1
    outer loop
      vertex -1.02918 -10.4494 14.51
      vertex 7.05 -7.05 14.51
      vertex 0 -10.5 14.51
    endloop
  endfacet
  facet normal 0 0 -1
    outer loop
      vertex -7.05 -7.05 14.51
      vertex -1.02918 -10.4494 14.51
      vertex -2.04845 -10.2982 14.51
    endloop
  endfacet
  facet normal 0 0 -1
    outer loop
      vertex -7.05 -7.05 14.51
      vertex -2.04845 -10.2982 14.51
      vertex -3.04799 -10.0479 14.51
    endloop
  endfacet
  facet normal 0 0 -1
    outer loop
      vertex -7.05 -7.05 14.51
      vertex -3.04799 -10.0479 14.51
      vertex -4.01818 -9.70073 14.51
    endloop
  endfacet
  facet normal 0 0 -1
    outer loop
      vertex -7.05 -7.05 14.51
      vertex -4.01818 -9.70073 14.51
      vertex -4.94967 -9.26017 14.51
    endloop
  endfacet
  facet normal 0 0 -1
    outer loop
      vertex -7.05 -7.05 14.51
      vertex -4.94967 -9.26017 14.51
      vertex -5.83349 -8.73043 14.51
    endloop
  endfacet
  facet normal 0 0 -1
    outer loop
      vertex -7.05 -7.05 14.51
      vertex -5.83349 -8.73043 14.51
      vertex -6.66113 -8.11661 14.51
    endloop
  endfacet
  facet normal 0 0 -1
    outer loop
      vertex -1.02918 -10.4494 14.51
      vertex -7.05 -7.05 14.51
      vertex 7.05 -7.05 14.51
    endloop
  endfacet
  facet normal 0 0 -1
    outer loop
      vertex -8.11661 -6.66113 14.51
      vertex -7.05 -7.05 14.51
      vertex -7.42462 -7.42462 14.51
    endloop
  endfacet
  facet normal 0 0 -1
    outer loop
      vertex -7.42462 -7.42462 14.51
      vertex -7.05 -7.05 14.51
      vertex -6.66113 -8.11661 14.51
    endloop
  endfacet
  facet normal 0 0 -1
    outer loop
      vertex 8.11661 6.66113 14.51
      vertex 7.05 7.05 14.51
      vertex 7.42462 7.42462 14.51
    endloop
  endfacet
  facet normal 0 0 -1
    outer loop
      vertex 7.05 7.05 14.51
      vertex 6.66113 8.11661 14.51
      vertex 7.42462 7.42462 14.51
    endloop
  endfacet
  facet normal 0 0 -1
    outer loop
      vertex 7.05 7.05 14.51
      vertex 5.83349 8.73043 14.51
      vertex 6.66113 8.11661 14.51
    endloop
  endfacet
  facet normal 0 0 -1
    outer loop
      vertex 7.05 7.05 14.51
      vertex 4.94967 9.26017 14.51
      vertex 5.83349 8.73043 14.51
    endloop
  endfacet
  facet normal 0 0 -1
    outer loop
      vertex 7.05 7.05 14.51
      vertex 4.01818 9.70073 14.51
      vertex 4.94967 9.26017 14.51
    endloop
  endfacet
  facet normal 0 0 -1
    outer loop
      vertex 7.05 7.05 14.51
      vertex 3.04799 10.0479 14.51
      vertex 4.01818 9.70073 14.51
    endloop
  endfacet
  facet normal 0 0 -1
    outer loop
      vertex 7.05 7.05 14.51
      vertex 2.04845 10.2982 14.51
      vertex 3.04799 10.0479 14.51
    endloop
  endfacet
  facet normal 0 0 -1
    outer loop
      vertex 7.05 7.05 14.51
      vertex 1.02918 10.4494 14.51
      vertex 2.04845 10.2982 14.51
    endloop
  endfacet
  facet normal 0 0 -1
    outer loop
      vertex 7.05 7.05 14.51
      vertex 0 10.5 14.51
      vertex 1.02918 10.4494 14.51
    endloop
  endfacet
  facet normal 0 0 -1
    outer loop
      vertex 7.05 7.05 14.51
      vertex -1.02918 10.4494 14.51
      vertex 0 10.5 14.51
    endloop
  endfacet
  facet normal 0 0 -1
    outer loop
      vertex -7.05 7.05 14.51
      vertex -1.02918 10.4494 14.51
      vertex 7.05 7.05 14.51
    endloop
  endfacet
  facet normal 0 0 -1
    outer loop
      vertex -1.02918 10.4494 14.51
      vertex -7.05 7.05 14.51
      vertex -2.04845 10.2982 14.51
    endloop
  endfacet
  facet normal 0 0 -1
    outer loop
      vertex -2.04845 10.2982 14.51
      vertex -7.05 7.05 14.51
      vertex -3.04799 10.0479 14.51
    endloop
  endfacet
  facet normal 0 0 -1
    outer loop
      vertex -3.04799 10.0479 14.51
      vertex -7.05 7.05 14.51
      vertex -4.01818 9.70073 14.51
    endloop
  endfacet
  facet normal 0 0 -1
    outer loop
      vertex -4.01818 9.70073 14.51
      vertex -7.05 7.05 14.51
      vertex -4.94967 9.26017 14.51
    endloop
  endfacet
  facet normal 0 0 -1
    outer loop
      vertex -4.94967 9.26017 14.51
      vertex -7.05 7.05 14.51
      vertex -5.83349 8.73043 14.51
    endloop
  endfacet
  facet normal 0 0 -1
    outer loop
      vertex -5.83349 8.73043 14.51
      vertex -7.05 7.05 14.51
      vertex -6.66113 8.11661 14.51
    endloop
  endfacet
  facet normal 0 0 -1
    outer loop
      vertex -7.05 7.05 14.51
      vertex -7.42462 7.42462 14.51
      vertex -6.66113 8.11661 14.51
    endloop
  endfacet
  facet normal 0 0 -1
    outer loop
      vertex -8.73043 -5.83349 14.51
      vertex -7.05 -7.05 14.51
      vertex -8.11661 -6.66113 14.51
    endloop
  endfacet
  facet normal 0 0 -1
    outer loop
      vertex -9.26017 -4.94967 14.51
      vertex -7.05 -7.05 14.51
      vertex -8.73043 -5.83349 14.51
    endloop
  endfacet
  facet normal -0 0 -1
    outer loop
      vertex -7.05 7.05 14.51
      vertex -8.11661 6.66113 14.51
      vertex -7.42462 7.42462 14.51
    endloop
  endfacet
  facet normal 0 0 -1
    outer loop
      vertex -9.70073 -4.01818 14.51
      vertex -7.05 -7.05 14.51
      vertex -9.26017 -4.94967 14.51
    endloop
  endfacet
  facet normal 0 0 -1
    outer loop
      vertex -7.05 7.05 14.51
      vertex -8.73043 5.83349 14.51
      vertex -8.11661 6.66113 14.51
    endloop
  endfacet
  facet normal 0 0 -1
    outer loop
      vertex -10.0479 -3.04799 14.51
      vertex -7.05 -7.05 14.51
      vertex -9.70073 -4.01818 14.51
    endloop
  endfacet
  facet normal 0 0 -1
    outer loop
      vertex -7.05 7.05 14.51
      vertex -9.26017 4.94967 14.51
      vertex -8.73043 5.83349 14.51
    endloop
  endfacet
  facet normal 0 0 -1
    outer loop
      vertex -10.2982 -2.04845 14.51
      vertex -7.05 -7.05 14.51
      vertex -10.0479 -3.04799 14.51
    endloop
  endfacet
  facet normal 0 0 -1
    outer loop
      vertex -7.05 7.05 14.51
      vertex -9.70073 4.01818 14.51
      vertex -9.26017 4.94967 14.51
    endloop
  endfacet
  facet normal 0 0 -1
    outer loop
      vertex -10.4494 -1.02918 14.51
      vertex -7.05 -7.05 14.51
      vertex -10.2982 -2.04845 14.51
    endloop
  endfacet
  facet normal 0 0 -1
    outer loop
      vertex -7.05 7.05 14.51
      vertex -10.0479 3.04799 14.51
      vertex -9.70073 4.01818 14.51
    endloop
  endfacet
  facet normal 0 0 -1
    outer loop
      vertex -7.05 -7.05 14.51
      vertex -10.4494 -1.02918 14.51
      vertex -7.05 7.05 14.51
    endloop
  endfacet
  facet normal 0 0 -1
    outer loop
      vertex -7.05 7.05 14.51
      vertex -10.2982 2.04845 14.51
      vertex -10.0479 3.04799 14.51
    endloop
  endfacet
  facet normal 0 0 -1
    outer loop
      vertex -10.5 0 14.51
      vertex -7.05 7.05 14.51
      vertex -10.4494 -1.02918 14.51
    endloop
  endfacet
  facet normal 0 0 -1
    outer loop
      vertex -7.05 7.05 14.51
      vertex -10.4494 1.02918 14.51
      vertex -10.2982 2.04845 14.51
    endloop
  endfacet
  facet normal 0 0 -1
    outer loop
      vertex -7.05 7.05 14.51
      vertex -10.5 0 14.51
      vertex -10.4494 1.02918 14.51
    endloop
  endfacet
  facet normal -0.427554 0.90399 0
    outer loop
      vertex 4.94967 -9.26017 4.5
      vertex 4.01818 -9.70073 14.51
      vertex 4.94967 -9.26017 14.51
    endloop
  endfacet
  facet normal -0.427554 0.90399 0
    outer loop
      vertex 4.01818 -9.70073 14.51
      vertex 4.94967 -9.26017 4.5
      vertex 4.01818 -9.70073 4.5
    endloop
  endfacet
  facet normal -0.146736 -0.989176 0
    outer loop
      vertex 1.02918 10.4494 4.5
      vertex 2.04845 10.2982 14.51
      vertex 1.02918 10.4494 14.51
    endloop
  endfacet
  facet normal -0.146736 -0.989176 -0
    outer loop
      vertex 2.04845 10.2982 14.51
      vertex 1.02918 10.4494 4.5
      vertex 2.04845 10.2982 4.5
    endloop
  endfacet
  facet normal 0.671561 -0.74095 0
    outer loop
      vertex -7.42462 7.42462 4.5
      vertex -6.66113 8.11661 14.51
      vertex -7.42462 7.42462 14.51
    endloop
  endfacet
  facet normal 0.671561 -0.74095 0
    outer loop
      vertex -6.66113 8.11661 14.51
      vertex -7.42462 7.42462 4.5
      vertex -6.66113 8.11661 4.5
    endloop
  endfacet
  facet normal 0.989176 -0.146736 0
    outer loop
      vertex -10.4494 1.02918 14.51
      vertex -10.2982 2.04845 4.5
      vertex -10.2982 2.04845 14.51
    endloop
  endfacet
  facet normal 0.989176 -0.146736 0
    outer loop
      vertex -10.2982 2.04845 4.5
      vertex -10.4494 1.02918 14.51
      vertex -10.4494 1.02918 4.5
    endloop
  endfacet
  facet normal 0.941535 -0.336916 0
    outer loop
      vertex -10.0479 3.04799 14.51
      vertex -9.70073 4.01818 4.5
      vertex -9.70073 4.01818 14.51
    endloop
  endfacet
  facet normal 0.941535 -0.336916 0
    outer loop
      vertex -9.70073 4.01818 4.5
      vertex -10.0479 3.04799 14.51
      vertex -10.0479 3.04799 4.5
    endloop
  endfacet
  facet normal 0.336916 -0.941535 0
    outer loop
      vertex -4.01818 9.70073 4.5
      vertex -3.04799 10.0479 14.51
      vertex -4.01818 9.70073 14.51
    endloop
  endfacet
  facet normal 0.336916 -0.941535 0
    outer loop
      vertex -3.04799 10.0479 14.51
      vertex -4.01818 9.70073 4.5
      vertex -3.04799 10.0479 4.5
    endloop
  endfacet
  facet normal 0.998794 0.049106 0
    outer loop
      vertex -10.4494 -1.02918 14.51
      vertex -10.5 0 4.5
      vertex -10.5 0 14.51
    endloop
  endfacet
  facet normal 0.998794 0.049106 0
    outer loop
      vertex -10.5 0 4.5
      vertex -10.4494 -1.02918 14.51
      vertex -10.4494 -1.02918 4.5
    endloop
  endfacet
  facet normal -0.671561 0.74095 0
    outer loop
      vertex 7.42462 -7.42462 4.5
      vertex 6.66113 -8.11661 14.51
      vertex 7.42462 -7.42462 14.51
    endloop
  endfacet
  facet normal -0.671561 0.74095 0
    outer loop
      vertex 6.66113 -8.11661 14.51
      vertex 7.42462 -7.42462 4.5
      vertex 6.66113 -8.11661 4.5
    endloop
  endfacet
  facet normal 0.049106 -0.998794 0
    outer loop
      vertex -1.02918 10.4494 4.5
      vertex 0 10.5 14.51
      vertex -1.02918 10.4494 14.51
    endloop
  endfacet
  facet normal 0.049106 -0.998794 0
    outer loop
      vertex 0 10.5 14.51
      vertex -1.02918 10.4494 4.5
      vertex 0 10.5 4.5
    endloop
  endfacet
  facet normal 0.803207 -0.5957 0
    outer loop
      vertex -8.73043 5.83349 14.51
      vertex -8.11661 6.66113 4.5
      vertex -8.11661 6.66113 14.51
    endloop
  endfacet
  facet normal 0.803207 -0.5957 0
    outer loop
      vertex -8.11661 6.66113 4.5
      vertex -8.73043 5.83349 14.51
      vertex -8.73043 5.83349 4.5
    endloop
  endfacet
  facet normal 0.74095 0.671561 0
    outer loop
      vertex -7.42462 -7.42462 14.51
      vertex -8.11661 -6.66113 4.5
      vertex -8.11661 -6.66113 14.51
    endloop
  endfacet
  facet normal 0.74095 0.671561 0
    outer loop
      vertex -8.11661 -6.66113 4.5
      vertex -7.42462 -7.42462 14.51
      vertex -7.42462 -7.42462 4.5
    endloop
  endfacet
  facet normal -0.049106 0.998794 0
    outer loop
      vertex 1.02918 -10.4494 4.5
      vertex 0 -10.5 14.51
      vertex 1.02918 -10.4494 14.51
    endloop
  endfacet
  facet normal -0.049106 0.998794 0
    outer loop
      vertex 0 -10.5 14.51
      vertex 1.02918 -10.4494 4.5
      vertex 0 -10.5 4.5
    endloop
  endfacet
  facet normal 0.989176 0.146736 0
    outer loop
      vertex -10.2982 -2.04845 14.51
      vertex -10.4494 -1.02918 4.5
      vertex -10.4494 -1.02918 14.51
    endloop
  endfacet
  facet normal 0.989176 0.146736 0
    outer loop
      vertex -10.4494 -1.02918 4.5
      vertex -10.2982 -2.04845 14.51
      vertex -10.2982 -2.04845 4.5
    endloop
  endfacet
  facet normal -0.049106 -0.998794 0
    outer loop
      vertex 0 10.5 4.5
      vertex 1.02918 10.4494 14.51
      vertex 0 10.5 14.51
    endloop
  endfacet
  facet normal -0.049106 -0.998794 -0
    outer loop
      vertex 1.02918 10.4494 14.51
      vertex 0 10.5 4.5
      vertex 1.02918 10.4494 4.5
    endloop
  endfacet
  facet normal 0.90399 -0.427554 0
    outer loop
      vertex -9.70073 4.01818 14.51
      vertex -9.26017 4.94967 4.5
      vertex -9.26017 4.94967 14.51
    endloop
  endfacet
  facet normal 0.90399 -0.427554 0
    outer loop
      vertex -9.26017 4.94967 4.5
      vertex -9.70073 4.01818 14.51
      vertex -9.70073 4.01818 4.5
    endloop
  endfacet
  facet normal -0.941535 0.336916 0
    outer loop
      vertex 9.70073 -4.01818 4.5
      vertex 10.0479 -3.04799 14.51
      vertex 10.0479 -3.04799 4.5
    endloop
  endfacet
  facet normal -0.941535 0.336916 0
    outer loop
      vertex 10.0479 -3.04799 14.51
      vertex 9.70073 -4.01818 4.5
      vertex 9.70073 -4.01818 14.51
    endloop
  endfacet
  facet normal 0.671561 0.74095 -0
    outer loop
      vertex -6.66113 -8.11661 4.5
      vertex -7.42462 -7.42462 14.51
      vertex -6.66113 -8.11661 14.51
    endloop
  endfacet
  facet normal 0.671561 0.74095 0
    outer loop
      vertex -7.42462 -7.42462 14.51
      vertex -6.66113 -8.11661 4.5
      vertex -7.42462 -7.42462 4.5
    endloop
  endfacet
  facet normal 0.049106 0.998794 -0
    outer loop
      vertex 0 -10.5 4.5
      vertex -1.02918 -10.4494 14.51
      vertex 0 -10.5 14.51
    endloop
  endfacet
  facet normal 0.049106 0.998794 0
    outer loop
      vertex -1.02918 -10.4494 14.51
      vertex 0 -10.5 4.5
      vertex -1.02918 -10.4494 4.5
    endloop
  endfacet
  facet normal 0.998794 -0.049106 0
    outer loop
      vertex -10.5 0 14.51
      vertex -10.4494 1.02918 4.5
      vertex -10.4494 1.02918 14.51
    endloop
  endfacet
  facet normal 0.998794 -0.049106 0
    outer loop
      vertex -10.4494 1.02918 4.5
      vertex -10.5 0 14.51
      vertex -10.5 0 4.5
    endloop
  endfacet
  facet normal 0.336916 0.941535 -0
    outer loop
      vertex -3.04799 -10.0479 4.5
      vertex -4.01818 -9.70073 14.51
      vertex -3.04799 -10.0479 14.51
    endloop
  endfacet
  facet normal 0.336916 0.941535 0
    outer loop
      vertex -4.01818 -9.70073 14.51
      vertex -3.04799 -10.0479 4.5
      vertex -4.01818 -9.70073 4.5
    endloop
  endfacet
  facet normal -0.74095 0.671561 0
    outer loop
      vertex 7.42462 -7.42462 4.5
      vertex 8.11661 -6.66113 14.51
      vertex 8.11661 -6.66113 4.5
    endloop
  endfacet
  facet normal -0.74095 0.671561 0
    outer loop
      vertex 8.11661 -6.66113 14.51
      vertex 7.42462 -7.42462 4.5
      vertex 7.42462 -7.42462 14.51
    endloop
  endfacet
  facet normal 1 -0 0
    outer loop
      vertex -7.05 -7.05 16
      vertex -7.05 7.05 14.51
      vertex -7.05 7.05 16
    endloop
  endfacet
  facet normal 1 0 0
    outer loop
      vertex -7.05 7.05 14.51
      vertex -7.05 -7.05 16
      vertex -7.05 -7.05 14.51
    endloop
  endfacet
  facet normal 0 -1 0
    outer loop
      vertex -7.05 7.05 14.51
      vertex 7.05 7.05 16
      vertex -7.05 7.05 16
    endloop
  endfacet
  facet normal 0 -1 -0
    outer loop
      vertex 7.05 7.05 16
      vertex -7.05 7.05 14.51
      vertex 7.05 7.05 14.51
    endloop
  endfacet
  facet normal -1 0 0
    outer loop
      vertex 7.05 -7.05 14.51
      vertex 7.05 7.05 16
      vertex 7.05 7.05 14.51
    endloop
  endfacet
  facet normal -1 -0 0
    outer loop
      vertex 7.05 7.05 16
      vertex 7.05 -7.05 14.51
      vertex 7.05 -7.05 16
    endloop
  endfacet
  facet normal 0 1 -0
    outer loop
      vertex 7.05 -7.05 14.51
      vertex -7.05 -7.05 16
      vertex 7.05 -7.05 16
    endloop
  endfacet
  facet normal 0 1 0
    outer loop
      vertex -7.05 -7.05 16
      vertex 7.05 -7.05 14.51
      vertex -7.05 -7.05 14.51
    endloop
  endfacet
endsolid OpenSCAD_Model
