solid OpenSCAD_Model
  facet normal 0.99812 -0.061284 0
    outer loop
      vertex 20.5257 -1.61728 16
      vertex 20.625 0 0
      vertex 20.625 0 16
    endloop
  endfacet
  facet normal 0.99812 -0.061284 0
    outer loop
      vertex 20.625 0 0
      vertex 20.5257 -1.61728 16
      vertex 20.5257 -1.61728 0
    endloop
  endfacet
  facet normal 0.432394 -0.901685 0
    outer loop
      vertex 9.72256 -14.5517 0
      vertex 11.4586 -13.7192 16
      vertex 9.72256 -14.5517 16
    endloop
  endfacet
  facet normal 0.432394 -0.901685 0
    outer loop
      vertex 11.4586 -13.7192 16
      vertex 9.72256 -14.5517 0
      vertex 11.4586 -13.7192 0
    endloop
  endfacet
  facet normal 0.587009 -0.80958 0
    outer loop
      vertex 13.0844 -12.7547 0
      vertex 14.5841 -11.6673 16
      vertex 13.0844 -12.7547 16
    endloop
  endfacet
  facet normal 0.587009 -0.80958 0
    outer loop
      vertex 14.5841 -11.6673 16
      vertex 13.0844 -12.7547 0
      vertex 14.5841 -11.6673 0
    endloop
  endfacet
  facet normal -0.99812 -0.061284 0
    outer loop
      vertex -20.5257 -1.61728 0
      vertex -20.625 0 16
      vertex -20.625 0 0
    endloop
  endfacet
  facet normal -0.99812 -0.061284 0
    outer loop
      vertex -20.625 0 16
      vertex -20.5257 -1.61728 0
      vertex -20.5257 -1.61728 16
    endloop
  endfacet
  facet normal -0.0392949 0.999228 0
    outer loop
      vertex 0 16.5 0
      vertex -2.0216 16.4205 16
      vertex 0 16.5 16
    endloop
  endfacet
  facet normal -0.0392949 0.999228 0
    outer loop
      vertex -2.0216 16.4205 16
      vertex 0 16.5 0
      vertex -2.0216 16.4205 0
    endloop
  endfacet
  facet normal -0.983239 -0.182319 0
    outer loop
      vertex -20.2287 -3.21899 0
      vertex -20.5257 -1.61728 16
      vertex -20.5257 -1.61728 0
    endloop
  endfacet
  facet normal -0.983239 -0.182319 0
    outer loop
      vertex -20.5257 -1.61728 16
      vertex -20.2287 -3.21899 0
      vertex -20.2287 -3.21899 16
    endloop
  endfacet
  facet normal -0.117797 -0.993038 0
    outer loop
      vertex -4.02374 -16.183 0
      vertex -2.0216 -16.4205 16
      vertex -4.02374 -16.183 16
    endloop
  endfacet
  facet normal -0.117797 -0.993038 -0
    outer loop
      vertex -2.0216 -16.4205 16
      vertex -4.02374 -16.183 0
      vertex -2.0216 -16.4205 0
    endloop
  endfacet
  facet normal -0.661779 -0.749699 0
    outer loop
      vertex -15.9433 -10.4675 0
      vertex -14.5841 -11.6673 16
      vertex -15.9433 -10.4675 16
    endloop
  endfacet
  facet normal -0.661779 -0.749699 -0
    outer loop
      vertex -14.5841 -11.6673 16
      vertex -15.9433 -10.4675 0
      vertex -14.5841 -11.6673 0
    endloop
  endfacet
  facet normal -0.912851 -0.408292 0
    outer loop
      vertex -19.055 -6.31428 0
      vertex -19.7369 -4.7897 16
      vertex -19.7369 -4.7897 0
    endloop
  endfacet
  facet normal -0.912851 -0.408292 0
    outer loop
      vertex -19.7369 -4.7897 16
      vertex -19.055 -6.31428 0
      vertex -19.055 -6.31428 16
    endloop
  endfacet
  facet normal -0.800317 -0.599578 0
    outer loop
      vertex -17.1491 -9.16691 0
      vertex -18.1896 -7.77805 16
      vertex -18.1896 -7.77805 0
    endloop
  endfacet
  facet normal -0.800317 -0.599578 0
    outer loop
      vertex -18.1896 -7.77805 16
      vertex -17.1491 -9.16691 0
      vertex -17.1491 -9.16691 16
    endloop
  endfacet
  facet normal -0.733325 -0.679878 0
    outer loop
      vertex -15.9433 -10.4675 0
      vertex -17.1491 -9.16691 16
      vertex -17.1491 -9.16691 0
    endloop
  endfacet
  facet normal -0.733325 -0.679878 0
    outer loop
      vertex -17.1491 -9.16691 16
      vertex -15.9433 -10.4675 0
      vertex -15.9433 -10.4675 16
    endloop
  endfacet
  facet normal -0.860812 0.508923 0
    outer loop
      vertex -19.055 6.31428 0
      vertex -18.1896 7.77805 16
      vertex -18.1896 7.77805 0
    endloop
  endfacet
  facet normal -0.860812 0.508923 0
    outer loop
      vertex -18.1896 7.77805 16
      vertex -19.055 6.31428 0
      vertex -19.055 6.31428 16
    endloop
  endfacet
  facet normal 0.510218 0.860045 -0
    outer loop
      vertex 13.0844 12.7547 0
      vertex 11.4586 13.7192 16
      vertex 13.0844 12.7547 16
    endloop
  endfacet
  facet normal 0.510218 0.860045 0
    outer loop
      vertex 11.4586 13.7192 16
      vertex 13.0844 12.7547 0
      vertex 11.4586 13.7192 0
    endloop
  endfacet
  facet normal -0.860812 -0.508923 0
    outer loop
      vertex -18.1896 -7.77805 0
      vertex -19.055 -6.31428 16
      vertex -19.055 -6.31428 0
    endloop
  endfacet
  facet normal -0.860812 -0.508923 0
    outer loop
      vertex -19.055 -6.31428 16
      vertex -18.1896 -7.77805 0
      vertex -18.1896 -7.77805 16
    endloop
  endfacet
  facet normal 0 0 1
    outer loop
      vertex 7.05 7.05 16
      vertex 20.625 0 16
      vertex 20.5257 1.61728 16
    endloop
  endfacet
  facet normal 0 0 1
    outer loop
      vertex 7.05 7.05 16
      vertex 20.5257 1.61728 16
      vertex 20.2287 3.21899 16
    endloop
  endfacet
  facet normal 0 0 1
    outer loop
      vertex 7.05 -7.05 16
      vertex 20.625 0 16
      vertex 7.05 7.05 16
    endloop
  endfacet
  facet normal 0 0 1
    outer loop
      vertex 7.05 7.05 16
      vertex 20.2287 3.21899 16
      vertex 19.7369 4.7897 16
    endloop
  endfacet
  facet normal 0 0 1
    outer loop
      vertex 20.625 0 16
      vertex 7.05 -7.05 16
      vertex 20.5257 -1.61728 16
    endloop
  endfacet
  facet normal 0 0 1
    outer loop
      vertex 7.05 7.05 16
      vertex 19.7369 4.7897 16
      vertex 19.055 6.31428 16
    endloop
  endfacet
  facet normal 0 0 1
    outer loop
      vertex 20.5257 -1.61728 16
      vertex 7.05 -7.05 16
      vertex 20.2287 -3.21899 16
    endloop
  endfacet
  facet normal -0 0 1
    outer loop
      vertex 7.05 7.05 16
      vertex 19.055 6.31428 16
      vertex 18.1896 7.77805 16
    endloop
  endfacet
  facet normal 0 0 1
    outer loop
      vertex 20.2287 -3.21899 16
      vertex 7.05 -7.05 16
      vertex 19.7369 -4.7897 16
    endloop
  endfacet
  facet normal 0 0 1
    outer loop
      vertex 7.05 7.05 16
      vertex 18.1896 7.77805 16
      vertex 17.1491 9.16691 16
    endloop
  endfacet
  facet normal 0 0 1
    outer loop
      vertex 19.7369 -4.7897 16
      vertex 7.05 -7.05 16
      vertex 19.055 -6.31428 16
    endloop
  endfacet
  facet normal 0 0 1
    outer loop
      vertex 7.05 7.05 16
      vertex 17.1491 9.16691 16
      vertex 15.9433 10.4675 16
    endloop
  endfacet
  facet normal 0 0 1
    outer loop
      vertex 19.055 -6.31428 16
      vertex 7.05 -7.05 16
      vertex 18.1896 -7.77805 16
    endloop
  endfacet
  facet normal 0 0 1
    outer loop
      vertex 7.05 7.05 16
      vertex 15.9433 10.4675 16
      vertex 14.5841 11.6673 16
    endloop
  endfacet
  facet normal 0 0 1
    outer loop
      vertex 18.1896 -7.77805 16
      vertex 7.05 -7.05 16
      vertex 17.1491 -9.16691 16
    endloop
  endfacet
  facet normal 0 0 1
    outer loop
      vertex 7.05 7.05 16
      vertex 14.5841 11.6673 16
      vertex 13.0844 12.7547 16
    endloop
  endfacet
  facet normal 0 0 1
    outer loop
      vertex 17.1491 -9.16691 16
      vertex 7.05 -7.05 16
      vertex 15.9433 -10.4675 16
    endloop
  endfacet
  facet normal 0 0 1
    outer loop
      vertex 7.05 7.05 16
      vertex 13.0844 12.7547 16
      vertex 11.4586 13.7192 16
    endloop
  endfacet
  facet normal 0 0 1
    outer loop
      vertex 15.9433 -10.4675 16
      vertex 7.05 -7.05 16
      vertex 14.5841 -11.6673 16
    endloop
  endfacet
  facet normal 0 0 1
    outer loop
      vertex 7.05 7.05 16
      vertex 11.4586 13.7192 16
      vertex 9.72256 14.5517 16
    endloop
  endfacet
  facet normal 0 0 1
    outer loop
      vertex 14.5841 -11.6673 16
      vertex 7.05 -7.05 16
      vertex 13.0844 -12.7547 16
    endloop
  endfacet
  facet normal 0 0 1
    outer loop
      vertex 7.05 7.05 16
      vertex 9.72256 14.5517 16
      vertex 7.89285 15.244 16
    endloop
  endfacet
  facet normal 0 0 1
    outer loop
      vertex 13.0844 -12.7547 16
      vertex 7.05 -7.05 16
      vertex 11.4586 -13.7192 16
    endloop
  endfacet
  facet normal 0 0 1
    outer loop
      vertex 11.4586 -13.7192 16
      vertex 7.05 -7.05 16
      vertex 9.72256 -14.5517 16
    endloop
  endfacet
  facet normal 0 0 1
    outer loop
      vertex 5.98712 15.7895 16
      vertex 7.05 7.05 16
      vertex 7.89285 15.244 16
    endloop
  endfacet
  facet normal 0 0 1
    outer loop
      vertex 4.02374 16.183 16
      vertex 7.05 7.05 16
      vertex 5.98712 15.7895 16
    endloop
  endfacet
  facet normal 0 0 1
    outer loop
      vertex 2.0216 16.4205 16
      vertex 7.05 7.05 16
      vertex 4.02374 16.183 16
    endloop
  endfacet
  facet normal 0 0 1
    outer loop
      vertex 0 16.5 16
      vertex 7.05 7.05 16
      vertex 2.0216 16.4205 16
    endloop
  endfacet
  facet normal 0 0 1
    outer loop
      vertex -7.05 7.05 16
      vertex 0 16.5 16
      vertex -2.0216 16.4205 16
    endloop
  endfacet
  facet normal 0 0 1
    outer loop
      vertex -7.05 7.05 16
      vertex -2.0216 16.4205 16
      vertex -4.02374 16.183 16
    endloop
  endfacet
  facet normal 0 0 1
    outer loop
      vertex -7.05 7.05 16
      vertex -4.02374 16.183 16
      vertex -5.98712 15.7895 16
    endloop
  endfacet
  facet normal 0 0 1
    outer loop
      vertex 0 16.5 16
      vertex -7.05 7.05 16
      vertex 7.05 7.05 16
    endloop
  endfacet
  facet normal -0 0 1
    outer loop
      vertex -9.72256 14.5517 16
      vertex -7.05 7.05 16
      vertex -7.89285 15.244 16
    endloop
  endfacet
  facet normal -0 0 1
    outer loop
      vertex -7.89285 15.244 16
      vertex -7.05 7.05 16
      vertex -5.98712 15.7895 16
    endloop
  endfacet
  facet normal 0 0 1
    outer loop
      vertex 9.72256 -14.5517 16
      vertex 7.05 -7.05 16
      vertex 7.89285 -15.244 16
    endloop
  endfacet
  facet normal 0 0 1
    outer loop
      vertex 7.05 -7.05 16
      vertex 5.98712 -15.7895 16
      vertex 7.89285 -15.244 16
    endloop
  endfacet
  facet normal 0 0 1
    outer loop
      vertex 7.05 -7.05 16
      vertex 4.02374 -16.183 16
      vertex 5.98712 -15.7895 16
    endloop
  endfacet
  facet normal 0 0 1
    outer loop
      vertex 7.05 -7.05 16
      vertex 2.0216 -16.4205 16
      vertex 4.02374 -16.183 16
    endloop
  endfacet
  facet normal 0 0 1
    outer loop
      vertex 7.05 -7.05 16
      vertex 0 -16.5 16
      vertex 2.0216 -16.4205 16
    endloop
  endfacet
  facet normal -0 0 1
    outer loop
      vertex -7.05 -7.05 16
      vertex 0 -16.5 16
      vertex 7.05 -7.05 16
    endloop
  endfacet
  facet normal 0 0 1
    outer loop
      vertex 0 -16.5 16
      vertex -7.05 -7.05 16
      vertex -2.0216 -16.4205 16
    endloop
  endfacet
  facet normal 0 0 1
    outer loop
      vertex -2.0216 -16.4205 16
      vertex -7.05 -7.05 16
      vertex -4.02374 -16.183 16
    endloop
  endfacet
  facet normal 0 0 1
    outer loop
      vertex -4.02374 -16.183 16
      vertex -7.05 -7.05 16
      vertex -5.98712 -15.7895 16
    endloop
  endfacet
  facet normal 0 0 1
    outer loop
      vertex -7.05 -7.05 16
      vertex -7.89285 -15.244 16
      vertex -5.98712 -15.7895 16
    endloop
  endfacet
  facet normal -0 0 1
    outer loop
      vertex -11.4586 13.7192 16
      vertex -7.05 7.05 16
      vertex -9.72256 14.5517 16
    endloop
  endfacet
  facet normal -0 0 1
    outer loop
      vertex -13.0844 12.7547 16
      vertex -7.05 7.05 16
      vertex -11.4586 13.7192 16
    endloop
  endfacet
  facet normal 0 0 1
    outer loop
      vertex -7.05 -7.05 16
      vertex -9.72256 -14.5517 16
      vertex -7.89285 -15.244 16
    endloop
  endfacet
  facet normal -0 0 1
    outer loop
      vertex -14.5841 11.6673 16
      vertex -7.05 7.05 16
      vertex -13.0844 12.7547 16
    endloop
  endfacet
  facet normal 0 0 1
    outer loop
      vertex -7.05 -7.05 16
      vertex -11.4586 -13.7192 16
      vertex -9.72256 -14.5517 16
    endloop
  endfacet
  facet normal -0 0 1
    outer loop
      vertex -15.9433 10.4675 16
      vertex -7.05 7.05 16
      vertex -14.5841 11.6673 16
    endloop
  endfacet
  facet normal 0 0 1
    outer loop
      vertex -7.05 -7.05 16
      vertex -13.0844 -12.7547 16
      vertex -11.4586 -13.7192 16
    endloop
  endfacet
  facet normal -0 0 1
    outer loop
      vertex -17.1491 9.16691 16
      vertex -7.05 7.05 16
      vertex -15.9433 10.4675 16
    endloop
  endfacet
  facet normal 0 0 1
    outer loop
      vertex -7.05 -7.05 16
      vertex -14.5841 -11.6673 16
      vertex -13.0844 -12.7547 16
    endloop
  endfacet
  facet normal -0 0 1
    outer loop
      vertex -18.1896 7.77805 16
      vertex -7.05 7.05 16
      vertex -17.1491 9.16691 16
    endloop
  endfacet
  facet normal 0 0 1
    outer loop
      vertex -7.05 -7.05 16
      vertex -15.9433 -10.4675 16
      vertex -14.5841 -11.6673 16
    endloop
  endfacet
  facet normal 0 0 1
    outer loop
      vertex -19.055 6.31428 16
      vertex -7.05 7.05 16
      vertex -18.1896 7.77805 16
    endloop
  endfacet
  facet normal 0 0 1
    outer loop
      vertex -7.05 -7.05 16
      vertex -17.1491 -9.16691 16
      vertex -15.9433 -10.4675 16
    endloop
  endfacet
  facet normal 0 0 1
    outer loop
      vertex -19.7369 4.7897 16
      vertex -7.05 7.05 16
      vertex -19.055 6.31428 16
    endloop
  endfacet
  facet normal 0 0 1
    outer loop
      vertex -7.05 -7.05 16
      vertex -18.1896 -7.77805 16
      vertex -17.1491 -9.16691 16
    endloop
  endfacet
  facet normal 0 0 1
    outer loop
      vertex -20.2287 3.21899 16
      vertex -7.05 7.05 16
      vertex -19.7369 4.7897 16
    endloop
  endfacet
  facet normal 0 0 1
    outer loop
      vertex -7.05 -7.05 16
      vertex -19.055 -6.31428 16
      vertex -18.1896 -7.77805 16
    endloop
  endfacet
  facet normal 0 0 1
    outer loop
      vertex -20.5257 1.61728 16
      vertex -7.05 7.05 16
      vertex -20.2287 3.21899 16
    endloop
  endfacet
  facet normal 0 0 1
    outer loop
      vertex -7.05 -7.05 16
      vertex -19.7369 -4.7897 16
      vertex -19.055 -6.31428 16
    endloop
  endfacet
  facet normal 0 0 1
    outer loop
      vertex -20.625 0 16
      vertex -7.05 7.05 16
      vertex -20.5257 1.61728 16
    endloop
  endfacet
  facet normal 0 0 1
    outer loop
      vertex -7.05 -7.05 16
      vertex -20.2287 -3.21899 16
      vertex -19.7369 -4.7897 16
    endloop
  endfacet
  facet normal 0 0 1
    outer loop
      vertex -7.05 7.05 16
      vertex -20.625 0 16
      vertex -7.05 -7.05 16
    endloop
  endfacet
  facet normal 0 0 1
    outer loop
      vertex -7.05 -7.05 16
      vertex -20.5257 -1.61728 16
      vertex -20.2287 -3.21899 16
    endloop
  endfacet
  facet normal 0 0 1
    outer loop
      vertex -7.05 -7.05 16
      vertex -20.625 0 16
      vertex -20.5257 -1.61728 16
    endloop
  endfacet
  facet normal 0.860812 -0.508923 0
    outer loop
      vertex 18.1896 -7.77805 16
      vertex 19.055 -6.31428 0
      vertex 19.055 -6.31428 16
    endloop
  endfacet
  facet normal 0.860812 -0.508923 0
    outer loop
      vertex 19.055 -6.31428 0
      vertex 18.1896 -7.77805 16
      vertex 18.1896 -7.77805 0
    endloop
  endfacet
  facet normal 0.117797 -0.993038 0
    outer loop
      vertex 2.0216 -16.4205 0
      vertex 4.02374 -16.183 16
      vertex 2.0216 -16.4205 16
    endloop
  endfacet
  facet normal 0.117797 -0.993038 0
    outer loop
      vertex 4.02374 -16.183 16
      vertex 2.0216 -16.4205 0
      vertex 4.02374 -16.183 0
    endloop
  endfacet
  facet normal 0.196512 -0.980501 0
    outer loop
      vertex 4.02374 -16.183 0
      vertex 5.98712 -15.7895 16
      vertex 4.02374 -16.183 16
    endloop
  endfacet
  facet normal 0.196512 -0.980501 0
    outer loop
      vertex 5.98712 -15.7895 16
      vertex 4.02374 -16.183 0
      vertex 5.98712 -15.7895 0
    endloop
  endfacet
  facet normal 0.912851 0.408292 0
    outer loop
      vertex 19.7369 4.7897 16
      vertex 19.055 6.31428 0
      vertex 19.055 6.31428 16
    endloop
  endfacet
  facet normal 0.912851 0.408292 0
    outer loop
      vertex 19.055 6.31428 0
      vertex 19.7369 4.7897 16
      vertex 19.7369 4.7897 0
    endloop
  endfacet
  facet normal 0.912851 -0.408292 0
    outer loop
      vertex 19.055 -6.31428 16
      vertex 19.7369 -4.7897 0
      vertex 19.7369 -4.7897 16
    endloop
  endfacet
  facet normal 0.912851 -0.408292 0
    outer loop
      vertex 19.7369 -4.7897 0
      vertex 19.055 -6.31428 16
      vertex 19.055 -6.31428 0
    endloop
  endfacet
  facet normal -0.117797 0.993038 0
    outer loop
      vertex -2.0216 16.4205 0
      vertex -4.02374 16.183 16
      vertex -2.0216 16.4205 16
    endloop
  endfacet
  facet normal -0.117797 0.993038 0
    outer loop
      vertex -4.02374 16.183 16
      vertex -2.0216 16.4205 0
      vertex -4.02374 16.183 0
    endloop
  endfacet
  facet normal 0.510218 -0.860045 0
    outer loop
      vertex 11.4586 -13.7192 0
      vertex 13.0844 -12.7547 16
      vertex 11.4586 -13.7192 16
    endloop
  endfacet
  facet normal 0.510218 -0.860045 0
    outer loop
      vertex 13.0844 -12.7547 16
      vertex 11.4586 -13.7192 0
      vertex 13.0844 -12.7547 0
    endloop
  endfacet
  facet normal 0.860812 0.508923 0
    outer loop
      vertex 19.055 6.31428 16
      vertex 18.1896 7.77805 0
      vertex 18.1896 7.77805 16
    endloop
  endfacet
  facet normal 0.860812 0.508923 0
    outer loop
      vertex 18.1896 7.77805 0
      vertex 19.055 6.31428 16
      vertex 19.055 6.31428 0
    endloop
  endfacet
  facet normal 0.0392949 -0.999228 0
    outer loop
      vertex 0 -16.5 0
      vertex 2.0216 -16.4205 16
      vertex 0 -16.5 16
    endloop
  endfacet
  facet normal 0.0392949 -0.999228 0
    outer loop
      vertex 2.0216 -16.4205 16
      vertex 0 -16.5 0
      vertex 2.0216 -16.4205 0
    endloop
  endfacet
  facet normal -0.99812 0.061284 0
    outer loop
      vertex -20.625 0 0
      vertex -20.5257 1.61728 16
      vertex -20.5257 1.61728 0
    endloop
  endfacet
  facet normal -0.99812 0.061284 0
    outer loop
      vertex -20.5257 1.61728 16
      vertex -20.625 0 0
      vertex -20.625 0 16
    endloop
  endfacet
  facet normal -0.27519 0.96139 0
    outer loop
      vertex -5.98712 15.7895 0
      vertex -7.89285 15.244 16
      vertex -5.98712 15.7895 16
    endloop
  endfacet
  facet normal -0.27519 0.96139 0
    outer loop
      vertex -7.89285 15.244 16
      vertex -5.98712 15.7895 0
      vertex -7.89285 15.244 0
    endloop
  endfacet
  facet normal -0.954315 -0.298803 0
    outer loop
      vertex -19.7369 -4.7897 0
      vertex -20.2287 -3.21899 16
      vertex -20.2287 -3.21899 0
    endloop
  endfacet
  facet normal -0.954315 -0.298803 0
    outer loop
      vertex -20.2287 -3.21899 16
      vertex -19.7369 -4.7897 0
      vertex -19.7369 -4.7897 16
    endloop
  endfacet
  facet normal -0.800317 0.599578 0
    outer loop
      vertex -18.1896 7.77805 0
      vertex -17.1491 9.16691 16
      vertex -17.1491 9.16691 0
    endloop
  endfacet
  facet normal -0.800317 0.599578 0
    outer loop
      vertex -17.1491 9.16691 16
      vertex -18.1896 7.77805 0
      vertex -18.1896 7.77805 16
    endloop
  endfacet
  facet normal -0.912851 0.408292 0
    outer loop
      vertex -19.7369 4.7897 0
      vertex -19.055 6.31428 16
      vertex -19.055 6.31428 0
    endloop
  endfacet
  facet normal -0.912851 0.408292 0
    outer loop
      vertex -19.055 6.31428 16
      vertex -19.7369 4.7897 0
      vertex -19.7369 4.7897 16
    endloop
  endfacet
  facet normal 0 0 -1
    outer loop
      vertex 20.5257 -1.61728 0
      vertex 20.5257 1.61728 0
      vertex 20.625 0 0
    endloop
  endfacet
  facet normal 0 0 -1
    outer loop
      vertex 20.2287 -3.21899 0
      vertex 20.5257 1.61728 0
      vertex 20.5257 -1.61728 0
    endloop
  endfacet
  facet normal 0 0 -1
    outer loop
      vertex 20.2287 -3.21899 0
      vertex 20.2287 3.21899 0
      vertex 20.5257 1.61728 0
    endloop
  endfacet
  facet normal 0 0 -1
    outer loop
      vertex 19.7369 -4.7897 0
      vertex 20.2287 3.21899 0
      vertex 20.2287 -3.21899 0
    endloop
  endfacet
  facet normal 0 0 -1
    outer loop
      vertex 19.7369 -4.7897 0
      vertex 19.7369 4.7897 0
      vertex 20.2287 3.21899 0
    endloop
  endfacet
  facet normal 0 0 -1
    outer loop
      vertex 19.055 -6.31428 0
      vertex 19.7369 4.7897 0
      vertex 19.7369 -4.7897 0
    endloop
  endfacet
  facet normal 0 0 -1
    outer loop
      vertex 19.055 -6.31428 0
      vertex 19.055 6.31428 0
      vertex 19.7369 4.7897 0
    endloop
  endfacet
  facet normal 0 0 -1
    outer loop
      vertex 18.1896 -7.77805 0
      vertex 19.055 6.31428 0
      vertex 19.055 -6.31428 0
    endloop
  endfacet
  facet normal 0 0 -1
    outer loop
      vertex 18.1896 -7.77805 0
      vertex 18.1896 7.77805 0
      vertex 19.055 6.31428 0
    endloop
  endfacet
  facet normal 0 0 -1
    outer loop
      vertex 17.1491 -9.16691 0
      vertex 18.1896 7.77805 0
      vertex 18.1896 -7.77805 0
    endloop
  endfacet
  facet normal 0 0 -1
    outer loop
      vertex 17.1491 -9.16691 0
      vertex 17.1491 9.16691 0
      vertex 18.1896 7.77805 0
    endloop
  endfacet
  facet normal 0 0 -1
    outer loop
      vertex 15.9433 -10.4675 0
      vertex 17.1491 9.16691 0
      vertex 17.1491 -9.16691 0
    endloop
  endfacet
  facet normal 0 0 -1
    outer loop
      vertex 15.9433 -10.4675 0
      vertex 15.9433 10.4675 0
      vertex 17.1491 9.16691 0
    endloop
  endfacet
  facet normal 0 0 -1
    outer loop
      vertex 14.5841 -11.6673 0
      vertex 15.9433 10.4675 0
      vertex 15.9433 -10.4675 0
    endloop
  endfacet
  facet normal 0 0 -1
    outer loop
      vertex 14.5841 -11.6673 0
      vertex 14.5841 11.6673 0
      vertex 15.9433 10.4675 0
    endloop
  endfacet
  facet normal 0 0 -1
    outer loop
      vertex 13.0844 -12.7547 0
      vertex 14.5841 11.6673 0
      vertex 14.5841 -11.6673 0
    endloop
  endfacet
  facet normal 0 0 -1
    outer loop
      vertex 13.0844 -12.7547 0
      vertex 13.0844 12.7547 0
      vertex 14.5841 11.6673 0
    endloop
  endfacet
  facet normal 0 0 -1
    outer loop
      vertex 11.4586 -13.7192 0
      vertex 13.0844 12.7547 0
      vertex 13.0844 -12.7547 0
    endloop
  endfacet
  facet normal 0 0 -1
    outer loop
      vertex 11.4586 -13.7192 0
      vertex 11.4586 13.7192 0
      vertex 13.0844 12.7547 0
    endloop
  endfacet
  facet normal 0 0 -1
    outer loop
      vertex 9.72256 -14.5517 0
      vertex 11.4586 13.7192 0
      vertex 11.4586 -13.7192 0
    endloop
  endfacet
  facet normal 0 0 -1
    outer loop
      vertex 9.72256 -14.5517 0
      vertex 9.72256 14.5517 0
      vertex 11.4586 13.7192 0
    endloop
  endfacet
  facet normal 0 0 -1
    outer loop
      vertex 7.89285 -15.244 0
      vertex 9.72256 14.5517 0
      vertex 9.72256 -14.5517 0
    endloop
  endfacet
  facet normal 0 0 -1
    outer loop
      vertex 7.89285 -15.244 0
      vertex 7.89285 15.244 0
      vertex 9.72256 14.5517 0
    endloop
  endfacet
  facet normal 0 0 -1
    outer loop
      vertex 5.98712 -15.7895 0
      vertex 7.89285 15.244 0
      vertex 7.89285 -15.244 0
    endloop
  endfacet
  facet normal 0 0 -1
    outer loop
      vertex 5.98712 -15.7895 0
      vertex 5.98712 15.7895 0
      vertex 7.89285 15.244 0
    endloop
  endfacet
  facet normal 0 0 -1
    outer loop
      vertex 4.02374 -16.183 0
      vertex 5.98712 15.7895 0
      vertex 5.98712 -15.7895 0
    endloop
  endfacet
  facet normal 0 0 -1
    outer loop
      vertex 4.02374 -16.183 0
      vertex 4.02374 16.183 0
      vertex 5.98712 15.7895 0
    endloop
  endfacet
  facet normal 0 0 -1
    outer loop
      vertex 2.0216 -16.4205 0
      vertex 4.02374 16.183 0
      vertex 4.02374 -16.183 0
    endloop
  endfacet
  facet normal 0 0 -1
    outer loop
      vertex 2.0216 -16.4205 0
      vertex 2.0216 16.4205 0
      vertex 4.02374 16.183 0
    endloop
  endfacet
  facet normal 0 0 -1
    outer loop
      vertex 0 -16.5 0
      vertex 2.0216 16.4205 0
      vertex 2.0216 -16.4205 0
    endloop
  endfacet
  facet normal 0 0 -1
    outer loop
      vertex 0 -16.5 0
      vertex 0 16.5 0
      vertex 2.0216 16.4205 0
    endloop
  endfacet
  facet normal 0 0 -1
    outer loop
      vertex -2.0216 -16.4205 0
      vertex 0 16.5 0
      vertex 0 -16.5 0
    endloop
  endfacet
  facet normal 0 0 -1
    outer loop
      vertex -2.0216 -16.4205 0
      vertex -2.0216 16.4205 0
      vertex 0 16.5 0
    endloop
  endfacet
  facet normal 0 0 -1
    outer loop
      vertex -4.02374 -16.183 0
      vertex -2.0216 16.4205 0
      vertex -2.0216 -16.4205 0
    endloop
  endfacet
  facet normal 0 0 -1
    outer loop
      vertex -4.02374 -16.183 0
      vertex -4.02374 16.183 0
      vertex -2.0216 16.4205 0
    endloop
  endfacet
  facet normal 0 0 -1
    outer loop
      vertex -5.98712 -15.7895 0
      vertex -4.02374 16.183 0
      vertex -4.02374 -16.183 0
    endloop
  endfacet
  facet normal 0 0 -1
    outer loop
      vertex -5.98712 -15.7895 0
      vertex -5.98712 15.7895 0
      vertex -4.02374 16.183 0
    endloop
  endfacet
  facet normal 0 0 -1
    outer loop
      vertex -7.89285 -15.244 0
      vertex -5.98712 15.7895 0
      vertex -5.98712 -15.7895 0
    endloop
  endfacet
  facet normal 0 0 -1
    outer loop
      vertex -7.89285 -15.244 0
      vertex -7.89285 15.244 0
      vertex -5.98712 15.7895 0
    endloop
  endfacet
  facet normal 0 0 -1
    outer loop
      vertex -9.72256 -14.5517 0
      vertex -7.89285 15.244 0
      vertex -7.89285 -15.244 0
    endloop
  endfacet
  facet normal 0 0 -1
    outer loop
      vertex -9.72256 -14.5517 0
      vertex -9.72256 14.5517 0
      vertex -7.89285 15.244 0
    endloop
  endfacet
  facet normal 0 0 -1
    outer loop
      vertex -11.4586 -13.7192 0
      vertex -9.72256 14.5517 0
      vertex -9.72256 -14.5517 0
    endloop
  endfacet
  facet normal 0 0 -1
    outer loop
      vertex -11.4586 -13.7192 0
      vertex -11.4586 13.7192 0
      vertex -9.72256 14.5517 0
    endloop
  endfacet
  facet normal 0 0 -1
    outer loop
      vertex -13.0844 -12.7547 0
      vertex -11.4586 13.7192 0
      vertex -11.4586 -13.7192 0
    endloop
  endfacet
  facet normal 0 0 -1
    outer loop
      vertex -13.0844 -12.7547 0
      vertex -13.0844 12.7547 0
      vertex -11.4586 13.7192 0
    endloop
  endfacet
  facet normal 0 0 -1
    outer loop
      vertex -14.5841 -11.6673 0
      vertex -13.0844 12.7547 0
      vertex -13.0844 -12.7547 0
    endloop
  endfacet
  facet normal 0 0 -1
    outer loop
      vertex -14.5841 -11.6673 0
      vertex -14.5841 11.6673 0
      vertex -13.0844 12.7547 0
    endloop
  endfacet
  facet normal 0 0 -1
    outer loop
      vertex -15.9433 -10.4675 0
      vertex -14.5841 11.6673 0
      vertex -14.5841 -11.6673 0
    endloop
  endfacet
  facet normal 0 0 -1
    outer loop
      vertex -15.9433 -10.4675 0
      vertex -15.9433 10.4675 0
      vertex -14.5841 11.6673 0
    endloop
  endfacet
  facet normal 0 0 -1
    outer loop
      vertex -17.1491 -9.16691 0
      vertex -15.9433 10.4675 0
      vertex -15.9433 -10.4675 0
    endloop
  endfacet
  facet normal 0 0 -1
    outer loop
      vertex -17.1491 -9.16691 0
      vertex -17.1491 9.16691 0
      vertex -15.9433 10.4675 0
    endloop
  endfacet
  facet normal 0 0 -1
    outer loop
      vertex -18.1896 -7.77805 0
      vertex -17.1491 9.16691 0
      vertex -17.1491 -9.16691 0
    endloop
  endfacet
  facet normal 0 0 -1
    outer loop
      vertex -18.1896 -7.77805 0
      vertex -18.1896 7.77805 0
      vertex -17.1491 9.16691 0
    endloop
  endfacet
  facet normal 0 0 -1
    outer loop
      vertex -19.055 -6.31428 0
      vertex -18.1896 7.77805 0
      vertex -18.1896 -7.77805 0
    endloop
  endfacet
  facet normal 0 0 -1
    outer loop
      vertex -19.055 -6.31428 0
      vertex -19.055 6.31428 0
      vertex -18.1896 7.77805 0
    endloop
  endfacet
  facet normal 0 0 -1
    outer loop
      vertex -19.7369 -4.7897 0
      vertex -19.055 6.31428 0
      vertex -19.055 -6.31428 0
    endloop
  endfacet
  facet normal 0 0 -1
    outer loop
      vertex -19.7369 -4.7897 0
      vertex -19.7369 4.7897 0
      vertex -19.055 6.31428 0
    endloop
  endfacet
  facet normal 0 0 -1
    outer loop
      vertex -20.2287 -3.21899 0
      vertex -19.7369 4.7897 0
      vertex -19.7369 -4.7897 0
    endloop
  endfacet
  facet normal 0 0 -1
    outer loop
      vertex -20.2287 -3.21899 0
      vertex -20.2287 3.21899 0
      vertex -19.7369 4.7897 0
    endloop
  endfacet
  facet normal 0 0 -1
    outer loop
      vertex -20.5257 -1.61728 0
      vertex -20.2287 3.21899 0
      vertex -20.2287 -3.21899 0
    endloop
  endfacet
  facet normal 0 0 -1
    outer loop
      vertex -20.5257 -1.61728 0
      vertex -20.5257 1.61728 0
      vertex -20.2287 3.21899 0
    endloop
  endfacet
  facet normal 0 -0 -1
    outer loop
      vertex -20.5257 1.61728 0
      vertex -20.5257 -1.61728 0
      vertex -20.625 0 0
    endloop
  endfacet
  facet normal -0.587009 0.80958 0
    outer loop
      vertex -13.0844 12.7547 0
      vertex -14.5841 11.6673 16
      vertex -13.0844 12.7547 16
    endloop
  endfacet
  facet normal -0.587009 0.80958 0
    outer loop
      vertex -14.5841 11.6673 16
      vertex -13.0844 12.7547 0
      vertex -14.5841 11.6673 0
    endloop
  endfacet
  facet normal 0.733325 -0.679878 0
    outer loop
      vertex 15.9433 -10.4675 16
      vertex 17.1491 -9.16691 0
      vertex 17.1491 -9.16691 16
    endloop
  endfacet
  facet normal 0.733325 -0.679878 0
    outer loop
      vertex 17.1491 -9.16691 0
      vertex 15.9433 -10.4675 16
      vertex 15.9433 -10.4675 0
    endloop
  endfacet
  facet normal 0.954315 -0.298803 0
    outer loop
      vertex 19.7369 -4.7897 16
      vertex 20.2287 -3.21899 0
      vertex 20.2287 -3.21899 16
    endloop
  endfacet
  facet normal 0.954315 -0.298803 0
    outer loop
      vertex 20.2287 -3.21899 0
      vertex 19.7369 -4.7897 16
      vertex 19.7369 -4.7897 0
    endloop
  endfacet
  facet normal 0.353882 -0.93529 0
    outer loop
      vertex 7.89285 -15.244 0
      vertex 9.72256 -14.5517 16
      vertex 7.89285 -15.244 16
    endloop
  endfacet
  facet normal 0.353882 -0.93529 0
    outer loop
      vertex 9.72256 -14.5517 16
      vertex 7.89285 -15.244 0
      vertex 9.72256 -14.5517 0
    endloop
  endfacet
  facet normal -0.510218 -0.860045 0
    outer loop
      vertex -13.0844 -12.7547 0
      vertex -11.4586 -13.7192 16
      vertex -13.0844 -12.7547 16
    endloop
  endfacet
  facet normal -0.510218 -0.860045 -0
    outer loop
      vertex -11.4586 -13.7192 16
      vertex -13.0844 -12.7547 0
      vertex -11.4586 -13.7192 0
    endloop
  endfacet
  facet normal -0.510218 0.860045 0
    outer loop
      vertex -11.4586 13.7192 0
      vertex -13.0844 12.7547 16
      vertex -11.4586 13.7192 16
    endloop
  endfacet
  facet normal -0.510218 0.860045 0
    outer loop
      vertex -13.0844 12.7547 16
      vertex -11.4586 13.7192 0
      vertex -13.0844 12.7547 0
    endloop
  endfacet
  facet normal 0.983239 -0.182319 0
    outer loop
      vertex 20.2287 -3.21899 16
      vertex 20.5257 -1.61728 0
      vertex 20.5257 -1.61728 16
    endloop
  endfacet
  facet normal 0.983239 -0.182319 0
    outer loop
      vertex 20.5257 -1.61728 0
      vertex 20.2287 -3.21899 16
      vertex 20.2287 -3.21899 0
    endloop
  endfacet
  facet normal -0.432394 -0.901685 0
    outer loop
      vertex -11.4586 -13.7192 0
      vertex -9.72256 -14.5517 16
      vertex -11.4586 -13.7192 16
    endloop
  endfacet
  facet normal -0.432394 -0.901685 -0
    outer loop
      vertex -9.72256 -14.5517 16
      vertex -11.4586 -13.7192 0
      vertex -9.72256 -14.5517 0
    endloop
  endfacet
  facet normal 0.27519 -0.96139 0
    outer loop
      vertex 5.98712 -15.7895 0
      vertex 7.89285 -15.244 16
      vertex 5.98712 -15.7895 16
    endloop
  endfacet
  facet normal 0.27519 -0.96139 0
    outer loop
      vertex 7.89285 -15.244 16
      vertex 5.98712 -15.7895 0
      vertex 7.89285 -15.244 0
    endloop
  endfacet
  facet normal 0.661779 -0.749699 0
    outer loop
      vertex 14.5841 -11.6673 0
      vertex 15.9433 -10.4675 16
      vertex 14.5841 -11.6673 16
    endloop
  endfacet
  facet normal 0.661779 -0.749699 0
    outer loop
      vertex 15.9433 -10.4675 16
      vertex 14.5841 -11.6673 0
      vertex 15.9433 -10.4675 0
    endloop
  endfacet
  facet normal -0.954315 0.298803 0
    outer loop
      vertex -20.2287 3.21899 0
      vertex -19.7369 4.7897 16
      vertex -19.7369 4.7897 0
    endloop
  endfacet
  facet normal -0.954315 0.298803 0
    outer loop
      vertex -19.7369 4.7897 16
      vertex -20.2287 3.21899 0
      vertex -20.2287 3.21899 16
    endloop
  endfacet
  facet normal -0.983239 0.182319 0
    outer loop
      vertex -20.5257 1.61728 0
      vertex -20.2287 3.21899 16
      vertex -20.2287 3.21899 0
    endloop
  endfacet
  facet normal -0.983239 0.182319 0
    outer loop
      vertex -20.2287 3.21899 16
      vertex -20.5257 1.61728 0
      vertex -20.5257 1.61728 16
    endloop
  endfacet
  facet normal 0.353882 0.93529 -0
    outer loop
      vertex 9.72256 14.5517 0
      vertex 7.89285 15.244 16
      vertex 9.72256 14.5517 16
    endloop
  endfacet
  facet normal 0.353882 0.93529 0
    outer loop
      vertex 7.89285 15.244 16
      vertex 9.72256 14.5517 0
      vertex 7.89285 15.244 0
    endloop
  endfacet
  facet normal 0.27519 0.96139 -0
    outer loop
      vertex 7.89285 15.244 0
      vertex 5.98712 15.7895 16
      vertex 7.89285 15.244 16
    endloop
  endfacet
  facet normal 0.27519 0.96139 0
    outer loop
      vertex 5.98712 15.7895 16
      vertex 7.89285 15.244 0
      vertex 5.98712 15.7895 0
    endloop
  endfacet
  facet normal 0.196512 0.980501 -0
    outer loop
      vertex 5.98712 15.7895 0
      vertex 4.02374 16.183 16
      vertex 5.98712 15.7895 16
    endloop
  endfacet
  facet normal 0.196512 0.980501 0
    outer loop
      vertex 4.02374 16.183 16
      vertex 5.98712 15.7895 0
      vertex 4.02374 16.183 0
    endloop
  endfacet
  facet normal 0.117797 0.993038 -0
    outer loop
      vertex 4.02374 16.183 0
      vertex 2.0216 16.4205 16
      vertex 4.02374 16.183 16
    endloop
  endfacet
  facet normal 0.117797 0.993038 0
    outer loop
      vertex 2.0216 16.4205 16
      vertex 4.02374 16.183 0
      vertex 2.0216 16.4205 0
    endloop
  endfacet
  facet normal -0.733325 0.679878 0
    outer loop
      vertex -17.1491 9.16691 0
      vertex -15.9433 10.4675 16
      vertex -15.9433 10.4675 0
    endloop
  endfacet
  facet normal -0.733325 0.679878 0
    outer loop
      vertex -15.9433 10.4675 16
      vertex -17.1491 9.16691 0
      vertex -17.1491 9.16691 16
    endloop
  endfacet
  facet normal 0.800317 0.599578 0
    outer loop
      vertex 18.1896 7.77805 16
      vertex 17.1491 9.16691 0
      vertex 17.1491 9.16691 16
    endloop
  endfacet
  facet normal 0.800317 0.599578 0
    outer loop
      vertex 17.1491 9.16691 0
      vertex 18.1896 7.77805 16
      vertex 18.1896 7.77805 0
    endloop
  endfacet
  facet normal -0.196512 0.980501 0
    outer loop
      vertex -4.02374 16.183 0
      vertex -5.98712 15.7895 16
      vertex -4.02374 16.183 16
    endloop
  endfacet
  facet normal -0.196512 0.980501 0
    outer loop
      vertex -5.98712 15.7895 16
      vertex -4.02374 16.183 0
      vertex -5.98712 15.7895 0
    endloop
  endfacet
  facet normal 0.432394 0.901685 -0
    outer loop
      vertex 11.4586 13.7192 0
      vertex 9.72256 14.5517 16
      vertex 11.4586 13.7192 16
    endloop
  endfacet
  facet normal 0.432394 0.901685 0
    outer loop
      vertex 9.72256 14.5517 16
      vertex 11.4586 13.7192 0
      vertex 9.72256 14.5517 0
    endloop
  endfacet
  facet normal 0.983239 0.182319 0
    outer loop
      vertex 20.5257 1.61728 16
      vertex 20.2287 3.21899 0
      vertex 20.2287 3.21899 16
    endloop
  endfacet
  facet normal 0.983239 0.182319 0
    outer loop
      vertex 20.2287 3.21899 0
      vertex 20.5257 1.61728 16
      vertex 20.5257 1.61728 0
    endloop
  endfacet
  facet normal 0.800317 -0.599578 0
    outer loop
      vertex 17.1491 -9.16691 16
      vertex 18.1896 -7.77805 0
      vertex 18.1896 -7.77805 16
    endloop
  endfacet
  facet normal 0.800317 -0.599578 0
    outer loop
      vertex 18.1896 -7.77805 0
      vertex 17.1491 -9.16691 16
      vertex 17.1491 -9.16691 0
    endloop
  endfacet
  facet normal -0.353882 -0.93529 0
    outer loop
      vertex -9.72256 -14.5517 0
      vertex -7.89285 -15.244 16
      vertex -9.72256 -14.5517 16
    endloop
  endfacet
  facet normal -0.353882 -0.93529 -0
    outer loop
      vertex -7.89285 -15.244 16
      vertex -9.72256 -14.5517 0
      vertex -7.89285 -15.244 0
    endloop
  endfacet
  facet normal -0.661779 0.749699 0
    outer loop
      vertex -14.5841 11.6673 0
      vertex -15.9433 10.4675 16
      vertex -14.5841 11.6673 16
    endloop
  endfacet
  facet normal -0.661779 0.749699 0
    outer loop
      vertex -15.9433 10.4675 16
      vertex -14.5841 11.6673 0
      vertex -15.9433 10.4675 0
    endloop
  endfacet
  facet normal -0.27519 -0.96139 0
    outer loop
      vertex -7.89285 -15.244 0
      vertex -5.98712 -15.7895 16
      vertex -7.89285 -15.244 16
    endloop
  endfacet
  facet normal -0.27519 -0.96139 -0
    outer loop
      vertex -5.98712 -15.7895 16
      vertex -7.89285 -15.244 0
      vertex -5.98712 -15.7895 0
    endloop
  endfacet
  facet normal -0.196512 -0.980501 0
    outer loop
      vertex -5.98712 -15.7895 0
      vertex -4.02374 -16.183 16
      vertex -5.98712 -15.7895 16
    endloop
  endfacet
  facet normal -0.196512 -0.980501 -0
    outer loop
      vertex -4.02374 -16.183 16
      vertex -5.98712 -15.7895 0
      vertex -4.02374 -16.183 0
    endloop
  endfacet
  facet normal -0.587009 -0.80958 0
    outer loop
      vertex -14.5841 -11.6673 0
      vertex -13.0844 -12.7547 16
      vertex -14.5841 -11.6673 16
    endloop
  endfacet
  facet normal -0.587009 -0.80958 -0
    outer loop
      vertex -13.0844 -12.7547 16
      vertex -14.5841 -11.6673 0
      vertex -13.0844 -12.7547 0
    endloop
  endfacet
  facet normal -0.0392949 -0.999228 0
    outer loop
      vertex -2.0216 -16.4205 0
      vertex 0 -16.5 16
      vertex -2.0216 -16.4205 16
    endloop
  endfacet
  facet normal -0.0392949 -0.999228 -0
    outer loop
      vertex 0 -16.5 16
      vertex -2.0216 -16.4205 0
      vertex 0 -16.5 0
    endloop
  endfacet
  facet normal -0.353882 0.93529 0
    outer loop
      vertex -7.89285 15.244 0
      vertex -9.72256 14.5517 16
      vertex -7.89285 15.244 16
    endloop
  endfacet
  facet normal -0.353882 0.93529 0
    outer loop
      vertex -9.72256 14.5517 16
      vertex -7.89285 15.244 0
      vertex -9.72256 14.5517 0
    endloop
  endfacet
  facet normal 0.954315 0.298803 0
    outer loop
      vertex 20.2287 3.21899 16
      vertex 19.7369 4.7897 0
      vertex 19.7369 4.7897 16
    endloop
  endfacet
  facet normal 0.954315 0.298803 0
    outer loop
      vertex 19.7369 4.7897 0
      vertex 20.2287 3.21899 16
      vertex 20.2287 3.21899 0
    endloop
  endfacet
  facet normal -0.432394 0.901685 0
    outer loop
      vertex -9.72256 14.5517 0
      vertex -11.4586 13.7192 16
      vertex -9.72256 14.5517 16
    endloop
  endfacet
  facet normal -0.432394 0.901685 0
    outer loop
      vertex -11.4586 13.7192 16
      vertex -9.72256 14.5517 0
      vertex -11.4586 13.7192 0
    endloop
  endfacet
  facet normal 0.99812 0.061284 0
    outer loop
      vertex 20.625 0 16
      vertex 20.5257 1.61728 0
      vertex 20.5257 1.61728 16
    endloop
  endfacet
  facet normal 0.99812 0.061284 0
    outer loop
      vertex 20.5257 1.61728 0
      vertex 20.625 0 16
      vertex 20.625 0 0
    endloop
  endfacet
  facet normal 0.0392949 0.999228 -0
    outer loop
      vertex 2.0216 16.4205 0
      vertex 0 16.5 16
      vertex 2.0216 16.4205 16
    endloop
  endfacet
  facet normal 0.0392949 0.999228 0
    outer loop
      vertex 0 16.5 16
      vertex 2.0216 16.4205 0
      vertex 0 16.5 0
    endloop
  endfacet
  facet normal 0.733325 0.679878 0
    outer loop
      vertex 17.1491 9.16691 16
      vertex 15.9433 10.4675 0
      vertex 15.9433 10.4675 16
    endloop
  endfacet
  facet normal 0.733325 0.679878 0
    outer loop
      vertex 15.9433 10.4675 0
      vertex 17.1491 9.16691 16
      vertex 17.1491 9.16691 0
    endloop
  endfacet
  facet normal 0.587009 0.80958 -0
    outer loop
      vertex 14.5841 11.6673 0
      vertex 13.0844 12.7547 16
      vertex 14.5841 11.6673 16
    endloop
  endfacet
  facet normal 0.587009 0.80958 0
    outer loop
      vertex 13.0844 12.7547 16
      vertex 14.5841 11.6673 0
      vertex 13.0844 12.7547 0
    endloop
  endfacet
  facet normal 0.661779 0.749699 -0
    outer loop
      vertex 15.9433 10.4675 0
      vertex 14.5841 11.6673 16
      vertex 15.9433 10.4675 16
    endloop
  endfacet
  facet normal 0.661779 0.749699 0
    outer loop
      vertex 14.5841 11.6673 16
      vertex 15.9433 10.4675 0
      vertex 14.5841 11.6673 0
    endloop
  endfacet
  facet normal -0.989176 -0.146736 0
    outer loop
      vertex 10.4494 1.02918 4.5
      vertex 10.2982 2.04845 14.51
      vertex 10.2982 2.04845 4.5
    endloop
  endfacet
  facet normal -0.989176 -0.146736 0
    outer loop
      vertex 10.2982 2.04845 14.51
      vertex 10.4494 1.02918 4.5
      vertex 10.4494 1.02918 14.51
    endloop
  endfacet
  facet normal -0.998794 -0.049106 0
    outer loop
      vertex 10.5 0 4.5
      vertex 10.4494 1.02918 14.51
      vertex 10.4494 1.02918 4.5
    endloop
  endfacet
  facet normal -0.998794 -0.049106 0
    outer loop
      vertex 10.4494 1.02918 14.51
      vertex 10.5 0 4.5
      vertex 10.5 0 14.51
    endloop
  endfacet
  facet normal -0.970048 -0.242915 0
    outer loop
      vertex 10.2982 2.04845 4.5
      vertex 10.0479 3.04799 14.51
      vertex 10.0479 3.04799 4.5
    endloop
  endfacet
  facet normal -0.970048 -0.242915 0
    outer loop
      vertex 10.0479 3.04799 14.51
      vertex 10.2982 2.04845 4.5
      vertex 10.2982 2.04845 14.51
    endloop
  endfacet
  facet normal -0.336916 0.941535 0
    outer loop
      vertex 4.01818 -9.70073 4.5
      vertex 3.04799 -10.0479 14.51
      vertex 4.01818 -9.70073 14.51
    endloop
  endfacet
  facet normal -0.336916 0.941535 0
    outer loop
      vertex 3.04799 -10.0479 14.51
      vertex 4.01818 -9.70073 4.5
      vertex 3.04799 -10.0479 4.5
    endloop
  endfacet
  facet normal -0.941535 -0.336916 0
    outer loop
      vertex 10.0479 3.04799 4.5
      vertex 9.70073 4.01818 14.51
      vertex 9.70073 4.01818 4.5
    endloop
  endfacet
  facet normal -0.941535 -0.336916 0
    outer loop
      vertex 9.70073 4.01818 14.51
      vertex 10.0479 3.04799 4.5
      vertex 10.0479 3.04799 14.51
    endloop
  endfacet
  facet normal 0.514102 0.857729 -0
    outer loop
      vertex -4.94967 -9.26017 4.5
      vertex -5.83349 -8.73043 14.51
      vertex -4.94967 -9.26017 14.51
    endloop
  endfacet
  facet normal 0.514102 0.857729 0
    outer loop
      vertex -5.83349 -8.73043 14.51
      vertex -4.94967 -9.26017 4.5
      vertex -5.83349 -8.73043 4.5
    endloop
  endfacet
  facet normal -0.74095 -0.671561 0
    outer loop
      vertex 8.11661 6.66113 4.5
      vertex 7.42462 7.42462 14.51
      vertex 7.42462 7.42462 4.5
    endloop
  endfacet
  facet normal -0.74095 -0.671561 0
    outer loop
      vertex 7.42462 7.42462 14.51
      vertex 8.11661 6.66113 4.5
      vertex 8.11661 6.66113 14.51
    endloop
  endfacet
  facet normal -0.514102 0.857729 0
    outer loop
      vertex 5.83349 -8.73043 4.5
      vertex 4.94967 -9.26017 14.51
      vertex 5.83349 -8.73043 14.51
    endloop
  endfacet
  facet normal -0.514102 0.857729 0
    outer loop
      vertex 4.94967 -9.26017 14.51
      vertex 5.83349 -8.73043 4.5
      vertex 4.94967 -9.26017 4.5
    endloop
  endfacet
  facet normal 0.427554 -0.90399 0
    outer loop
      vertex -4.94967 9.26017 4.5
      vertex -4.01818 9.70073 14.51
      vertex -4.94967 9.26017 14.51
    endloop
  endfacet
  facet normal 0.427554 -0.90399 0
    outer loop
      vertex -4.01818 9.70073 14.51
      vertex -4.94967 9.26017 4.5
      vertex -4.01818 9.70073 4.5
    endloop
  endfacet
  facet normal -0.989176 0.146736 0
    outer loop
      vertex 10.2982 -2.04845 4.5
      vertex 10.4494 -1.02918 14.51
      vertex 10.4494 -1.02918 4.5
    endloop
  endfacet
  facet normal -0.989176 0.146736 0
    outer loop
      vertex 10.4494 -1.02918 14.51
      vertex 10.2982 -2.04845 4.5
      vertex 10.2982 -2.04845 14.51
    endloop
  endfacet
  facet normal -0.242915 0.970048 0
    outer loop
      vertex 3.04799 -10.0479 4.5
      vertex 2.04845 -10.2982 14.51
      vertex 3.04799 -10.0479 14.51
    endloop
  endfacet
  facet normal -0.242915 0.970048 0
    outer loop
      vertex 2.04845 -10.2982 14.51
      vertex 3.04799 -10.0479 4.5
      vertex 2.04845 -10.2982 4.5
    endloop
  endfacet
  facet normal 0.242915 -0.970048 0
    outer loop
      vertex -3.04799 10.0479 4.5
      vertex -2.04845 10.2982 14.51
      vertex -3.04799 10.0479 14.51
    endloop
  endfacet
  facet normal 0.242915 -0.970048 0
    outer loop
      vertex -2.04845 10.2982 14.51
      vertex -3.04799 10.0479 4.5
      vertex -2.04845 10.2982 4.5
    endloop
  endfacet
  facet normal 0.941535 0.336916 0
    outer loop
      vertex -9.70073 -4.01818 14.51
      vertex -10.0479 -3.04799 4.5
      vertex -10.0479 -3.04799 14.51
    endloop
  endfacet
  facet normal 0.941535 0.336916 0
    outer loop
      vertex -10.0479 -3.04799 4.5
      vertex -9.70073 -4.01818 14.51
      vertex -9.70073 -4.01818 4.5
    endloop
  endfacet
  facet normal -0.803207 0.5957 0
    outer loop
      vertex 8.11661 -6.66113 4.5
      vertex 8.73043 -5.83349 14.51
      vertex 8.73043 -5.83349 4.5
    endloop
  endfacet
  facet normal -0.803207 0.5957 0
    outer loop
      vertex 8.73043 -5.83349 14.51
      vertex 8.11661 -6.66113 4.5
      vertex 8.11661 -6.66113 14.51
    endloop
  endfacet
  facet normal 0.514102 -0.857729 0
    outer loop
      vertex -5.83349 8.73043 4.5
      vertex -4.94967 9.26017 14.51
      vertex -5.83349 8.73043 14.51
    endloop
  endfacet
  facet normal 0.514102 -0.857729 0
    outer loop
      vertex -4.94967 9.26017 14.51
      vertex -5.83349 8.73043 4.5
      vertex -4.94967 9.26017 4.5
    endloop
  endfacet
  facet normal 0.146736 0.989176 -0
    outer loop
      vertex -1.02918 -10.4494 4.5
      vertex -2.04845 -10.2982 14.51
      vertex -1.02918 -10.4494 14.51
    endloop
  endfacet
  facet normal 0.146736 0.989176 0
    outer loop
      vertex -2.04845 -10.2982 14.51
      vertex -1.02918 -10.4494 4.5
      vertex -2.04845 -10.2982 4.5
    endloop
  endfacet
  facet normal -0.5957 0.803207 0
    outer loop
      vertex 6.66113 -8.11661 4.5
      vertex 5.83349 -8.73043 14.51
      vertex 6.66113 -8.11661 14.51
    endloop
  endfacet
  facet normal -0.5957 0.803207 0
    outer loop
      vertex 5.83349 -8.73043 14.51
      vertex 6.66113 -8.11661 4.5
      vertex 5.83349 -8.73043 4.5
    endloop
  endfacet
  facet normal 0.242915 0.970048 -0
    outer loop
      vertex -2.04845 -10.2982 4.5
      vertex -3.04799 -10.0479 14.51
      vertex -2.04845 -10.2982 14.51
    endloop
  endfacet
  facet normal 0.242915 0.970048 0
    outer loop
      vertex -3.04799 -10.0479 14.51
      vertex -2.04845 -10.2982 4.5
      vertex -3.04799 -10.0479 4.5
    endloop
  endfacet
  facet normal -0.90399 0.427554 0
    outer loop
      vertex 9.26017 -4.94967 4.5
      vertex 9.70073 -4.01818 14.51
      vertex 9.70073 -4.01818 4.5
    endloop
  endfacet
  facet normal -0.90399 0.427554 0
    outer loop
      vertex 9.70073 -4.01818 14.51
      vertex 9.26017 -4.94967 4.5
      vertex 9.26017 -4.94967 14.51
    endloop
  endfacet
  facet normal -0.514102 -0.857729 0
    outer loop
      vertex 4.94967 9.26017 4.5
      vertex 5.83349 8.73043 14.51
      vertex 4.94967 9.26017 14.51
    endloop
  endfacet
  facet normal -0.514102 -0.857729 -0
    outer loop
      vertex 5.83349 8.73043 14.51
      vertex 4.94967 9.26017 4.5
      vertex 5.83349 8.73043 4.5
    endloop
  endfacet
  facet normal 0.857729 0.514102 0
    outer loop
      vertex -8.73043 -5.83349 14.51
      vertex -9.26017 -4.94967 4.5
      vertex -9.26017 -4.94967 14.51
    endloop
  endfacet
  facet normal 0.857729 0.514102 0
    outer loop
      vertex -9.26017 -4.94967 4.5
      vertex -8.73043 -5.83349 14.51
      vertex -8.73043 -5.83349 4.5
    endloop
  endfacet
  facet normal -0.970048 0.242915 0
    outer loop
      vertex 10.0479 -3.04799 4.5
      vertex 10.2982 -2.04845 14.51
      vertex 10.2982 -2.04845 4.5
    endloop
  endfacet
  facet normal -0.970048 0.242915 0
    outer loop
      vertex 10.2982 -2.04845 14.51
      vertex 10.0479 -3.04799 4.5
      vertex 10.0479 -3.04799 14.51
    endloop
  endfacet
  facet normal 0.857729 -0.514102 0
    outer loop
      vertex -9.26017 4.94967 14.51
      vertex -8.73043 5.83349 4.5
      vertex -8.73043 5.83349 14.51
    endloop
  endfacet
  facet normal 0.857729 -0.514102 0
    outer loop
      vertex -8.73043 5.83349 4.5
      vertex -9.26017 4.94967 14.51
      vertex -9.26017 4.94967 4.5
    endloop
  endfacet
  facet normal 0 0 1
    outer loop
      vertex 10.4494 1.02918 4.5
      vertex 10.4494 -1.02918 4.5
      vertex 10.5 0 4.5
    endloop
  endfacet
  facet normal 0 0 1
    outer loop
      vertex 10.2982 2.04845 4.5
      vertex 10.4494 -1.02918 4.5
      vertex 10.4494 1.02918 4.5
    endloop
  endfacet
  facet normal 0 0 1
    outer loop
      vertex 10.2982 2.04845 4.5
      vertex 10.2982 -2.04845 4.5
      vertex 10.4494 -1.02918 4.5
    endloop
  endfacet
  facet normal 0 0 1
    outer loop
      vertex 10.0479 3.04799 4.5
      vertex 10.2982 -2.04845 4.5
      vertex 10.2982 2.04845 4.5
    endloop
  endfacet
  facet normal 0 0 1
    outer loop
      vertex 10.0479 3.04799 4.5
      vertex 10.0479 -3.04799 4.5
      vertex 10.2982 -2.04845 4.5
    endloop
  endfacet
  facet normal 0 0 1
    outer loop
      vertex 9.70073 4.01818 4.5
      vertex 10.0479 -3.04799 4.5
      vertex 10.0479 3.04799 4.5
    endloop
  endfacet
  facet normal 0 0 1
    outer loop
      vertex 9.70073 4.01818 4.5
      vertex 9.70073 -4.01818 4.5
      vertex 10.0479 -3.04799 4.5
    endloop
  endfacet
  facet normal 0 0 1
    outer loop
      vertex 9.26017 4.94967 4.5
      vertex 9.70073 -4.01818 4.5
      vertex 9.70073 4.01818 4.5
    endloop
  endfacet
  facet normal 0 0 1
    outer loop
      vertex 9.26017 4.94967 4.5
      vertex 9.26017 -4.94967 4.5
      vertex 9.70073 -4.01818 4.5
    endloop
  endfacet
  facet normal 0 0 1
    outer loop
      vertex 8.73043 5.83349 4.5
      vertex 9.26017 -4.94967 4.5
      vertex 9.26017 4.94967 4.5
    endloop
  endfacet
  facet normal 0 0 1
    outer loop
      vertex 8.73043 5.83349 4.5
      vertex 8.73043 -5.83349 4.5
      vertex 9.26017 -4.94967 4.5
    endloop
  endfacet
  facet normal 0 0 1
    outer loop
      vertex 8.11661 6.66113 4.5
      vertex 8.73043 -5.83349 4.5
      vertex 8.73043 5.83349 4.5
    endloop
  endfacet
  facet normal 0 0 1
    outer loop
      vertex 8.11661 6.66113 4.5
      vertex 8.11661 -6.66113 4.5
      vertex 8.73043 -5.83349 4.5
    endloop
  endfacet
  facet normal 0 0 1
    outer loop
      vertex 7.42462 7.42462 4.5
      vertex 8.11661 -6.66113 4.5
      vertex 8.11661 6.66113 4.5
    endloop
  endfacet
  facet normal 0 0 1
    outer loop
      vertex 7.42462 7.42462 4.5
      vertex 7.42462 -7.42462 4.5
      vertex 8.11661 -6.66113 4.5
    endloop
  endfacet
  facet normal 0 0 1
    outer loop
      vertex 6.66113 8.11661 4.5
      vertex 7.42462 -7.42462 4.5
      vertex 7.42462 7.42462 4.5
    endloop
  endfacet
  facet normal 0 0 1
    outer loop
      vertex 6.66113 8.11661 4.5
      vertex 6.66113 -8.11661 4.5
      vertex 7.42462 -7.42462 4.5
    endloop
  endfacet
  facet normal 0 0 1
    outer loop
      vertex 5.83349 8.73043 4.5
      vertex 6.66113 -8.11661 4.5
      vertex 6.66113 8.11661 4.5
    endloop
  endfacet
  facet normal 0 0 1
    outer loop
      vertex 5.83349 8.73043 4.5
      vertex 5.83349 -8.73043 4.5
      vertex 6.66113 -8.11661 4.5
    endloop
  endfacet
  facet normal 0 0 1
    outer loop
      vertex 4.94967 9.26017 4.5
      vertex 5.83349 -8.73043 4.5
      vertex 5.83349 8.73043 4.5
    endloop
  endfacet
  facet normal 0 0 1
    outer loop
      vertex 4.94967 9.26017 4.5
      vertex 4.94967 -9.26017 4.5
      vertex 5.83349 -8.73043 4.5
    endloop
  endfacet
  facet normal 0 0 1
    outer loop
      vertex 4.01818 9.70073 4.5
      vertex 4.94967 -9.26017 4.5
      vertex 4.94967 9.26017 4.5
    endloop
  endfacet
  facet normal 0 0 1
    outer loop
      vertex 4.01818 9.70073 4.5
      vertex 4.01818 -9.70073 4.5
      vertex 4.94967 -9.26017 4.5
    endloop
  endfacet
  facet normal 0 0 1
    outer loop
      vertex 3.04799 10.0479 4.5
      vertex 4.01818 -9.70073 4.5
      vertex 4.01818 9.70073 4.5
    endloop
  endfacet
  facet normal 0 0 1
    outer loop
      vertex 3.04799 10.0479 4.5
      vertex 3.04799 -10.0479 4.5
      vertex 4.01818 -9.70073 4.5
    endloop
  endfacet
  facet normal 0 0 1
    outer loop
      vertex 2.04845 10.2982 4.5
      vertex 3.04799 -10.0479 4.5
      vertex 3.04799 10.0479 4.5
    endloop
  endfacet
  facet normal 0 0 1
    outer loop
      vertex 2.04845 10.2982 4.5
      vertex 2.04845 -10.2982 4.5
      vertex 3.04799 -10.0479 4.5
    endloop
  endfacet
  facet normal 0 0 1
    outer loop
      vertex 1.02918 10.4494 4.5
      vertex 2.04845 -10.2982 4.5
      vertex 2.04845 10.2982 4.5
    endloop
  endfacet
  facet normal 0 0 1
    outer loop
      vertex 1.02918 10.4494 4.5
      vertex 1.02918 -10.4494 4.5
      vertex 2.04845 -10.2982 4.5
    endloop
  endfacet
  facet normal 0 0 1
    outer loop
      vertex 0 10.5 4.5
      vertex 1.02918 -10.4494 4.5
      vertex 1.02918 10.4494 4.5
    endloop
  endfacet
  facet normal 0 0 1
    outer loop
      vertex 0 10.5 4.5
      vertex 0 -10.5 4.5
      vertex 1.02918 -10.4494 4.5
    endloop
  endfacet
  facet normal -0 0 1
    outer loop
      vertex -1.02918 10.4494 4.5
      vertex 0 -10.5 4.5
      vertex 0 10.5 4.5
    endloop
  endfacet
  facet normal 0 0 1
    outer loop
      vertex -1.02918 10.4494 4.5
      vertex -1.02918 -10.4494 4.5
      vertex 0 -10.5 4.5
    endloop
  endfacet
  facet normal -0 0 1
    outer loop
      vertex -2.04845 10.2982 4.5
      vertex -1.02918 -10.4494 4.5
      vertex -1.02918 10.4494 4.5
    endloop
  endfacet
  facet normal 0 0 1
    outer loop
      vertex -2.04845 10.2982 4.5
      vertex -2.04845 -10.2982 4.5
      vertex -1.02918 -10.4494 4.5
    endloop
  endfacet
  facet normal -0 0 1
    outer loop
      vertex -3.04799 10.0479 4.5
      vertex -2.04845 -10.2982 4.5
      vertex -2.04845 10.2982 4.5
    endloop
  endfacet
  facet normal 0 0 1
    outer loop
      vertex -3.04799 10.0479 4.5
      vertex -3.04799 -10.0479 4.5
      vertex -2.04845 -10.2982 4.5
    endloop
  endfacet
  facet normal -0 0 1
    outer loop
      vertex -4.01818 9.70073 4.5
      vertex -3.04799 -10.0479 4.5
      vertex -3.04799 10.0479 4.5
    endloop
  endfacet
  facet normal 0 0 1
    outer loop
      vertex -4.01818 9.70073 4.5
      vertex -4.01818 -9.70073 4.5
      vertex -3.04799 -10.0479 4.5
    endloop
  endfacet
  facet normal -0 0 1
    outer loop
      vertex -4.94967 9.26017 4.5
      vertex -4.01818 -9.70073 4.5
      vertex -4.01818 9.70073 4.5
    endloop
  endfacet
  facet normal 0 0 1
    outer loop
      vertex -4.94967 9.26017 4.5
      vertex -4.94967 -9.26017 4.5
      vertex -4.01818 -9.70073 4.5
    endloop
  endfacet
  facet normal -0 0 1
    outer loop
      vertex -5.83349 8.73043 4.5
      vertex -4.94967 -9.26017 4.5
      vertex -4.94967 9.26017 4.5
    endloop
  endfacet
  facet normal 0 0 1
    outer loop
      vertex -5.83349 8.73043 4.5
      vertex -5.83349 -8.73043 4.5
      vertex -4.94967 -9.26017 4.5
    endloop
  endfacet
  facet normal -0 0 1
    outer loop
      vertex -6.66113 8.11661 4.5
      vertex -5.83349 -8.73043 4.5
      vertex -5.83349 8.73043 4.5
    endloop
  endfacet
  facet normal 0 0 1
    outer loop
      vertex -6.66113 8.11661 4.5
      vertex -6.66113 -8.11661 4.5
      vertex -5.83349 -8.73043 4.5
    endloop
  endfacet
  facet normal -0 0 1
    outer loop
      vertex -7.42462 7.42462 4.5
      vertex -6.66113 -8.11661 4.5
      vertex -6.66113 8.11661 4.5
    endloop
  endfacet
  facet normal 0 0 1
    outer loop
      vertex -7.42462 7.42462 4.5
      vertex -7.42462 -7.42462 4.5
      vertex -6.66113 -8.11661 4.5
    endloop
  endfacet
  facet normal -0 0 1
    outer loop
      vertex -8.11661 6.66113 4.5
      vertex -7.42462 -7.42462 4.5
      vertex -7.42462 7.42462 4.5
    endloop
  endfacet
  facet normal 0 0 1
    outer loop
      vertex -8.11661 6.66113 4.5
      vertex -8.11661 -6.66113 4.5
      vertex -7.42462 -7.42462 4.5
    endloop
  endfacet
  facet normal -0 0 1
    outer loop
      vertex -8.73043 5.83349 4.5
      vertex -8.11661 -6.66113 4.5
      vertex -8.11661 6.66113 4.5
    endloop
  endfacet
  facet normal 0 0 1
    outer loop
      vertex -8.73043 5.83349 4.5
      vertex -8.73043 -5.83349 4.5
      vertex -8.11661 -6.66113 4.5
    endloop
  endfacet
  facet normal -0 0 1
    outer loop
      vertex -9.26017 4.94967 4.5
      vertex -8.73043 -5.83349 4.5
      vertex -8.73043 5.83349 4.5
    endloop
  endfacet
  facet normal 0 0 1
    outer loop
      vertex -9.26017 4.94967 4.5
      vertex -9.26017 -4.94967 4.5
      vertex -8.73043 -5.83349 4.5
    endloop
  endfacet
  facet normal -0 0 1
    outer loop
      vertex -9.70073 4.01818 4.5
      vertex -9.26017 -4.94967 4.5
      vertex -9.26017 4.94967 4.5
    endloop
  endfacet
  facet normal 0 0 1
    outer loop
      vertex -9.70073 4.01818 4.5
      vertex -9.70073 -4.01818 4.5
      vertex -9.26017 -4.94967 4.5
    endloop
  endfacet
  facet normal -0 0 1
    outer loop
      vertex -10.0479 3.04799 4.5
      vertex -9.70073 -4.01818 4.5
      vertex -9.70073 4.01818 4.5
    endloop
  endfacet
  facet normal 0 0 1
    outer loop
      vertex -10.0479 3.04799 4.5
      vertex -10.0479 -3.04799 4.5
      vertex -9.70073 -4.01818 4.5
    endloop
  endfacet
  facet normal -0 0 1
    outer loop
      vertex -10.2982 2.04845 4.5
      vertex -10.0479 -3.04799 4.5
      vertex -10.0479 3.04799 4.5
    endloop
  endfacet
  facet normal 0 0 1
    outer loop
      vertex -10.2982 2.04845 4.5
      vertex -10.2982 -2.04845 4.5
      vertex -10.0479 -3.04799 4.5
    endloop
  endfacet
  facet normal -0 0 1
    outer loop
      vertex -10.4494 1.02918 4.5
      vertex -10.2982 -2.04845 4.5
      vertex -10.2982 2.04845 4.5
    endloop
  endfacet
  facet normal 0 0 1
    outer loop
      vertex -10.4494 1.02918 4.5
      vertex -10.4494 -1.02918 4.5
      vertex -10.2982 -2.04845 4.5
    endloop
  endfacet
  facet normal 0 -0 1
    outer loop
      vertex -10.4494 -1.02918 4.5
      vertex -10.4494 1.02918 4.5
      vertex -10.5 0 4.5
    endloop
  endfacet
  facet normal 0.5957 -0.803207 0
    outer loop
      vertex -6.66113 8.11661 4.5
      vertex -5.83349 8.73043 14.51
      vertex -6.66113 8.11661 14.51
    endloop
  endfacet
  facet normal 0.5957 -0.803207 0
    outer loop
      vertex -5.83349 8.73043 14.51
      vertex -6.66113 8.11661 4.5
      vertex -5.83349 8.73043 4.5
    endloop
  endfacet
  facet normal 0.803207 0.5957 0
    outer loop
      vertex -8.11661 -6.66113 14.51
      vertex -8.73043 -5.83349 4.5
      vertex -8.73043 -5.83349 14.51
    endloop
  endfacet
  facet normal 0.803207 0.5957 0
    outer loop
      vertex -8.73043 -5.83349 4.5
      vertex -8.11661 -6.66113 14.51
      vertex -8.11661 -6.66113 4.5
    endloop
  endfacet
  facet normal -0.427554 -0.90399 0
    outer loop
      vertex 4.01818 9.70073 4.5
      vertex 4.94967 9.26017 14.51
      vertex 4.01818 9.70073 14.51
    endloop
  endfacet
  facet normal -0.427554 -0.90399 -0
    outer loop
      vertex 4.94967 9.26017 14.51
      vertex 4.01818 9.70073 4.5
      vertex 4.94967 9.26017 4.5
    endloop
  endfacet
  facet normal -0.146736 0.989176 0
    outer loop
      vertex 2.04845 -10.2982 4.5
      vertex 1.02918 -10.4494 14.51
      vertex 2.04845 -10.2982 14.51
    endloop
  endfacet
  facet normal -0.146736 0.989176 0
    outer loop
      vertex 1.02918 -10.4494 14.51
      vertex 2.04845 -10.2982 4.5
      vertex 1.02918 -10.4494 4.5
    endloop
  endfacet
  facet normal 0.146736 -0.989176 0
    outer loop
      vertex -2.04845 10.2982 4.5
      vertex -1.02918 10.4494 14.51
      vertex -2.04845 10.2982 14.51
    endloop
  endfacet
  facet normal 0.146736 -0.989176 0
    outer loop
      vertex -1.02918 10.4494 14.51
      vertex -2.04845 10.2982 4.5
      vertex -1.02918 10.4494 4.5
    endloop
  endfacet
  facet normal 0.90399 0.427554 0
    outer loop
      vertex -9.26017 -4.94967 14.51
      vertex -9.70073 -4.01818 4.5
      vertex -9.70073 -4.01818 14.51
    endloop
  endfacet
  facet normal 0.90399 0.427554 0
    outer loop
      vertex -9.70073 -4.01818 4.5
      vertex -9.26017 -4.94967 14.51
      vertex -9.26017 -4.94967 4.5
    endloop
  endfacet
  facet normal -0.5957 -0.803207 0
    outer loop
      vertex 5.83349 8.73043 4.5
      vertex 6.66113 8.11661 14.51
      vertex 5.83349 8.73043 14.51
    endloop
  endfacet
  facet normal -0.5957 -0.803207 -0
    outer loop
      vertex 6.66113 8.11661 14.51
      vertex 5.83349 8.73043 4.5
      vertex 6.66113 8.11661 4.5
    endloop
  endfacet
  facet normal -0.998794 0.049106 0
    outer loop
      vertex 10.4494 -1.02918 4.5
      vertex 10.5 0 14.51
      vertex 10.5 0 4.5
    endloop
  endfacet
  facet normal -0.998794 0.049106 0
    outer loop
      vertex 10.5 0 14.51
      vertex 10.4494 -1.02918 4.5
      vertex 10.4494 -1.02918 14.51
    endloop
  endfacet
  facet normal -0.242915 -0.970048 0
    outer loop
      vertex 2.04845 10.2982 4.5
      vertex 3.04799 10.0479 14.51
      vertex 2.04845 10.2982 14.51
    endloop
  endfacet
  facet normal -0.242915 -0.970048 -0
    outer loop
      vertex 3.04799 10.0479 14.51
      vertex 2.04845 10.2982 4.5
      vertex 3.04799 10.0479 4.5
    endloop
  endfacet
  facet normal 0.5957 0.803207 -0
    outer loop
      vertex -5.83349 -8.73043 4.5
      vertex -6.66113 -8.11661 14.51
      vertex -5.83349 -8.73043 14.51
    endloop
  endfacet
  facet normal 0.5957 0.803207 0
    outer loop
      vertex -6.66113 -8.11661 14.51
      vertex -5.83349 -8.73043 4.5
      vertex -6.66113 -8.11661 4.5
    endloop
  endfacet
  facet normal 0.74095 -0.671561 0
    outer loop
      vertex -8.11661 6.66113 14.51
      vertex -7.42462 7.42462 4.5
      vertex -7.42462 7.42462 14.51
    endloop
  endfacet
  facet normal 0.74095 -0.671561 0
    outer loop
      vertex -7.42462 7.42462 4.5
      vertex -8.11661 6.66113 14.51
      vertex -8.11661 6.66113 4.5
    endloop
  endfacet
  facet normal -0.857729 0.514102 0
    outer loop
      vertex 8.73043 -5.83349 4.5
      vertex 9.26017 -4.94967 14.51
      vertex 9.26017 -4.94967 4.5
    endloop
  endfacet
  facet normal -0.857729 0.514102 0
    outer loop
      vertex 9.26017 -4.94967 14.51
      vertex 8.73043 -5.83349 4.5
      vertex 8.73043 -5.83349 14.51
    endloop
  endfacet
  facet normal -0.336916 -0.941535 0
    outer loop
      vertex 3.04799 10.0479 4.5
      vertex 4.01818 9.70073 14.51
      vertex 3.04799 10.0479 14.51
    endloop
  endfacet
  facet normal -0.336916 -0.941535 -0
    outer loop
      vertex 4.01818 9.70073 14.51
      vertex 3.04799 10.0479 4.5
      vertex 4.01818 9.70073 4.5
    endloop
  endfacet
  facet normal -0.803207 -0.5957 0
    outer loop
      vertex 8.73043 5.83349 4.5
      vertex 8.11661 6.66113 14.51
      vertex 8.11661 6.66113 4.5
    endloop
  endfacet
  facet normal -0.803207 -0.5957 0
    outer loop
      vertex 8.11661 6.66113 14.51
      vertex 8.73043 5.83349 4.5
      vertex 8.73043 5.83349 14.51
    endloop
  endfacet
  facet normal -0.857729 -0.514102 0
    outer loop
      vertex 9.26017 4.94967 4.5
      vertex 8.73043 5.83349 14.51
      vertex 8.73043 5.83349 4.5
    endloop
  endfacet
  facet normal -0.857729 -0.514102 0
    outer loop
      vertex 8.73043 5.83349 14.51
      vertex 9.26017 4.94967 4.5
      vertex 9.26017 4.94967 14.51
    endloop
  endfacet
  facet normal 0.427554 0.90399 -0
    outer loop
      vertex -4.01818 -9.70073 4.5
      vertex -4.94967 -9.26017 14.51
      vertex -4.01818 -9.70073 14.51
    endloop
  endfacet
  facet normal 0.427554 0.90399 0
    outer loop
      vertex -4.94967 -9.26017 14.51
      vertex -4.01818 -9.70073 4.5
      vertex -4.94967 -9.26017 4.5
    endloop
  endfacet
  facet normal 0.970048 0.242915 0
    outer loop
      vertex -10.0479 -3.04799 14.51
      vertex -10.2982 -2.04845 4.5
      vertex -10.2982 -2.04845 14.51
    endloop
  endfacet
  facet normal 0.970048 0.242915 0
    outer loop
      vertex -10.2982 -2.04845 4.5
      vertex -10.0479 -3.04799 14.51
      vertex -10.0479 -3.04799 4.5
    endloop
  endfacet
  facet normal -0.90399 -0.427554 0
    outer loop
      vertex 9.70073 4.01818 4.5
      vertex 9.26017 4.94967 14.51
      vertex 9.26017 4.94967 4.5
    endloop
  endfacet
  facet normal -0.90399 -0.427554 0
    outer loop
      vertex 9.26017 4.94967 14.51
      vertex 9.70073 4.01818 4.5
      vertex 9.70073 4.01818 14.51
    endloop
  endfacet
  facet normal 0 0 -1
    outer loop
      vertex 7.05 -7.05 14.51
      vertex 10.5 0 14.51
      vertex 10.4494 -1.02918 14.51
    endloop
  endfacet
  facet normal 0 0 -1
    outer loop
      vertex 7.05 -7.05 14.51
      vertex 10.4494 -1.02918 14.51
      vertex 10.2982 -2.04845 14.51
    endloop
  endfacet
  facet normal -0 0 -1
    outer loop
      vertex 10.5 0 14.51
      vertex 7.05 -7.05 14.51
      vertex 10.4494 1.02918 14.51
    endloop
  endfacet
  facet normal 0 0 -1
    outer loop
      vertex 7.05 -7.05 14.51
      vertex 10.2982 -2.04845 14.51
      vertex 10.0479 -3.04799 14.51
    endloop
  endfacet
  facet normal 0 0 -1
    outer loop
      vertex 7.05 7.05 14.51
      vertex 10.4494 1.02918 14.51
      vertex 7.05 -7.05 14.51
    endloop
  endfacet
  facet normal 0 0 -1
    outer loop
      vertex 7.05 -7.05 14.51
      vertex 10.0479 -3.04799 14.51
      vertex 9.70073 -4.01818 14.51
    endloop
  endfacet
  facet normal 0 0 -1
    outer loop
      vertex 10.4494 1.02918 14.51
      vertex 7.05 7.05 14.51
      vertex 10.2982 2.04845 14.51
    endloop
  endfacet
  facet normal 0 0 -1
    outer loop
      vertex 7.05 -7.05 14.51
      vertex 9.70073 -4.01818 14.51
      vertex 9.26017 -4.94967 14.51
    endloop
  endfacet
  facet normal 0 0 -1
    outer loop
      vertex 10.2982 2.04845 14.51
      vertex 7.05 7.05 14.51
      vertex 10.0479 3.04799 14.51
    endloop
  endfacet
  facet normal 0 0 -1
    outer loop
      vertex 7.05 -7.05 14.51
      vertex 9.26017 -4.94967 14.51
      vertex 8.73043 -5.83349 14.51
    endloop
  endfacet
  facet normal 0 0 -1
    outer loop
      vertex 10.0479 3.04799 14.51
      vertex 7.05 7.05 14.51
      vertex 9.70073 4.01818 14.51
    endloop
  endfacet
  facet normal 0 0 -1
    outer loop
      vertex 7.05 -7.05 14.51
      vertex 8.73043 -5.83349 14.51
      vertex 8.11661 -6.66113 14.51
    endloop
  endfacet
  facet normal 0 0 -1
    outer loop
      vertex 9.70073 4.01818 14.51
      vertex 7.05 7.05 14.51
      vertex 9.26017 4.94967 14.51
    endloop
  endfacet
  facet normal 0 0 -1
    outer loop
      vertex 7.05 -7.05 14.51
      vertex 8.11661 -6.66113 14.51
      vertex 7.42462 -7.42462 14.51
    endloop
  endfacet
  facet normal 0 0 -1
    outer loop
      vertex 9.26017 4.94967 14.51
      vertex 7.05 7.05 14.51
      vertex 8.73043 5.83349 14.51
    endloop
  endfacet
  facet normal 0 0 -1
    outer loop
      vertex 8.73043 5.83349 14.51
      vertex 7.05 7.05 14.51
      vertex 8.11661 6.66113 14.51
    endloop
  endfacet
  facet normal 0 0 -1
    outer loop
      vertex 6.66113 -8.11661 14.51
      vertex 7.05 -7.05 14.51
      vertex 7.42462 -7.42462 14.51
    endloop
  endfacet
  facet normal 0 0 -1
    outer loop
      vertex 5.83349 -8.73043 14.51
      vertex 7.05 -7.05 14.51
      vertex 6.66113 -8.11661 14.51
    endloop
  endfacet
  facet normal 0 0 -1
    outer loop
      vertex 4.94967 -9.26017 14.51
      vertex 7.05 -7.05 14.51
      vertex 5.83349 -8.73043 14.51
    endloop
  endfacet
  facet normal 0 0 -1
    outer loop
      vertex 4.01818 -9.70073 14.51
      vertex 7.05 -7.05 14.51
      vertex 4.94967 -9.26017 14.51
    endloop
  endfacet
  facet normal 0 0 -1
    outer loop
      vertex 3.04799 -10.0479 14.51
      vertex 7.05 -7.05 14.51
      vertex 4.01818 -9.70073 14.51
    endloop
  endfacet
  facet normal 0 0 -1
    outer loop
      vertex 2.04845 -10.2982 14.51
      vertex 7.05 -7.05 14.51
      vertex 3.04799 -10.0479 14.51
    endloop
  endfacet
  facet normal 0 0 -1
    outer loop
      vertex 1.02918 -10.4494 14.51
      vertex 7.05 -7.05 14.51
      vertex 2.04845 -10.2982 14.51
    endloop
  endfacet
  facet normal 0 0 -1
    outer loop
      vertex 0 -10.5 14.51
      vertex 7.05 -7.05 14.51
      vertex 1.02918 -10.4494 14.51
    endloop
  endfacet
  facet normal 0 0 -1
    outer loop
      vertex -1.02918 -10.4494 14.51
      vertex 7.05 -7.05 14.51
      vertex 0 -10.5 14.51
    endloop
  endfacet
  facet normal 0 0 -1
    outer loop
      vertex -7.05 -7.05 14.51
      vertex -1.02918 -10.4494 14.51
      vertex -2.04845 -10.2982 14.51
    endloop
  endfacet
  facet normal 0 0 -1
    outer loop
      vertex -7.05 -7.05 14.51
      vertex -2.04845 -10.2982 14.51
      vertex -3.04799 -10.0479 14.51
    endloop
  endfacet
  facet normal 0 0 -1
    outer loop
      vertex -7.05 -7.05 14.51
      vertex -3.04799 -10.0479 14.51
      vertex -4.01818 -9.70073 14.51
    endloop
  endfacet
  facet normal 0 0 -1
    outer loop
      vertex -7.05 -7.05 14.51
      vertex -4.01818 -9.70073 14.51
      vertex -4.94967 -9.26017 14.51
    endloop
  endfacet
  facet normal 0 0 -1
    outer loop
      vertex -7.05 -7.05 14.51
      vertex -4.94967 -9.26017 14.51
      vertex -5.83349 -8.73043 14.51
    endloop
  endfacet
  facet normal 0 0 -1
    outer loop
      vertex -7.05 -7.05 14.51
      vertex -5.83349 -8.73043 14.51
      vertex -6.66113 -8.11661 14.51
    endloop
  endfacet
  facet normal 0 0 -1
    outer loop
      vertex -1.02918 -10.4494 14.51
      vertex -7.05 -7.05 14.51
      vertex 7.05 -7.05 14.51
    endloop
  endfacet
  facet normal 0 0 -1
    outer loop
      vertex -8.11661 -6.66113 14.51
      vertex -7.05 -7.05 14.51
      vertex -7.42462 -7.42462 14.51
    endloop
  endfacet
  facet normal 0 0 -1
    outer loop
      vertex -7.42462 -7.42462 14.51
      vertex -7.05 -7.05 14.51
      vertex -6.66113 -8.11661 14.51
    endloop
  endfacet
  facet normal 0 0 -1
    outer loop
      vertex 8.11661 6.66113 14.51
      vertex 7.05 7.05 14.51
      vertex 7.42462 7.42462 14.51
    endloop
  endfacet
  facet normal 0 0 -1
    outer loop
      vertex 7.05 7.05 14.51
      vertex 6.66113 8.11661 14.51
      vertex 7.42462 7.42462 14.51
    endloop
  endfacet
  facet normal 0 0 -1
    outer loop
      vertex 7.05 7.05 14.51
      vertex 5.83349 8.73043 14.51
      vertex 6.66113 8.11661 14.51
    endloop
  endfacet
  facet normal 0 0 -1
    outer loop
      vertex 7.05 7.05 14.51
      vertex 4.94967 9.26017 14.51
      vertex 5.83349 8.73043 14.51
    endloop
  endfacet
  facet normal 0 0 -1
    outer loop
      vertex 7.05 7.05 14.51
      vertex 4.01818 9.70073 14.51
      vertex 4.94967 9.26017 14.51
    endloop
  endfacet
  facet normal 0 0 -1
    outer loop
      vertex 7.05 7.05 14.51
      vertex 3.04799 10.0479 14.51
      vertex 4.01818 9.70073 14.51
    endloop
  endfacet
  facet normal 0 0 -1
    outer loop
      vertex 7.05 7.05 14.51
      vertex 2.04845 10.2982 14.51
      vertex 3.04799 10.0479 14.51
    endloop
  endfacet
  facet normal 0 0 -1
    outer loop
      vertex 7.05 7.05 14.51
      vertex 1.02918 10.4494 14.51
      vertex 2.04845 10.2982 14.51
    endloop
  endfacet
  facet normal 0 0 -1
    outer loop
      vertex 7.05 7.05 14.51
      vertex 0 10.5 14.51
      vertex 1.02918 10.4494 14.51
    endloop
  endfacet
  facet normal 0 0 -1
    outer loop
      vertex 7.05 7.05 14.51
      vertex -1.02918 10.4494 14.51
      vertex 0 10.5 14.51
    endloop
  endfacet
  facet normal 0 0 -1
    outer loop
      vertex -7.05 7.05 14.51
      vertex -1.02918 10.4494 14.51
      vertex 7.05 7.05 14.51
    endloop
  endfacet
  facet normal 0 0 -1
    outer loop
      vertex -1.02918 10.4494 14.51
      vertex -7.05 7.05 14.51
      vertex -2.04845 10.2982 14.51
    endloop
  endfacet
  facet normal 0 0 -1
    outer loop
      vertex -2.04845 10.2982 14.51
      vertex -7.05 7.05 14.51
      vertex -3.04799 10.0479 14.51
    endloop
  endfacet
  facet normal 0 0 -1
    outer loop
      vertex -3.04799 10.0479 14.51
      vertex -7.05 7.05 14.51
      vertex -4.01818 9.70073 14.51
    endloop
  endfacet
  facet normal 0 0 -1
    outer loop
      vertex -4.01818 9.70073 14.51
      vertex -7.05 7.05 14.51
      vertex -4.94967 9.26017 14.51
    endloop
  endfacet
  facet normal 0 0 -1
    outer loop
      vertex -4.94967 9.26017 14.51
      vertex -7.05 7.05 14.51
      vertex -5.83349 8.73043 14.51
    endloop
  endfacet
  facet normal 0 0 -1
    outer loop
      vertex -5.83349 8.73043 14.51
      vertex -7.05 7.05 14.51
      vertex -6.66113 8.11661 14.51
    endloop
  endfacet
  facet normal 0 0 -1
    outer loop
      vertex -7.05 7.05 14.51
      vertex -7.42462 7.42462 14.51
      vertex -6.66113 8.11661 14.51
    endloop
  endfacet
  facet normal 0 0 -1
    outer loop
      vertex -8.73043 -5.83349 14.51
      vertex -7.05 -7.05 14.51
      vertex -8.11661 -6.66113 14.51
    endloop
  endfacet
  facet normal 0 0 -1
    outer loop
      vertex -9.26017 -4.94967 14.51
      vertex -7.05 -7.05 14.51
      vertex -8.73043 -5.83349 14.51
    endloop
  endfacet
  facet normal -0 0 -1
    outer loop
      vertex -7.05 7.05 14.51
      vertex -8.11661 6.66113 14.51
      vertex -7.42462 7.42462 14.51
    endloop
  endfacet
  facet normal 0 0 -1
    outer loop
      vertex -9.70073 -4.01818 14.51
      vertex -7.05 -7.05 14.51
      vertex -9.26017 -4.94967 14.51
    endloop
  endfacet
  facet normal 0 0 -1
    outer loop
      vertex -7.05 7.05 14.51
      vertex -8.73043 5.83349 14.51
      vertex -8.11661 6.66113 14.51
    endloop
  endfacet
  facet normal 0 0 -1
    outer loop
      vertex -10.0479 -3.04799 14.51
      vertex -7.05 -7.05 14.51
      vertex -9.70073 -4.01818 14.51
    endloop
  endfacet
  facet normal 0 0 -1
    outer loop
      vertex -7.05 7.05 14.51
      vertex -9.26017 4.94967 14.51
      vertex -8.73043 5.83349 14.51
    endloop
  endfacet
  facet normal 0 0 -1
    outer loop
      vertex -10.2982 -2.04845 14.51
      vertex -7.05 -7.05 14.51
      vertex -10.0479 -3.04799 14.51
    endloop
  endfacet
  facet normal 0 0 -1
    outer loop
      vertex -7.05 7.05 14.51
      vertex -9.70073 4.01818 14.51
      vertex -9.26017 4.94967 14.51
    endloop
  endfacet
  facet normal 0 0 -1
    outer loop
      vertex -10.4494 -1.02918 14.51
      vertex -7.05 -7.05 14.51
      vertex -10.2982 -2.04845 14.51
    endloop
  endfacet
  facet normal 0 0 -1
    outer loop
      vertex -7.05 7.05 14.51
      vertex -10.0479 3.04799 14.51
      vertex -9.70073 4.01818 14.51
    endloop
  endfacet
  facet normal 0 0 -1
    outer loop
      vertex -7.05 -7.05 14.51
      vertex -10.4494 -1.02918 14.51
      vertex -7.05 7.05 14.51
    endloop
  endfacet
  facet normal 0 0 -1
    outer loop
      vertex -7.05 7.05 14.51
      vertex -10.2982 2.04845 14.51
      vertex -10.0479 3.04799 14.51
    endloop
  endfacet
  facet normal 0 0 -1
    outer loop
      vertex -10.5 0 14.51
      vertex -7.05 7.05 14.51
      vertex -10.4494 -1.02918 14.51
    endloop
  endfacet
  facet normal 0 0 -1
    outer loop
      vertex -7.05 7.05 14.51
      vertex -10.4494 1.02918 14.51
      vertex -10.2982 2.04845 14.51
    endloop
  endfacet
  facet normal 0 0 -1
    outer loop
      vertex -7.05 7.05 14.51
      vertex -10.5 0 14.51
      vertex -10.4494 1.02918 14.51
    endloop
  endfacet
  facet normal -0.427554 0.90399 0
    outer loop
      vertex 4.94967 -9.26017 4.5
      vertex 4.01818 -9.70073 14.51
      vertex 4.94967 -9.26017 14.51
    endloop
  endfacet
  facet normal -0.427554 0.90399 0
    outer loop
      vertex 4.01818 -9.70073 14.51
      vertex 4.94967 -9.26017 4.5
      vertex 4.01818 -9.70073 4.5
    endloop
  endfacet
  facet normal -0.146736 -0.989176 0
    outer loop
      vertex 1.02918 10.4494 4.5
      vertex 2.04845 10.2982 14.51
      vertex 1.02918 10.4494 14.51
    endloop
  endfacet
  facet normal -0.146736 -0.989176 -0
    outer loop
      vertex 2.04845 10.2982 14.51
      vertex 1.02918 10.4494 4.5
      vertex 2.04845 10.2982 4.5
    endloop
  endfacet
  facet normal 0.671561 -0.74095 0
    outer loop
      vertex -7.42462 7.42462 4.5
      vertex -6.66113 8.11661 14.51
      vertex -7.42462 7.42462 14.51
    endloop
  endfacet
  facet normal 0.671561 -0.74095 0
    outer loop
      vertex -6.66113 8.11661 14.51
      vertex -7.42462 7.42462 4.5
      vertex -6.66113 8.11661 4.5
    endloop
  endfacet
  facet normal 0.989176 -0.146736 0
    outer loop
      vertex -10.4494 1.02918 14.51
      vertex -10.2982 2.04845 4.5
      vertex -10.2982 2.04845 14.51
    endloop
  endfacet
  facet normal 0.989176 -0.146736 0
    outer loop
      vertex -10.2982 2.04845 4.5
      vertex -10.4494 1.02918 14.51
      vertex -10.4494 1.02918 4.5
    endloop
  endfacet
  facet normal 0.941535 -0.336916 0
    outer loop
      vertex -10.0479 3.04799 14.51
      vertex -9.70073 4.01818 4.5
      vertex -9.70073 4.01818 14.51
    endloop
  endfacet
  facet normal 0.941535 -0.336916 0
    outer loop
      vertex -9.70073 4.01818 4.5
      vertex -10.0479 3.04799 14.51
      vertex -10.0479 3.04799 4.5
    endloop
  endfacet
  facet normal 0.336916 -0.941535 0
    outer loop
      vertex -4.01818 9.70073 4.5
      vertex -3.04799 10.0479 14.51
      vertex -4.01818 9.70073 14.51
    endloop
  endfacet
  facet normal 0.336916 -0.941535 0
    outer loop
      vertex -3.04799 10.0479 14.51
      vertex -4.01818 9.70073 4.5
      vertex -3.04799 10.0479 4.5
    endloop
  endfacet
  facet normal 0.998794 0.049106 0
    outer loop
      vertex -10.4494 -1.02918 14.51
      vertex -10.5 0 4.5
      vertex -10.5 0 14.51
    endloop
  endfacet
  facet normal 0.998794 0.049106 0
    outer loop
      vertex -10.5 0 4.5
      vertex -10.4494 -1.02918 14.51
      vertex -10.4494 -1.02918 4.5
    endloop
  endfacet
  facet normal -0.671561 0.74095 0
    outer loop
      vertex 7.42462 -7.42462 4.5
      vertex 6.66113 -8.11661 14.51
      vertex 7.42462 -7.42462 14.51
    endloop
  endfacet
  facet normal -0.671561 0.74095 0
    outer loop
      vertex 6.66113 -8.11661 14.51
      vertex 7.42462 -7.42462 4.5
      vertex 6.66113 -8.11661 4.5
    endloop
  endfacet
  facet normal 0.049106 -0.998794 0
    outer loop
      vertex -1.02918 10.4494 4.5
      vertex 0 10.5 14.51
      vertex -1.02918 10.4494 14.51
    endloop
  endfacet
  facet normal 0.049106 -0.998794 0
    outer loop
      vertex 0 10.5 14.51
      vertex -1.02918 10.4494 4.5
      vertex 0 10.5 4.5
    endloop
  endfacet
  facet normal -0.671561 -0.74095 0
    outer loop
      vertex 6.66113 8.11661 4.5
      vertex 7.42462 7.42462 14.51
      vertex 6.66113 8.11661 14.51
    endloop
  endfacet
  facet normal -0.671561 -0.74095 -0
    outer loop
      vertex 7.42462 7.42462 14.51
      vertex 6.66113 8.11661 4.5
      vertex 7.42462 7.42462 4.5
    endloop
  endfacet
  facet normal 0.803207 -0.5957 0
    outer loop
      vertex -8.73043 5.83349 14.51
      vertex -8.11661 6.66113 4.5
      vertex -8.11661 6.66113 14.51
    endloop
  endfacet
  facet normal 0.803207 -0.5957 0
    outer loop
      vertex -8.11661 6.66113 4.5
      vertex -8.73043 5.83349 14.51
      vertex -8.73043 5.83349 4.5
    endloop
  endfacet
  facet normal 0.74095 0.671561 0
    outer loop
      vertex -7.42462 -7.42462 14.51
      vertex -8.11661 -6.66113 4.5
      vertex -8.11661 -6.66113 14.51
    endloop
  endfacet
  facet normal 0.74095 0.671561 0
    outer loop
      vertex -8.11661 -6.66113 4.5
      vertex -7.42462 -7.42462 14.51
      vertex -7.42462 -7.42462 4.5
    endloop
  endfacet
  facet normal -0.049106 0.998794 0
    outer loop
      vertex 1.02918 -10.4494 4.5
      vertex 0 -10.5 14.51
      vertex 1.02918 -10.4494 14.51
    endloop
  endfacet
  facet normal -0.049106 0.998794 0
    outer loop
      vertex 0 -10.5 14.51
      vertex 1.02918 -10.4494 4.5
      vertex 0 -10.5 4.5
    endloop
  endfacet
  facet normal 0.989176 0.146736 0
    outer loop
      vertex -10.2982 -2.04845 14.51
      vertex -10.4494 -1.02918 4.5
      vertex -10.4494 -1.02918 14.51
    endloop
  endfacet
  facet normal 0.989176 0.146736 0
    outer loop
      vertex -10.4494 -1.02918 4.5
      vertex -10.2982 -2.04845 14.51
      vertex -10.2982 -2.04845 4.5
    endloop
  endfacet
  facet normal -0.049106 -0.998794 0
    outer loop
      vertex 0 10.5 4.5
      vertex 1.02918 10.4494 14.51
      vertex 0 10.5 14.51
    endloop
  endfacet
  facet normal -0.049106 -0.998794 -0
    outer loop
      vertex 1.02918 10.4494 14.51
      vertex 0 10.5 4.5
      vertex 1.02918 10.4494 4.5
    endloop
  endfacet
  facet normal 0.970048 -0.242915 0
    outer loop
      vertex -10.2982 2.04845 14.51
      vertex -10.0479 3.04799 4.5
      vertex -10.0479 3.04799 14.51
    endloop
  endfacet
  facet normal 0.970048 -0.242915 0
    outer loop
      vertex -10.0479 3.04799 4.5
      vertex -10.2982 2.04845 14.51
      vertex -10.2982 2.04845 4.5
    endloop
  endfacet
  facet normal 0.90399 -0.427554 0
    outer loop
      vertex -9.70073 4.01818 14.51
      vertex -9.26017 4.94967 4.5
      vertex -9.26017 4.94967 14.51
    endloop
  endfacet
  facet normal 0.90399 -0.427554 0
    outer loop
      vertex -9.26017 4.94967 4.5
      vertex -9.70073 4.01818 14.51
      vertex -9.70073 4.01818 4.5
    endloop
  endfacet
  facet normal -0.941535 0.336916 0
    outer loop
      vertex 9.70073 -4.01818 4.5
      vertex 10.0479 -3.04799 14.51
      vertex 10.0479 -3.04799 4.5
    endloop
  endfacet
  facet normal -0.941535 0.336916 0
    outer loop
      vertex 10.0479 -3.04799 14.51
      vertex 9.70073 -4.01818 4.5
      vertex 9.70073 -4.01818 14.51
    endloop
  endfacet
  facet normal 0.671561 0.74095 -0
    outer loop
      vertex -6.66113 -8.11661 4.5
      vertex -7.42462 -7.42462 14.51
      vertex -6.66113 -8.11661 14.51
    endloop
  endfacet
  facet normal 0.671561 0.74095 0
    outer loop
      vertex -7.42462 -7.42462 14.51
      vertex -6.66113 -8.11661 4.5
      vertex -7.42462 -7.42462 4.5
    endloop
  endfacet
  facet normal 0.336916 0.941535 -0
    outer loop
      vertex -3.04799 -10.0479 4.5
      vertex -4.01818 -9.70073 14.51
      vertex -3.04799 -10.0479 14.51
    endloop
  endfacet
  facet normal 0.336916 0.941535 0
    outer loop
      vertex -4.01818 -9.70073 14.51
      vertex -3.04799 -10.0479 4.5
      vertex -4.01818 -9.70073 4.5
    endloop
  endfacet
  facet normal 0.049106 0.998794 -0
    outer loop
      vertex 0 -10.5 4.5
      vertex -1.02918 -10.4494 14.51
      vertex 0 -10.5 14.51
    endloop
  endfacet
  facet normal 0.049106 0.998794 0
    outer loop
      vertex -1.02918 -10.4494 14.51
      vertex 0 -10.5 4.5
      vertex -1.02918 -10.4494 4.5
    endloop
  endfacet
  facet normal 0.998794 -0.049106 0
    outer loop
      vertex -10.5 0 14.51
      vertex -10.4494 1.02918 4.5
      vertex -10.4494 1.02918 14.51
    endloop
  endfacet
  facet normal 0.998794 -0.049106 0
    outer loop
      vertex -10.4494 1.02918 4.5
      vertex -10.5 0 14.51
      vertex -10.5 0 4.5
    endloop
  endfacet
  facet normal -0.74095 0.671561 0
    outer loop
      vertex 7.42462 -7.42462 4.5
      vertex 8.11661 -6.66113 14.51
      vertex 8.11661 -6.66113 4.5
    endloop
  endfacet
  facet normal -0.74095 0.671561 0
    outer loop
      vertex 8.11661 -6.66113 14.51
      vertex 7.42462 -7.42462 4.5
      vertex 7.42462 -7.42462 14.51
    endloop
  endfacet
  facet normal 1 -0 0
    outer loop
      vertex -7.05 -7.05 16
      vertex -7.05 7.05 14.51
      vertex -7.05 7.05 16
    endloop
  endfacet
  facet normal 1 0 0
    outer loop
      vertex -7.05 7.05 14.51
      vertex -7.05 -7.05 16
      vertex -7.05 -7.05 14.51
    endloop
  endfacet
  facet normal 0 -1 0
    outer loop
      vertex -7.05 7.05 14.51
      vertex 7.05 7.05 16
      vertex -7.05 7.05 16
    endloop
  endfacet
  facet normal 0 -1 -0
    outer loop
      vertex 7.05 7.05 16
      vertex -7.05 7.05 14.51
      vertex 7.05 7.05 14.51
    endloop
  endfacet
  facet normal -1 0 0
    outer loop
      vertex 7.05 -7.05 14.51
      vertex 7.05 7.05 16
      vertex 7.05 7.05 14.51
    endloop
  endfacet
  facet normal -1 -0 0
    outer loop
      vertex 7.05 7.05 16
      vertex 7.05 -7.05 14.51
      vertex 7.05 -7.05 16
    endloop
  endfacet
  facet normal 0 1 -0
    outer loop
      vertex 7.05 -7.05 14.51
      vertex -7.05 -7.05 16
      vertex 7.05 -7.05 16
    endloop
  endfacet
  facet normal 0 1 0
    outer loop
      vertex -7.05 -7.05 16
      vertex 7.05 -7.05 14.51
      vertex -7.05 -7.05 14.51
    endloop
  endfacet
endsolid OpenSCAD_Model
