solid OpenSCAD_Model
  facet normal 0.0491626 -0.998791 0
    outer loop
      vertex 12.5 -16.5 0
      vertex 12.8921 -16.4807 16
      vertex 12.5 -16.5 16
    endloop
  endfacet
  facet normal 0.0491626 -0.998791 0
    outer loop
      vertex 12.8921 -16.4807 16
      vertex 12.5 -16.5 0
      vertex 12.8921 -16.4807 0
    endloop
  endfacet
  facet normal -0.9415 -0.337014 0
    outer loop
      vertex -16.1955 -14.0307 0
      vertex -16.3278 -13.6611 16
      vertex -16.3278 -13.6611 0
    endloop
  endfacet
  facet normal -0.9415 -0.337014 0
    outer loop
      vertex -16.3278 -13.6611 16
      vertex -16.1955 -14.0307 0
      vertex -16.1955 -14.0307 16
    endloop
  endfacet
  facet normal 0.740908 0.671607 0
    outer loop
      vertex 15.592 15.0376 16
      vertex 15.3284 15.3284 0
      vertex 15.3284 15.3284 16
    endloop
  endfacet
  facet normal 0.740908 0.671607 0
    outer loop
      vertex 15.3284 15.3284 0
      vertex 15.592 15.0376 16
      vertex 15.592 15.0376 0
    endloop
  endfacet
  facet normal -0.146733 -0.989176 0
    outer loop
      vertex -13.2804 -16.4231 0
      vertex -12.8921 -16.4807 16
      vertex -13.2804 -16.4231 16
    endloop
  endfacet
  facet normal -0.146733 -0.989176 -0
    outer loop
      vertex -12.8921 -16.4807 16
      vertex -13.2804 -16.4231 0
      vertex -12.8921 -16.4807 0
    endloop
  endfacet
  facet normal 0.242835 0.970068 -0
    outer loop
      vertex 13.6611 16.3278 0
      vertex 13.2804 16.4231 16
      vertex 13.6611 16.3278 16
    endloop
  endfacet
  facet normal 0.242835 0.970068 0
    outer loop
      vertex 13.2804 16.4231 16
      vertex 13.6611 16.3278 0
      vertex 13.2804 16.4231 0
    endloop
  endfacet
  facet normal -0.242835 -0.970068 0
    outer loop
      vertex -13.6611 -16.3278 0
      vertex -13.2804 -16.4231 16
      vertex -13.6611 -16.3278 16
    endloop
  endfacet
  facet normal -0.242835 -0.970068 -0
    outer loop
      vertex -13.2804 -16.4231 16
      vertex -13.6611 -16.3278 0
      vertex -13.2804 -16.4231 0
    endloop
  endfacet
  facet normal -0.671607 -0.740908 0
    outer loop
      vertex -15.3284 -15.3284 0
      vertex -15.0376 -15.592 16
      vertex -15.3284 -15.3284 16
    endloop
  endfacet
  facet normal -0.671607 -0.740908 -0
    outer loop
      vertex -15.0376 -15.592 16
      vertex -15.3284 -15.3284 0
      vertex -15.0376 -15.592 0
    endloop
  endfacet
  facet normal -0.998791 0.0491626 0
    outer loop
      vertex -16.5 12.5 0
      vertex -16.4807 12.8921 16
      vertex -16.4807 12.8921 0
    endloop
  endfacet
  facet normal -0.998791 0.0491626 0
    outer loop
      vertex -16.4807 12.8921 16
      vertex -16.5 12.5 0
      vertex -16.5 12.5 16
    endloop
  endfacet
  facet normal -0.0491626 -0.998791 0
    outer loop
      vertex -12.8921 -16.4807 0
      vertex -12.5 -16.5 16
      vertex -12.8921 -16.4807 16
    endloop
  endfacet
  facet normal -0.0491626 -0.998791 -0
    outer loop
      vertex -12.5 -16.5 16
      vertex -12.8921 -16.4807 0
      vertex -12.5 -16.5 0
    endloop
  endfacet
  facet normal -0.803137 -0.595794 0
    outer loop
      vertex -15.592 -15.0376 0
      vertex -15.8259 -14.7223 16
      vertex -15.8259 -14.7223 0
    endloop
  endfacet
  facet normal -0.803137 -0.595794 0
    outer loop
      vertex -15.8259 -14.7223 16
      vertex -15.592 -15.0376 0
      vertex -15.592 -15.0376 16
    endloop
  endfacet
  facet normal 0.970068 -0.242835 0
    outer loop
      vertex 16.3278 -13.6611 16
      vertex 16.4231 -13.2804 0
      vertex 16.4231 -13.2804 16
    endloop
  endfacet
  facet normal 0.970068 -0.242835 0
    outer loop
      vertex 16.4231 -13.2804 0
      vertex 16.3278 -13.6611 16
      vertex 16.3278 -13.6611 0
    endloop
  endfacet
  facet normal 0.803137 -0.595794 0
    outer loop
      vertex 15.592 -15.0376 16
      vertex 15.8259 -14.7223 0
      vertex 15.8259 -14.7223 16
    endloop
  endfacet
  facet normal 0.803137 -0.595794 0
    outer loop
      vertex 15.8259 -14.7223 0
      vertex 15.592 -15.0376 16
      vertex 15.592 -15.0376 0
    endloop
  endfacet
  facet normal -0.242835 0.970068 0
    outer loop
      vertex -13.2804 16.4231 0
      vertex -13.6611 16.3278 16
      vertex -13.2804 16.4231 16
    endloop
  endfacet
  facet normal -0.242835 0.970068 0
    outer loop
      vertex -13.6611 16.3278 16
      vertex -13.2804 16.4231 0
      vertex -13.6611 16.3278 0
    endloop
  endfacet
  facet normal 0 0 1
    outer loop
      vertex 12.5 16.5 16
      vertex 16.5 12.5 16
      vertex 16.4807 12.8921 16
    endloop
  endfacet
  facet normal 0 0 1
    outer loop
      vertex 16.5 12.5 16
      vertex 7.05 7.05 16
      vertex 16.5 -12.5 16
    endloop
  endfacet
  facet normal 0 0 1
    outer loop
      vertex 12.5 16.5 16
      vertex 16.4807 12.8921 16
      vertex 16.4231 13.2804 16
    endloop
  endfacet
  facet normal -0 0 1
    outer loop
      vertex 7.05 -7.05 16
      vertex 16.5 -12.5 16
      vertex 7.05 7.05 16
    endloop
  endfacet
  facet normal 0 0 1
    outer loop
      vertex 12.5 16.5 16
      vertex 16.4231 13.2804 16
      vertex 16.3278 13.6611 16
    endloop
  endfacet
  facet normal 0 -0 1
    outer loop
      vertex 12.5 -16.5 16
      vertex 16.5 -12.5 16
      vertex 7.05 -7.05 16
    endloop
  endfacet
  facet normal 0 0 1
    outer loop
      vertex 12.5 16.5 16
      vertex 16.3278 13.6611 16
      vertex 16.1955 14.0307 16
    endloop
  endfacet
  facet normal 0 0 1
    outer loop
      vertex 16.5 -12.5 16
      vertex 12.5 -16.5 16
      vertex 16.4807 -12.8921 16
    endloop
  endfacet
  facet normal 0 0 1
    outer loop
      vertex 12.5 16.5 16
      vertex 16.1955 14.0307 16
      vertex 16.0277 14.3856 16
    endloop
  endfacet
  facet normal 0 0 1
    outer loop
      vertex 16.4807 -12.8921 16
      vertex 12.5 -16.5 16
      vertex 16.4231 -13.2804 16
    endloop
  endfacet
  facet normal 0 0 1
    outer loop
      vertex 12.5 16.5 16
      vertex 16.0277 14.3856 16
      vertex 15.8259 14.7223 16
    endloop
  endfacet
  facet normal 0 0 1
    outer loop
      vertex 16.4231 -13.2804 16
      vertex 12.5 -16.5 16
      vertex 16.3278 -13.6611 16
    endloop
  endfacet
  facet normal 0 0 1
    outer loop
      vertex 12.5 16.5 16
      vertex 15.8259 14.7223 16
      vertex 15.592 15.0376 16
    endloop
  endfacet
  facet normal 0 0 1
    outer loop
      vertex 16.3278 -13.6611 16
      vertex 12.5 -16.5 16
      vertex 16.1955 -14.0307 16
    endloop
  endfacet
  facet normal 0 0 1
    outer loop
      vertex 12.5 16.5 16
      vertex 15.592 15.0376 16
      vertex 15.3284 15.3284 16
    endloop
  endfacet
  facet normal 0 0 1
    outer loop
      vertex 16.1955 -14.0307 16
      vertex 12.5 -16.5 16
      vertex 16.0277 -14.3856 16
    endloop
  endfacet
  facet normal 0 0 1
    outer loop
      vertex 12.5 16.5 16
      vertex 15.3284 15.3284 16
      vertex 15.0376 15.592 16
    endloop
  endfacet
  facet normal 0 0 1
    outer loop
      vertex 16.0277 -14.3856 16
      vertex 12.5 -16.5 16
      vertex 15.8259 -14.7223 16
    endloop
  endfacet
  facet normal 0 0 1
    outer loop
      vertex 12.5 16.5 16
      vertex 15.0376 15.592 16
      vertex 14.7223 15.8259 16
    endloop
  endfacet
  facet normal 0 0 1
    outer loop
      vertex 15.8259 -14.7223 16
      vertex 12.5 -16.5 16
      vertex 15.592 -15.0376 16
    endloop
  endfacet
  facet normal 0 0 1
    outer loop
      vertex 12.5 16.5 16
      vertex 14.7223 15.8259 16
      vertex 14.3856 16.0277 16
    endloop
  endfacet
  facet normal 0 0 1
    outer loop
      vertex 15.592 -15.0376 16
      vertex 12.5 -16.5 16
      vertex 15.3284 -15.3284 16
    endloop
  endfacet
  facet normal 0 0 1
    outer loop
      vertex 12.5 16.5 16
      vertex 14.3856 16.0277 16
      vertex 14.0307 16.1955 16
    endloop
  endfacet
  facet normal 0 0 1
    outer loop
      vertex 15.3284 -15.3284 16
      vertex 12.5 -16.5 16
      vertex 15.0376 -15.592 16
    endloop
  endfacet
  facet normal 0 0 1
    outer loop
      vertex 12.5 16.5 16
      vertex 14.0307 16.1955 16
      vertex 13.6611 16.3278 16
    endloop
  endfacet
  facet normal 0 0 1
    outer loop
      vertex 15.0376 -15.592 16
      vertex 12.5 -16.5 16
      vertex 14.7223 -15.8259 16
    endloop
  endfacet
  facet normal 0 0 1
    outer loop
      vertex 12.5 16.5 16
      vertex 13.6611 16.3278 16
      vertex 13.2804 16.4231 16
    endloop
  endfacet
  facet normal 0 0 1
    outer loop
      vertex 14.7223 -15.8259 16
      vertex 12.5 -16.5 16
      vertex 14.3856 -16.0277 16
    endloop
  endfacet
  facet normal 0 0 1
    outer loop
      vertex 12.5 16.5 16
      vertex 13.2804 16.4231 16
      vertex 12.8921 16.4807 16
    endloop
  endfacet
  facet normal 0 0 1
    outer loop
      vertex 14.3856 -16.0277 16
      vertex 12.5 -16.5 16
      vertex 14.0307 -16.1955 16
    endloop
  endfacet
  facet normal 0 0 1
    outer loop
      vertex 16.5 12.5 16
      vertex 12.5 16.5 16
      vertex 7.05 7.05 16
    endloop
  endfacet
  facet normal 0 0 1
    outer loop
      vertex 14.0307 -16.1955 16
      vertex 12.5 -16.5 16
      vertex 13.6611 -16.3278 16
    endloop
  endfacet
  facet normal 0 0 1
    outer loop
      vertex 13.6611 -16.3278 16
      vertex 12.5 -16.5 16
      vertex 13.2804 -16.4231 16
    endloop
  endfacet
  facet normal 0 0 1
    outer loop
      vertex 12.5 16.5 16
      vertex -7.05 7.05 16
      vertex 7.05 7.05 16
    endloop
  endfacet
  facet normal -0 0 1
    outer loop
      vertex -16.5 12.5 16
      vertex -7.05 7.05 16
      vertex -12.5 16.5 16
    endloop
  endfacet
  facet normal -0 0 1
    outer loop
      vertex -12.5 16.5 16
      vertex -7.05 7.05 16
      vertex 12.5 16.5 16
    endloop
  endfacet
  facet normal 0 0 1
    outer loop
      vertex 13.2804 -16.4231 16
      vertex 12.5 -16.5 16
      vertex 12.8921 -16.4807 16
    endloop
  endfacet
  facet normal -0 0 1
    outer loop
      vertex -7.05 -7.05 16
      vertex 12.5 -16.5 16
      vertex 7.05 -7.05 16
    endloop
  endfacet
  facet normal 0 0 1
    outer loop
      vertex -7.05 -7.05 16
      vertex -12.5 -16.5 16
      vertex 12.5 -16.5 16
    endloop
  endfacet
  facet normal 0 0 1
    outer loop
      vertex -7.05 7.05 16
      vertex -16.5 12.5 16
      vertex -7.05 -7.05 16
    endloop
  endfacet
  facet normal 0 0 1
    outer loop
      vertex -16.5 12.5 16
      vertex -12.5 16.5 16
      vertex -12.8921 16.4807 16
    endloop
  endfacet
  facet normal 0 0 1
    outer loop
      vertex -16.5 -12.5 16
      vertex -7.05 -7.05 16
      vertex -16.5 12.5 16
    endloop
  endfacet
  facet normal 0 0 1
    outer loop
      vertex -16.5 12.5 16
      vertex -12.8921 16.4807 16
      vertex -13.2804 16.4231 16
    endloop
  endfacet
  facet normal 0 0 1
    outer loop
      vertex -7.05 -7.05 16
      vertex -16.5 -12.5 16
      vertex -12.5 -16.5 16
    endloop
  endfacet
  facet normal 0 0 1
    outer loop
      vertex -16.5 12.5 16
      vertex -13.2804 16.4231 16
      vertex -13.6611 16.3278 16
    endloop
  endfacet
  facet normal 0 0 1
    outer loop
      vertex -12.5 -16.5 16
      vertex -16.5 -12.5 16
      vertex -12.8921 -16.4807 16
    endloop
  endfacet
  facet normal 0 0 1
    outer loop
      vertex -16.5 12.5 16
      vertex -13.6611 16.3278 16
      vertex -14.0307 16.1955 16
    endloop
  endfacet
  facet normal 0 0 1
    outer loop
      vertex -12.8921 -16.4807 16
      vertex -16.5 -12.5 16
      vertex -13.2804 -16.4231 16
    endloop
  endfacet
  facet normal 0 0 1
    outer loop
      vertex -16.5 12.5 16
      vertex -14.0307 16.1955 16
      vertex -14.3856 16.0277 16
    endloop
  endfacet
  facet normal 0 0 1
    outer loop
      vertex -13.2804 -16.4231 16
      vertex -16.5 -12.5 16
      vertex -13.6611 -16.3278 16
    endloop
  endfacet
  facet normal 0 0 1
    outer loop
      vertex -16.5 12.5 16
      vertex -14.3856 16.0277 16
      vertex -14.7223 15.8259 16
    endloop
  endfacet
  facet normal 0 0 1
    outer loop
      vertex -13.6611 -16.3278 16
      vertex -16.5 -12.5 16
      vertex -14.0307 -16.1955 16
    endloop
  endfacet
  facet normal 0 0 1
    outer loop
      vertex -16.5 12.5 16
      vertex -14.7223 15.8259 16
      vertex -15.0376 15.592 16
    endloop
  endfacet
  facet normal 0 0 1
    outer loop
      vertex -14.0307 -16.1955 16
      vertex -16.5 -12.5 16
      vertex -14.3856 -16.0277 16
    endloop
  endfacet
  facet normal 0 0 1
    outer loop
      vertex -16.5 12.5 16
      vertex -15.0376 15.592 16
      vertex -15.3284 15.3284 16
    endloop
  endfacet
  facet normal 0 0 1
    outer loop
      vertex -14.3856 -16.0277 16
      vertex -16.5 -12.5 16
      vertex -14.7223 -15.8259 16
    endloop
  endfacet
  facet normal 0 0 1
    outer loop
      vertex -16.5 12.5 16
      vertex -15.3284 15.3284 16
      vertex -15.592 15.0376 16
    endloop
  endfacet
  facet normal 0 0 1
    outer loop
      vertex -14.7223 -15.8259 16
      vertex -16.5 -12.5 16
      vertex -15.0376 -15.592 16
    endloop
  endfacet
  facet normal 0 0 1
    outer loop
      vertex -16.5 12.5 16
      vertex -15.592 15.0376 16
      vertex -15.8259 14.7223 16
    endloop
  endfacet
  facet normal 0 0 1
    outer loop
      vertex -15.0376 -15.592 16
      vertex -16.5 -12.5 16
      vertex -15.3284 -15.3284 16
    endloop
  endfacet
  facet normal 0 0 1
    outer loop
      vertex -16.5 12.5 16
      vertex -15.8259 14.7223 16
      vertex -16.0277 14.3856 16
    endloop
  endfacet
  facet normal 0 0 1
    outer loop
      vertex -15.3284 -15.3284 16
      vertex -16.5 -12.5 16
      vertex -15.592 -15.0376 16
    endloop
  endfacet
  facet normal 0 0 1
    outer loop
      vertex -16.5 12.5 16
      vertex -16.0277 14.3856 16
      vertex -16.1955 14.0307 16
    endloop
  endfacet
  facet normal 0 0 1
    outer loop
      vertex -15.592 -15.0376 16
      vertex -16.5 -12.5 16
      vertex -15.8259 -14.7223 16
    endloop
  endfacet
  facet normal 0 0 1
    outer loop
      vertex -16.5 12.5 16
      vertex -16.1955 14.0307 16
      vertex -16.3278 13.6611 16
    endloop
  endfacet
  facet normal 0 0 1
    outer loop
      vertex -15.8259 -14.7223 16
      vertex -16.5 -12.5 16
      vertex -16.0277 -14.3856 16
    endloop
  endfacet
  facet normal 0 0 1
    outer loop
      vertex -16.5 12.5 16
      vertex -16.3278 13.6611 16
      vertex -16.4231 13.2804 16
    endloop
  endfacet
  facet normal 0 0 1
    outer loop
      vertex -16.0277 -14.3856 16
      vertex -16.5 -12.5 16
      vertex -16.1955 -14.0307 16
    endloop
  endfacet
  facet normal 0 0 1
    outer loop
      vertex -16.5 12.5 16
      vertex -16.4231 13.2804 16
      vertex -16.4807 12.8921 16
    endloop
  endfacet
  facet normal 0 0 1
    outer loop
      vertex -16.1955 -14.0307 16
      vertex -16.5 -12.5 16
      vertex -16.3278 -13.6611 16
    endloop
  endfacet
  facet normal 0 0 1
    outer loop
      vertex -16.3278 -13.6611 16
      vertex -16.5 -12.5 16
      vertex -16.4231 -13.2804 16
    endloop
  endfacet
  facet normal 0 0 1
    outer loop
      vertex -16.4231 -13.2804 16
      vertex -16.5 -12.5 16
      vertex -16.4807 -12.8921 16
    endloop
  endfacet
  facet normal -0.146733 0.989176 0
    outer loop
      vertex -12.8921 16.4807 0
      vertex -13.2804 16.4231 16
      vertex -12.8921 16.4807 16
    endloop
  endfacet
  facet normal -0.146733 0.989176 0
    outer loop
      vertex -13.2804 16.4231 16
      vertex -12.8921 16.4807 0
      vertex -13.2804 16.4231 0
    endloop
  endfacet
  facet normal 0.671607 0.740908 -0
    outer loop
      vertex 15.3284 15.3284 0
      vertex 15.0376 15.592 16
      vertex 15.3284 15.3284 16
    endloop
  endfacet
  facet normal 0.671607 0.740908 0
    outer loop
      vertex 15.0376 15.592 16
      vertex 15.3284 15.3284 0
      vertex 15.0376 15.592 0
    endloop
  endfacet
  facet normal 0 1 -0
    outer loop
      vertex 12.5 16.5 0
      vertex -12.5 16.5 16
      vertex 12.5 16.5 16
    endloop
  endfacet
  facet normal 0 1 0
    outer loop
      vertex -12.5 16.5 16
      vertex 12.5 16.5 0
      vertex -12.5 16.5 0
    endloop
  endfacet
  facet normal 0.9415 0.337014 0
    outer loop
      vertex 16.3278 13.6611 16
      vertex 16.1955 14.0307 0
      vertex 16.1955 14.0307 16
    endloop
  endfacet
  facet normal 0.9415 0.337014 0
    outer loop
      vertex 16.1955 14.0307 0
      vertex 16.3278 13.6611 16
      vertex 16.3278 13.6611 0
    endloop
  endfacet
  facet normal 0.989176 0.146733 0
    outer loop
      vertex 16.4807 12.8921 16
      vertex 16.4231 13.2804 0
      vertex 16.4231 13.2804 16
    endloop
  endfacet
  facet normal 0.989176 0.146733 0
    outer loop
      vertex 16.4231 13.2804 0
      vertex 16.4807 12.8921 16
      vertex 16.4807 12.8921 0
    endloop
  endfacet
  facet normal -0.514084 -0.85774 0
    outer loop
      vertex -14.7223 -15.8259 0
      vertex -14.3856 -16.0277 16
      vertex -14.7223 -15.8259 16
    endloop
  endfacet
  facet normal -0.514084 -0.85774 -0
    outer loop
      vertex -14.3856 -16.0277 16
      vertex -14.7223 -15.8259 0
      vertex -14.3856 -16.0277 0
    endloop
  endfacet
  facet normal 0 -1 0
    outer loop
      vertex -12.5 -16.5 0
      vertex 12.5 -16.5 16
      vertex -12.5 -16.5 16
    endloop
  endfacet
  facet normal 0 -1 -0
    outer loop
      vertex 12.5 -16.5 16
      vertex -12.5 -16.5 0
      vertex 12.5 -16.5 0
    endloop
  endfacet
  facet normal 0.998791 0.0491626 0
    outer loop
      vertex 16.5 12.5 16
      vertex 16.4807 12.8921 0
      vertex 16.4807 12.8921 16
    endloop
  endfacet
  facet normal 0.998791 0.0491626 0
    outer loop
      vertex 16.4807 12.8921 0
      vertex 16.5 12.5 16
      vertex 16.5 12.5 0
    endloop
  endfacet
  facet normal -0.998791 -0.0491626 0
    outer loop
      vertex -16.4807 -12.8921 0
      vertex -16.5 -12.5 16
      vertex -16.5 -12.5 0
    endloop
  endfacet
  facet normal -0.998791 -0.0491626 0
    outer loop
      vertex -16.5 -12.5 16
      vertex -16.4807 -12.8921 0
      vertex -16.4807 -12.8921 16
    endloop
  endfacet
  facet normal -0.970068 0.242835 0
    outer loop
      vertex -16.4231 13.2804 0
      vertex -16.3278 13.6611 16
      vertex -16.3278 13.6611 0
    endloop
  endfacet
  facet normal -0.970068 0.242835 0
    outer loop
      vertex -16.3278 13.6611 16
      vertex -16.4231 13.2804 0
      vertex -16.4231 13.2804 16
    endloop
  endfacet
  facet normal 0.514084 0.85774 -0
    outer loop
      vertex 14.7223 15.8259 0
      vertex 14.3856 16.0277 16
      vertex 14.7223 15.8259 16
    endloop
  endfacet
  facet normal 0.514084 0.85774 0
    outer loop
      vertex 14.3856 16.0277 16
      vertex 14.7223 15.8259 0
      vertex 14.3856 16.0277 0
    endloop
  endfacet
  facet normal 0.514084 -0.85774 0
    outer loop
      vertex 14.3856 -16.0277 0
      vertex 14.7223 -15.8259 16
      vertex 14.3856 -16.0277 16
    endloop
  endfacet
  facet normal 0.514084 -0.85774 0
    outer loop
      vertex 14.7223 -15.8259 16
      vertex 14.3856 -16.0277 0
      vertex 14.7223 -15.8259 0
    endloop
  endfacet
  facet normal -0.337014 0.9415 0
    outer loop
      vertex -13.6611 16.3278 0
      vertex -14.0307 16.1955 16
      vertex -13.6611 16.3278 16
    endloop
  endfacet
  facet normal -0.337014 0.9415 0
    outer loop
      vertex -14.0307 16.1955 16
      vertex -13.6611 16.3278 0
      vertex -14.0307 16.1955 0
    endloop
  endfacet
  facet normal -1 0 0
    outer loop
      vertex -16.5 -12.5 0
      vertex -16.5 12.5 16
      vertex -16.5 12.5 0
    endloop
  endfacet
  facet normal -1 -0 0
    outer loop
      vertex -16.5 12.5 16
      vertex -16.5 -12.5 0
      vertex -16.5 -12.5 16
    endloop
  endfacet
  facet normal -0.740908 -0.671607 0
    outer loop
      vertex -15.3284 -15.3284 0
      vertex -15.592 -15.0376 16
      vertex -15.592 -15.0376 0
    endloop
  endfacet
  facet normal -0.740908 -0.671607 0
    outer loop
      vertex -15.592 -15.0376 16
      vertex -15.3284 -15.3284 0
      vertex -15.3284 -15.3284 16
    endloop
  endfacet
  facet normal -0.595794 -0.803137 0
    outer loop
      vertex -15.0376 -15.592 0
      vertex -14.7223 -15.8259 16
      vertex -15.0376 -15.592 16
    endloop
  endfacet
  facet normal -0.595794 -0.803137 -0
    outer loop
      vertex -14.7223 -15.8259 16
      vertex -15.0376 -15.592 0
      vertex -14.7223 -15.8259 0
    endloop
  endfacet
  facet normal 0.9415 -0.337014 0
    outer loop
      vertex 16.1955 -14.0307 16
      vertex 16.3278 -13.6611 0
      vertex 16.3278 -13.6611 16
    endloop
  endfacet
  facet normal 0.9415 -0.337014 0
    outer loop
      vertex 16.3278 -13.6611 0
      vertex 16.1955 -14.0307 16
      vertex 16.1955 -14.0307 0
    endloop
  endfacet
  facet normal 0.803137 0.595794 0
    outer loop
      vertex 15.8259 14.7223 16
      vertex 15.592 15.0376 0
      vertex 15.592 15.0376 16
    endloop
  endfacet
  facet normal 0.803137 0.595794 0
    outer loop
      vertex 15.592 15.0376 0
      vertex 15.8259 14.7223 16
      vertex 15.8259 14.7223 0
    endloop
  endfacet
  facet normal 0.0491626 0.998791 -0
    outer loop
      vertex 12.8921 16.4807 0
      vertex 12.5 16.5 16
      vertex 12.8921 16.4807 16
    endloop
  endfacet
  facet normal 0.0491626 0.998791 0
    outer loop
      vertex 12.5 16.5 16
      vertex 12.8921 16.4807 0
      vertex 12.5 16.5 0
    endloop
  endfacet
  facet normal -0.671607 0.740908 0
    outer loop
      vertex -15.0376 15.592 0
      vertex -15.3284 15.3284 16
      vertex -15.0376 15.592 16
    endloop
  endfacet
  facet normal -0.671607 0.740908 0
    outer loop
      vertex -15.3284 15.3284 16
      vertex -15.0376 15.592 0
      vertex -15.3284 15.3284 0
    endloop
  endfacet
  facet normal 0.970068 0.242835 0
    outer loop
      vertex 16.4231 13.2804 16
      vertex 16.3278 13.6611 0
      vertex 16.3278 13.6611 16
    endloop
  endfacet
  facet normal 0.970068 0.242835 0
    outer loop
      vertex 16.3278 13.6611 0
      vertex 16.4231 13.2804 16
      vertex 16.4231 13.2804 0
    endloop
  endfacet
  facet normal -0.0491626 0.998791 0
    outer loop
      vertex -12.5 16.5 0
      vertex -12.8921 16.4807 16
      vertex -12.5 16.5 16
    endloop
  endfacet
  facet normal -0.0491626 0.998791 0
    outer loop
      vertex -12.8921 16.4807 16
      vertex -12.5 16.5 0
      vertex -12.8921 16.4807 0
    endloop
  endfacet
  facet normal -0.989176 -0.146733 0
    outer loop
      vertex -16.4231 -13.2804 0
      vertex -16.4807 -12.8921 16
      vertex -16.4807 -12.8921 0
    endloop
  endfacet
  facet normal -0.989176 -0.146733 0
    outer loop
      vertex -16.4807 -12.8921 16
      vertex -16.4231 -13.2804 0
      vertex -16.4231 -13.2804 16
    endloop
  endfacet
  facet normal -0.904044 0.42744 0
    outer loop
      vertex -16.1955 14.0307 0
      vertex -16.0277 14.3856 16
      vertex -16.0277 14.3856 0
    endloop
  endfacet
  facet normal -0.904044 0.42744 0
    outer loop
      vertex -16.0277 14.3856 16
      vertex -16.1955 14.0307 0
      vertex -16.1955 14.0307 16
    endloop
  endfacet
  facet normal -0.803137 0.595794 0
    outer loop
      vertex -15.8259 14.7223 0
      vertex -15.592 15.0376 16
      vertex -15.592 15.0376 0
    endloop
  endfacet
  facet normal -0.803137 0.595794 0
    outer loop
      vertex -15.592 15.0376 16
      vertex -15.8259 14.7223 0
      vertex -15.8259 14.7223 16
    endloop
  endfacet
  facet normal -0.9415 0.337014 0
    outer loop
      vertex -16.3278 13.6611 0
      vertex -16.1955 14.0307 16
      vertex -16.1955 14.0307 0
    endloop
  endfacet
  facet normal -0.9415 0.337014 0
    outer loop
      vertex -16.1955 14.0307 16
      vertex -16.3278 13.6611 0
      vertex -16.3278 13.6611 16
    endloop
  endfacet
  facet normal 0 0 -1
    outer loop
      vertex 12.5 -16.5 0
      vertex 16.5 -12.5 0
      vertex 16.4807 -12.8921 0
    endloop
  endfacet
  facet normal -0 0 -1
    outer loop
      vertex 16.5 -12.5 0
      vertex 12.5 -16.5 0
      vertex 16.5 12.5 0
    endloop
  endfacet
  facet normal 0 0 -1
    outer loop
      vertex 12.5 -16.5 0
      vertex 16.4807 -12.8921 0
      vertex 16.4231 -13.2804 0
    endloop
  endfacet
  facet normal 0 0 -1
    outer loop
      vertex 12.5 16.5 0
      vertex 16.5 12.5 0
      vertex 12.5 -16.5 0
    endloop
  endfacet
  facet normal 0 0 -1
    outer loop
      vertex 12.5 -16.5 0
      vertex 16.4231 -13.2804 0
      vertex 16.3278 -13.6611 0
    endloop
  endfacet
  facet normal 0 0 -1
    outer loop
      vertex 16.5 12.5 0
      vertex 12.5 16.5 0
      vertex 16.4807 12.8921 0
    endloop
  endfacet
  facet normal 0 0 -1
    outer loop
      vertex 12.5 -16.5 0
      vertex 16.3278 -13.6611 0
      vertex 16.1955 -14.0307 0
    endloop
  endfacet
  facet normal 0 0 -1
    outer loop
      vertex 16.4807 12.8921 0
      vertex 12.5 16.5 0
      vertex 16.4231 13.2804 0
    endloop
  endfacet
  facet normal 0 0 -1
    outer loop
      vertex 12.5 -16.5 0
      vertex 16.1955 -14.0307 0
      vertex 16.0277 -14.3856 0
    endloop
  endfacet
  facet normal 0 0 -1
    outer loop
      vertex 16.4231 13.2804 0
      vertex 12.5 16.5 0
      vertex 16.3278 13.6611 0
    endloop
  endfacet
  facet normal 0 0 -1
    outer loop
      vertex 12.5 -16.5 0
      vertex 16.0277 -14.3856 0
      vertex 15.8259 -14.7223 0
    endloop
  endfacet
  facet normal 0 0 -1
    outer loop
      vertex 16.3278 13.6611 0
      vertex 12.5 16.5 0
      vertex 16.1955 14.0307 0
    endloop
  endfacet
  facet normal 0 0 -1
    outer loop
      vertex 12.5 -16.5 0
      vertex 15.8259 -14.7223 0
      vertex 15.592 -15.0376 0
    endloop
  endfacet
  facet normal 0 0 -1
    outer loop
      vertex 16.1955 14.0307 0
      vertex 12.5 16.5 0
      vertex 16.0277 14.3856 0
    endloop
  endfacet
  facet normal 0 0 -1
    outer loop
      vertex 12.5 -16.5 0
      vertex 15.592 -15.0376 0
      vertex 15.3284 -15.3284 0
    endloop
  endfacet
  facet normal 0 0 -1
    outer loop
      vertex 16.0277 14.3856 0
      vertex 12.5 16.5 0
      vertex 15.8259 14.7223 0
    endloop
  endfacet
  facet normal 0 0 -1
    outer loop
      vertex 12.5 -16.5 0
      vertex 15.3284 -15.3284 0
      vertex 15.0376 -15.592 0
    endloop
  endfacet
  facet normal 0 0 -1
    outer loop
      vertex 15.8259 14.7223 0
      vertex 12.5 16.5 0
      vertex 15.592 15.0376 0
    endloop
  endfacet
  facet normal 0 0 -1
    outer loop
      vertex 12.5 -16.5 0
      vertex 15.0376 -15.592 0
      vertex 14.7223 -15.8259 0
    endloop
  endfacet
  facet normal 0 0 -1
    outer loop
      vertex 15.592 15.0376 0
      vertex 12.5 16.5 0
      vertex 15.3284 15.3284 0
    endloop
  endfacet
  facet normal 0 0 -1
    outer loop
      vertex 12.5 -16.5 0
      vertex 14.7223 -15.8259 0
      vertex 14.3856 -16.0277 0
    endloop
  endfacet
  facet normal 0 0 -1
    outer loop
      vertex 15.3284 15.3284 0
      vertex 12.5 16.5 0
      vertex 15.0376 15.592 0
    endloop
  endfacet
  facet normal 0 0 -1
    outer loop
      vertex 12.5 -16.5 0
      vertex 14.3856 -16.0277 0
      vertex 14.0307 -16.1955 0
    endloop
  endfacet
  facet normal 0 0 -1
    outer loop
      vertex 15.0376 15.592 0
      vertex 12.5 16.5 0
      vertex 14.7223 15.8259 0
    endloop
  endfacet
  facet normal 0 0 -1
    outer loop
      vertex 12.5 -16.5 0
      vertex 14.0307 -16.1955 0
      vertex 13.6611 -16.3278 0
    endloop
  endfacet
  facet normal 0 0 -1
    outer loop
      vertex 14.7223 15.8259 0
      vertex 12.5 16.5 0
      vertex 14.3856 16.0277 0
    endloop
  endfacet
  facet normal 0 0 -1
    outer loop
      vertex 12.5 -16.5 0
      vertex 13.6611 -16.3278 0
      vertex 13.2804 -16.4231 0
    endloop
  endfacet
  facet normal 0 0 -1
    outer loop
      vertex 14.3856 16.0277 0
      vertex 12.5 16.5 0
      vertex 14.0307 16.1955 0
    endloop
  endfacet
  facet normal 0 0 -1
    outer loop
      vertex 12.5 -16.5 0
      vertex 13.2804 -16.4231 0
      vertex 12.8921 -16.4807 0
    endloop
  endfacet
  facet normal 0 0 -1
    outer loop
      vertex 14.0307 16.1955 0
      vertex 12.5 16.5 0
      vertex 13.6611 16.3278 0
    endloop
  endfacet
  facet normal 0 0 -1
    outer loop
      vertex 13.6611 16.3278 0
      vertex 12.5 16.5 0
      vertex 13.2804 16.4231 0
    endloop
  endfacet
  facet normal 0 0 -1
    outer loop
      vertex 13.2804 16.4231 0
      vertex 12.5 16.5 0
      vertex 12.8921 16.4807 0
    endloop
  endfacet
  facet normal 0 0 -1
    outer loop
      vertex -12.5 -16.5 0
      vertex 12.5 16.5 0
      vertex 12.5 -16.5 0
    endloop
  endfacet
  facet normal 0 0 -1
    outer loop
      vertex -12.5 -16.5 0
      vertex -12.5 16.5 0
      vertex 12.5 16.5 0
    endloop
  endfacet
  facet normal 0 0 -1
    outer loop
      vertex -16.5 -12.5 0
      vertex -12.5 -16.5 0
      vertex -12.8921 -16.4807 0
    endloop
  endfacet
  facet normal 0 0 -1
    outer loop
      vertex -12.5 -16.5 0
      vertex -16.5 -12.5 0
      vertex -12.5 16.5 0
    endloop
  endfacet
  facet normal 0 0 -1
    outer loop
      vertex -16.5 -12.5 0
      vertex -12.8921 -16.4807 0
      vertex -13.2804 -16.4231 0
    endloop
  endfacet
  facet normal 0 0 -1
    outer loop
      vertex -16.5 12.5 0
      vertex -12.5 16.5 0
      vertex -16.5 -12.5 0
    endloop
  endfacet
  facet normal 0 0 -1
    outer loop
      vertex -16.5 -12.5 0
      vertex -13.2804 -16.4231 0
      vertex -13.6611 -16.3278 0
    endloop
  endfacet
  facet normal 0 0 -1
    outer loop
      vertex -12.5 16.5 0
      vertex -16.5 12.5 0
      vertex -12.8921 16.4807 0
    endloop
  endfacet
  facet normal 0 0 -1
    outer loop
      vertex -16.5 -12.5 0
      vertex -13.6611 -16.3278 0
      vertex -14.0307 -16.1955 0
    endloop
  endfacet
  facet normal 0 0 -1
    outer loop
      vertex -12.8921 16.4807 0
      vertex -16.5 12.5 0
      vertex -13.2804 16.4231 0
    endloop
  endfacet
  facet normal 0 0 -1
    outer loop
      vertex -16.5 -12.5 0
      vertex -14.0307 -16.1955 0
      vertex -14.3856 -16.0277 0
    endloop
  endfacet
  facet normal 0 0 -1
    outer loop
      vertex -13.2804 16.4231 0
      vertex -16.5 12.5 0
      vertex -13.6611 16.3278 0
    endloop
  endfacet
  facet normal 0 0 -1
    outer loop
      vertex -16.5 -12.5 0
      vertex -14.3856 -16.0277 0
      vertex -14.7223 -15.8259 0
    endloop
  endfacet
  facet normal 0 0 -1
    outer loop
      vertex -13.6611 16.3278 0
      vertex -16.5 12.5 0
      vertex -14.0307 16.1955 0
    endloop
  endfacet
  facet normal 0 0 -1
    outer loop
      vertex -16.5 -12.5 0
      vertex -14.7223 -15.8259 0
      vertex -15.0376 -15.592 0
    endloop
  endfacet
  facet normal 0 0 -1
    outer loop
      vertex -14.0307 16.1955 0
      vertex -16.5 12.5 0
      vertex -14.3856 16.0277 0
    endloop
  endfacet
  facet normal 0 0 -1
    outer loop
      vertex -16.5 -12.5 0
      vertex -15.0376 -15.592 0
      vertex -15.3284 -15.3284 0
    endloop
  endfacet
  facet normal 0 0 -1
    outer loop
      vertex -14.3856 16.0277 0
      vertex -16.5 12.5 0
      vertex -14.7223 15.8259 0
    endloop
  endfacet
  facet normal 0 0 -1
    outer loop
      vertex -16.5 -12.5 0
      vertex -15.3284 -15.3284 0
      vertex -15.592 -15.0376 0
    endloop
  endfacet
  facet normal 0 0 -1
    outer loop
      vertex -14.7223 15.8259 0
      vertex -16.5 12.5 0
      vertex -15.0376 15.592 0
    endloop
  endfacet
  facet normal 0 0 -1
    outer loop
      vertex -16.5 -12.5 0
      vertex -15.592 -15.0376 0
      vertex -15.8259 -14.7223 0
    endloop
  endfacet
  facet normal 0 0 -1
    outer loop
      vertex -15.0376 15.592 0
      vertex -16.5 12.5 0
      vertex -15.3284 15.3284 0
    endloop
  endfacet
  facet normal 0 0 -1
    outer loop
      vertex -16.5 -12.5 0
      vertex -15.8259 -14.7223 0
      vertex -16.0277 -14.3856 0
    endloop
  endfacet
  facet normal 0 0 -1
    outer loop
      vertex -15.3284 15.3284 0
      vertex -16.5 12.5 0
      vertex -15.592 15.0376 0
    endloop
  endfacet
  facet normal 0 0 -1
    outer loop
      vertex -16.5 -12.5 0
      vertex -16.0277 -14.3856 0
      vertex -16.1955 -14.0307 0
    endloop
  endfacet
  facet normal 0 0 -1
    outer loop
      vertex -15.592 15.0376 0
      vertex -16.5 12.5 0
      vertex -15.8259 14.7223 0
    endloop
  endfacet
  facet normal 0 0 -1
    outer loop
      vertex -16.5 -12.5 0
      vertex -16.1955 -14.0307 0
      vertex -16.3278 -13.6611 0
    endloop
  endfacet
  facet normal 0 0 -1
    outer loop
      vertex -15.8259 14.7223 0
      vertex -16.5 12.5 0
      vertex -16.0277 14.3856 0
    endloop
  endfacet
  facet normal 0 0 -1
    outer loop
      vertex -16.5 -12.5 0
      vertex -16.3278 -13.6611 0
      vertex -16.4231 -13.2804 0
    endloop
  endfacet
  facet normal 0 0 -1
    outer loop
      vertex -16.0277 14.3856 0
      vertex -16.5 12.5 0
      vertex -16.1955 14.0307 0
    endloop
  endfacet
  facet normal 0 0 -1
    outer loop
      vertex -16.5 -12.5 0
      vertex -16.4231 -13.2804 0
      vertex -16.4807 -12.8921 0
    endloop
  endfacet
  facet normal 0 0 -1
    outer loop
      vertex -16.1955 14.0307 0
      vertex -16.5 12.5 0
      vertex -16.3278 13.6611 0
    endloop
  endfacet
  facet normal 0 0 -1
    outer loop
      vertex -16.3278 13.6611 0
      vertex -16.5 12.5 0
      vertex -16.4231 13.2804 0
    endloop
  endfacet
  facet normal 0 0 -1
    outer loop
      vertex -16.4231 13.2804 0
      vertex -16.5 12.5 0
      vertex -16.4807 12.8921 0
    endloop
  endfacet
  facet normal 1 -0 0
    outer loop
      vertex 16.5 -12.5 16
      vertex 16.5 12.5 0
      vertex 16.5 12.5 16
    endloop
  endfacet
  facet normal 1 0 0
    outer loop
      vertex 16.5 12.5 0
      vertex 16.5 -12.5 16
      vertex 16.5 -12.5 0
    endloop
  endfacet
  facet normal -0.42744 -0.904044 0
    outer loop
      vertex -14.3856 -16.0277 0
      vertex -14.0307 -16.1955 16
      vertex -14.3856 -16.0277 16
    endloop
  endfacet
  facet normal -0.42744 -0.904044 -0
    outer loop
      vertex -14.0307 -16.1955 16
      vertex -14.3856 -16.0277 0
      vertex -14.0307 -16.1955 0
    endloop
  endfacet
  facet normal -0.337014 -0.9415 0
    outer loop
      vertex -14.0307 -16.1955 0
      vertex -13.6611 -16.3278 16
      vertex -14.0307 -16.1955 16
    endloop
  endfacet
  facet normal -0.337014 -0.9415 -0
    outer loop
      vertex -13.6611 -16.3278 16
      vertex -14.0307 -16.1955 0
      vertex -13.6611 -16.3278 0
    endloop
  endfacet
  facet normal 0.904044 -0.42744 0
    outer loop
      vertex 16.0277 -14.3856 16
      vertex 16.1955 -14.0307 0
      vertex 16.1955 -14.0307 16
    endloop
  endfacet
  facet normal 0.904044 -0.42744 0
    outer loop
      vertex 16.1955 -14.0307 0
      vertex 16.0277 -14.3856 16
      vertex 16.0277 -14.3856 0
    endloop
  endfacet
  facet normal 0.595794 0.803137 -0
    outer loop
      vertex 15.0376 15.592 0
      vertex 14.7223 15.8259 16
      vertex 15.0376 15.592 16
    endloop
  endfacet
  facet normal 0.595794 0.803137 0
    outer loop
      vertex 14.7223 15.8259 16
      vertex 15.0376 15.592 0
      vertex 14.7223 15.8259 0
    endloop
  endfacet
  facet normal 0.671607 -0.740908 0
    outer loop
      vertex 15.0376 -15.592 0
      vertex 15.3284 -15.3284 16
      vertex 15.0376 -15.592 16
    endloop
  endfacet
  facet normal 0.671607 -0.740908 0
    outer loop
      vertex 15.3284 -15.3284 16
      vertex 15.0376 -15.592 0
      vertex 15.3284 -15.3284 0
    endloop
  endfacet
  facet normal -0.904044 -0.42744 0
    outer loop
      vertex -16.0277 -14.3856 0
      vertex -16.1955 -14.0307 16
      vertex -16.1955 -14.0307 0
    endloop
  endfacet
  facet normal -0.904044 -0.42744 0
    outer loop
      vertex -16.1955 -14.0307 16
      vertex -16.0277 -14.3856 0
      vertex -16.0277 -14.3856 16
    endloop
  endfacet
  facet normal 0.242835 -0.970068 0
    outer loop
      vertex 13.2804 -16.4231 0
      vertex 13.6611 -16.3278 16
      vertex 13.2804 -16.4231 16
    endloop
  endfacet
  facet normal 0.242835 -0.970068 0
    outer loop
      vertex 13.6611 -16.3278 16
      vertex 13.2804 -16.4231 0
      vertex 13.6611 -16.3278 0
    endloop
  endfacet
  facet normal -0.989176 0.146733 0
    outer loop
      vertex -16.4807 12.8921 0
      vertex -16.4231 13.2804 16
      vertex -16.4231 13.2804 0
    endloop
  endfacet
  facet normal -0.989176 0.146733 0
    outer loop
      vertex -16.4231 13.2804 16
      vertex -16.4807 12.8921 0
      vertex -16.4807 12.8921 16
    endloop
  endfacet
  facet normal 0.740908 -0.671607 0
    outer loop
      vertex 15.3284 -15.3284 16
      vertex 15.592 -15.0376 0
      vertex 15.592 -15.0376 16
    endloop
  endfacet
  facet normal 0.740908 -0.671607 0
    outer loop
      vertex 15.592 -15.0376 0
      vertex 15.3284 -15.3284 16
      vertex 15.3284 -15.3284 0
    endloop
  endfacet
  facet normal -0.514084 0.85774 0
    outer loop
      vertex -14.3856 16.0277 0
      vertex -14.7223 15.8259 16
      vertex -14.3856 16.0277 16
    endloop
  endfacet
  facet normal -0.514084 0.85774 0
    outer loop
      vertex -14.7223 15.8259 16
      vertex -14.3856 16.0277 0
      vertex -14.7223 15.8259 0
    endloop
  endfacet
  facet normal 0.146733 0.989176 -0
    outer loop
      vertex 13.2804 16.4231 0
      vertex 12.8921 16.4807 16
      vertex 13.2804 16.4231 16
    endloop
  endfacet
  facet normal 0.146733 0.989176 0
    outer loop
      vertex 12.8921 16.4807 16
      vertex 13.2804 16.4231 0
      vertex 12.8921 16.4807 0
    endloop
  endfacet
  facet normal 0.85774 -0.514084 0
    outer loop
      vertex 15.8259 -14.7223 16
      vertex 16.0277 -14.3856 0
      vertex 16.0277 -14.3856 16
    endloop
  endfacet
  facet normal 0.85774 -0.514084 0
    outer loop
      vertex 16.0277 -14.3856 0
      vertex 15.8259 -14.7223 16
      vertex 15.8259 -14.7223 0
    endloop
  endfacet
  facet normal 0.998791 -0.0491626 0
    outer loop
      vertex 16.4807 -12.8921 16
      vertex 16.5 -12.5 0
      vertex 16.5 -12.5 16
    endloop
  endfacet
  facet normal 0.998791 -0.0491626 0
    outer loop
      vertex 16.5 -12.5 0
      vertex 16.4807 -12.8921 16
      vertex 16.4807 -12.8921 0
    endloop
  endfacet
  facet normal -0.595794 0.803137 0
    outer loop
      vertex -14.7223 15.8259 0
      vertex -15.0376 15.592 16
      vertex -14.7223 15.8259 16
    endloop
  endfacet
  facet normal -0.595794 0.803137 0
    outer loop
      vertex -15.0376 15.592 16
      vertex -14.7223 15.8259 0
      vertex -15.0376 15.592 0
    endloop
  endfacet
  facet normal -0.85774 0.514084 0
    outer loop
      vertex -16.0277 14.3856 0
      vertex -15.8259 14.7223 16
      vertex -15.8259 14.7223 0
    endloop
  endfacet
  facet normal -0.85774 0.514084 0
    outer loop
      vertex -15.8259 14.7223 16
      vertex -16.0277 14.3856 0
      vertex -16.0277 14.3856 16
    endloop
  endfacet
  facet normal -0.970068 -0.242835 0
    outer loop
      vertex -16.3278 -13.6611 0
      vertex -16.4231 -13.2804 16
      vertex -16.4231 -13.2804 0
    endloop
  endfacet
  facet normal -0.970068 -0.242835 0
    outer loop
      vertex -16.4231 -13.2804 16
      vertex -16.3278 -13.6611 0
      vertex -16.3278 -13.6611 16
    endloop
  endfacet
  facet normal 0.337014 -0.9415 0
    outer loop
      vertex 13.6611 -16.3278 0
      vertex 14.0307 -16.1955 16
      vertex 13.6611 -16.3278 16
    endloop
  endfacet
  facet normal 0.337014 -0.9415 0
    outer loop
      vertex 14.0307 -16.1955 16
      vertex 13.6611 -16.3278 0
      vertex 14.0307 -16.1955 0
    endloop
  endfacet
  facet normal -0.740908 0.671607 0
    outer loop
      vertex -15.592 15.0376 0
      vertex -15.3284 15.3284 16
      vertex -15.3284 15.3284 0
    endloop
  endfacet
  facet normal -0.740908 0.671607 0
    outer loop
      vertex -15.3284 15.3284 16
      vertex -15.592 15.0376 0
      vertex -15.592 15.0376 16
    endloop
  endfacet
  facet normal 0.337014 0.9415 -0
    outer loop
      vertex 14.0307 16.1955 0
      vertex 13.6611 16.3278 16
      vertex 14.0307 16.1955 16
    endloop
  endfacet
  facet normal 0.337014 0.9415 0
    outer loop
      vertex 13.6611 16.3278 16
      vertex 14.0307 16.1955 0
      vertex 13.6611 16.3278 0
    endloop
  endfacet
  facet normal 0.85774 0.514084 0
    outer loop
      vertex 16.0277 14.3856 16
      vertex 15.8259 14.7223 0
      vertex 15.8259 14.7223 16
    endloop
  endfacet
  facet normal 0.85774 0.514084 0
    outer loop
      vertex 15.8259 14.7223 0
      vertex 16.0277 14.3856 16
      vertex 16.0277 14.3856 0
    endloop
  endfacet
  facet normal 0.989176 -0.146733 0
    outer loop
      vertex 16.4231 -13.2804 16
      vertex 16.4807 -12.8921 0
      vertex 16.4807 -12.8921 16
    endloop
  endfacet
  facet normal 0.989176 -0.146733 0
    outer loop
      vertex 16.4807 -12.8921 0
      vertex 16.4231 -13.2804 16
      vertex 16.4231 -13.2804 0
    endloop
  endfacet
  facet normal 0.904044 0.42744 0
    outer loop
      vertex 16.1955 14.0307 16
      vertex 16.0277 14.3856 0
      vertex 16.0277 14.3856 16
    endloop
  endfacet
  facet normal 0.904044 0.42744 0
    outer loop
      vertex 16.0277 14.3856 0
      vertex 16.1955 14.0307 16
      vertex 16.1955 14.0307 0
    endloop
  endfacet
  facet normal -0.85774 -0.514084 0
    outer loop
      vertex -15.8259 -14.7223 0
      vertex -16.0277 -14.3856 16
      vertex -16.0277 -14.3856 0
    endloop
  endfacet
  facet normal -0.85774 -0.514084 0
    outer loop
      vertex -16.0277 -14.3856 16
      vertex -15.8259 -14.7223 0
      vertex -15.8259 -14.7223 16
    endloop
  endfacet
  facet normal 0.146733 -0.989176 0
    outer loop
      vertex 12.8921 -16.4807 0
      vertex 13.2804 -16.4231 16
      vertex 12.8921 -16.4807 16
    endloop
  endfacet
  facet normal 0.146733 -0.989176 0
    outer loop
      vertex 13.2804 -16.4231 16
      vertex 12.8921 -16.4807 0
      vertex 13.2804 -16.4231 0
    endloop
  endfacet
  facet normal 0.42744 -0.904044 0
    outer loop
      vertex 14.0307 -16.1955 0
      vertex 14.3856 -16.0277 16
      vertex 14.0307 -16.1955 16
    endloop
  endfacet
  facet normal 0.42744 -0.904044 0
    outer loop
      vertex 14.3856 -16.0277 16
      vertex 14.0307 -16.1955 0
      vertex 14.3856 -16.0277 0
    endloop
  endfacet
  facet normal 0.42744 0.904044 -0
    outer loop
      vertex 14.3856 16.0277 0
      vertex 14.0307 16.1955 16
      vertex 14.3856 16.0277 16
    endloop
  endfacet
  facet normal 0.42744 0.904044 0
    outer loop
      vertex 14.0307 16.1955 16
      vertex 14.3856 16.0277 0
      vertex 14.0307 16.1955 0
    endloop
  endfacet
  facet normal -0.42744 0.904044 0
    outer loop
      vertex -14.0307 16.1955 0
      vertex -14.3856 16.0277 16
      vertex -14.0307 16.1955 16
    endloop
  endfacet
  facet normal -0.42744 0.904044 0
    outer loop
      vertex -14.3856 16.0277 16
      vertex -14.0307 16.1955 0
      vertex -14.3856 16.0277 0
    endloop
  endfacet
  facet normal 0.595794 -0.803137 0
    outer loop
      vertex 14.7223 -15.8259 0
      vertex 15.0376 -15.592 16
      vertex 14.7223 -15.8259 16
    endloop
  endfacet
  facet normal 0.595794 -0.803137 0
    outer loop
      vertex 15.0376 -15.592 16
      vertex 14.7223 -15.8259 0
      vertex 15.0376 -15.592 0
    endloop
  endfacet
  facet normal -0.989176 -0.146736 0
    outer loop
      vertex 10.4494 1.02918 4.5
      vertex 10.2982 2.04845 14.51
      vertex 10.2982 2.04845 4.5
    endloop
  endfacet
  facet normal -0.989176 -0.146736 0
    outer loop
      vertex 10.2982 2.04845 14.51
      vertex 10.4494 1.02918 4.5
      vertex 10.4494 1.02918 14.51
    endloop
  endfacet
  facet normal -0.998794 -0.049106 0
    outer loop
      vertex 10.5 0 4.5
      vertex 10.4494 1.02918 14.51
      vertex 10.4494 1.02918 4.5
    endloop
  endfacet
  facet normal -0.998794 -0.049106 0
    outer loop
      vertex 10.4494 1.02918 14.51
      vertex 10.5 0 4.5
      vertex 10.5 0 14.51
    endloop
  endfacet
  facet normal -0.970048 -0.242915 0
    outer loop
      vertex 10.2982 2.04845 4.5
      vertex 10.0479 3.04799 14.51
      vertex 10.0479 3.04799 4.5
    endloop
  endfacet
  facet normal -0.970048 -0.242915 0
    outer loop
      vertex 10.0479 3.04799 14.51
      vertex 10.2982 2.04845 4.5
      vertex 10.2982 2.04845 14.51
    endloop
  endfacet
  facet normal -0.336916 0.941535 0
    outer loop
      vertex 4.01818 -9.70073 4.5
      vertex 3.04799 -10.0479 14.51
      vertex 4.01818 -9.70073 14.51
    endloop
  endfacet
  facet normal -0.336916 0.941535 0
    outer loop
      vertex 3.04799 -10.0479 14.51
      vertex 4.01818 -9.70073 4.5
      vertex 3.04799 -10.0479 4.5
    endloop
  endfacet
  facet normal -0.671561 -0.74095 0
    outer loop
      vertex 6.66113 8.11661 4.5
      vertex 7.42462 7.42462 14.51
      vertex 6.66113 8.11661 14.51
    endloop
  endfacet
  facet normal -0.671561 -0.74095 -0
    outer loop
      vertex 7.42462 7.42462 14.51
      vertex 6.66113 8.11661 4.5
      vertex 7.42462 7.42462 4.5
    endloop
  endfacet
  facet normal -0.941535 -0.336916 0
    outer loop
      vertex 10.0479 3.04799 4.5
      vertex 9.70073 4.01818 14.51
      vertex 9.70073 4.01818 4.5
    endloop
  endfacet
  facet normal -0.941535 -0.336916 0
    outer loop
      vertex 9.70073 4.01818 14.51
      vertex 10.0479 3.04799 4.5
      vertex 10.0479 3.04799 14.51
    endloop
  endfacet
  facet normal -0.74095 -0.671561 0
    outer loop
      vertex 8.11661 6.66113 4.5
      vertex 7.42462 7.42462 14.51
      vertex 7.42462 7.42462 4.5
    endloop
  endfacet
  facet normal -0.74095 -0.671561 0
    outer loop
      vertex 7.42462 7.42462 14.51
      vertex 8.11661 6.66113 4.5
      vertex 8.11661 6.66113 14.51
    endloop
  endfacet
  facet normal -0.514102 0.857729 0
    outer loop
      vertex 5.83349 -8.73043 4.5
      vertex 4.94967 -9.26017 14.51
      vertex 5.83349 -8.73043 14.51
    endloop
  endfacet
  facet normal -0.514102 0.857729 0
    outer loop
      vertex 4.94967 -9.26017 14.51
      vertex 5.83349 -8.73043 4.5
      vertex 4.94967 -9.26017 4.5
    endloop
  endfacet
  facet normal 0.427554 -0.90399 0
    outer loop
      vertex -4.94967 9.26017 4.5
      vertex -4.01818 9.70073 14.51
      vertex -4.94967 9.26017 14.51
    endloop
  endfacet
  facet normal 0.427554 -0.90399 0
    outer loop
      vertex -4.01818 9.70073 14.51
      vertex -4.94967 9.26017 4.5
      vertex -4.01818 9.70073 4.5
    endloop
  endfacet
  facet normal -0.989176 0.146736 0
    outer loop
      vertex 10.2982 -2.04845 4.5
      vertex 10.4494 -1.02918 14.51
      vertex 10.4494 -1.02918 4.5
    endloop
  endfacet
  facet normal -0.989176 0.146736 0
    outer loop
      vertex 10.4494 -1.02918 14.51
      vertex 10.2982 -2.04845 4.5
      vertex 10.2982 -2.04845 14.51
    endloop
  endfacet
  facet normal -0.242915 0.970048 0
    outer loop
      vertex 3.04799 -10.0479 4.5
      vertex 2.04845 -10.2982 14.51
      vertex 3.04799 -10.0479 14.51
    endloop
  endfacet
  facet normal -0.242915 0.970048 0
    outer loop
      vertex 2.04845 -10.2982 14.51
      vertex 3.04799 -10.0479 4.5
      vertex 2.04845 -10.2982 4.5
    endloop
  endfacet
  facet normal 0.242915 -0.970048 0
    outer loop
      vertex -3.04799 10.0479 4.5
      vertex -2.04845 10.2982 14.51
      vertex -3.04799 10.0479 14.51
    endloop
  endfacet
  facet normal 0.242915 -0.970048 0
    outer loop
      vertex -2.04845 10.2982 14.51
      vertex -3.04799 10.0479 4.5
      vertex -2.04845 10.2982 4.5
    endloop
  endfacet
  facet normal 0.941535 0.336916 0
    outer loop
      vertex -9.70073 -4.01818 14.51
      vertex -10.0479 -3.04799 4.5
      vertex -10.0479 -3.04799 14.51
    endloop
  endfacet
  facet normal 0.941535 0.336916 0
    outer loop
      vertex -10.0479 -3.04799 4.5
      vertex -9.70073 -4.01818 14.51
      vertex -9.70073 -4.01818 4.5
    endloop
  endfacet
  facet normal -0.803207 0.5957 0
    outer loop
      vertex 8.11661 -6.66113 4.5
      vertex 8.73043 -5.83349 14.51
      vertex 8.73043 -5.83349 4.5
    endloop
  endfacet
  facet normal -0.803207 0.5957 0
    outer loop
      vertex 8.73043 -5.83349 14.51
      vertex 8.11661 -6.66113 4.5
      vertex 8.11661 -6.66113 14.51
    endloop
  endfacet
  facet normal 0.514102 -0.857729 0
    outer loop
      vertex -5.83349 8.73043 4.5
      vertex -4.94967 9.26017 14.51
      vertex -5.83349 8.73043 14.51
    endloop
  endfacet
  facet normal 0.514102 -0.857729 0
    outer loop
      vertex -4.94967 9.26017 14.51
      vertex -5.83349 8.73043 4.5
      vertex -4.94967 9.26017 4.5
    endloop
  endfacet
  facet normal 0.146736 0.989176 -0
    outer loop
      vertex -1.02918 -10.4494 4.5
      vertex -2.04845 -10.2982 14.51
      vertex -1.02918 -10.4494 14.51
    endloop
  endfacet
  facet normal 0.146736 0.989176 0
    outer loop
      vertex -2.04845 -10.2982 14.51
      vertex -1.02918 -10.4494 4.5
      vertex -2.04845 -10.2982 4.5
    endloop
  endfacet
  facet normal -0.5957 0.803207 0
    outer loop
      vertex 6.66113 -8.11661 4.5
      vertex 5.83349 -8.73043 14.51
      vertex 6.66113 -8.11661 14.51
    endloop
  endfacet
  facet normal -0.5957 0.803207 0
    outer loop
      vertex 5.83349 -8.73043 14.51
      vertex 6.66113 -8.11661 4.5
      vertex 5.83349 -8.73043 4.5
    endloop
  endfacet
  facet normal 0.242915 0.970048 -0
    outer loop
      vertex -2.04845 -10.2982 4.5
      vertex -3.04799 -10.0479 14.51
      vertex -2.04845 -10.2982 14.51
    endloop
  endfacet
  facet normal 0.242915 0.970048 0
    outer loop
      vertex -3.04799 -10.0479 14.51
      vertex -2.04845 -10.2982 4.5
      vertex -3.04799 -10.0479 4.5
    endloop
  endfacet
  facet normal -0.90399 0.427554 0
    outer loop
      vertex 9.26017 -4.94967 4.5
      vertex 9.70073 -4.01818 14.51
      vertex 9.70073 -4.01818 4.5
    endloop
  endfacet
  facet normal -0.90399 0.427554 0
    outer loop
      vertex 9.70073 -4.01818 14.51
      vertex 9.26017 -4.94967 4.5
      vertex 9.26017 -4.94967 14.51
    endloop
  endfacet
  facet normal -0.514102 -0.857729 0
    outer loop
      vertex 4.94967 9.26017 4.5
      vertex 5.83349 8.73043 14.51
      vertex 4.94967 9.26017 14.51
    endloop
  endfacet
  facet normal -0.514102 -0.857729 -0
    outer loop
      vertex 5.83349 8.73043 14.51
      vertex 4.94967 9.26017 4.5
      vertex 5.83349 8.73043 4.5
    endloop
  endfacet
  facet normal 0.857729 0.514102 0
    outer loop
      vertex -8.73043 -5.83349 14.51
      vertex -9.26017 -4.94967 4.5
      vertex -9.26017 -4.94967 14.51
    endloop
  endfacet
  facet normal 0.857729 0.514102 0
    outer loop
      vertex -9.26017 -4.94967 4.5
      vertex -8.73043 -5.83349 14.51
      vertex -8.73043 -5.83349 4.5
    endloop
  endfacet
  facet normal -0.970048 0.242915 0
    outer loop
      vertex 10.0479 -3.04799 4.5
      vertex 10.2982 -2.04845 14.51
      vertex 10.2982 -2.04845 4.5
    endloop
  endfacet
  facet normal -0.970048 0.242915 0
    outer loop
      vertex 10.2982 -2.04845 14.51
      vertex 10.0479 -3.04799 4.5
      vertex 10.0479 -3.04799 14.51
    endloop
  endfacet
  facet normal 0.857729 -0.514102 0
    outer loop
      vertex -9.26017 4.94967 14.51
      vertex -8.73043 5.83349 4.5
      vertex -8.73043 5.83349 14.51
    endloop
  endfacet
  facet normal 0.857729 -0.514102 0
    outer loop
      vertex -8.73043 5.83349 4.5
      vertex -9.26017 4.94967 14.51
      vertex -9.26017 4.94967 4.5
    endloop
  endfacet
  facet normal 0 0 1
    outer loop
      vertex 10.4494 1.02918 4.5
      vertex 10.4494 -1.02918 4.5
      vertex 10.5 0 4.5
    endloop
  endfacet
  facet normal 0 0 1
    outer loop
      vertex 10.2982 2.04845 4.5
      vertex 10.4494 -1.02918 4.5
      vertex 10.4494 1.02918 4.5
    endloop
  endfacet
  facet normal 0 0 1
    outer loop
      vertex 10.2982 2.04845 4.5
      vertex 10.2982 -2.04845 4.5
      vertex 10.4494 -1.02918 4.5
    endloop
  endfacet
  facet normal 0 0 1
    outer loop
      vertex 10.0479 3.04799 4.5
      vertex 10.2982 -2.04845 4.5
      vertex 10.2982 2.04845 4.5
    endloop
  endfacet
  facet normal 0 0 1
    outer loop
      vertex 10.0479 3.04799 4.5
      vertex 10.0479 -3.04799 4.5
      vertex 10.2982 -2.04845 4.5
    endloop
  endfacet
  facet normal 0 0 1
    outer loop
      vertex 9.70073 4.01818 4.5
      vertex 10.0479 -3.04799 4.5
      vertex 10.0479 3.04799 4.5
    endloop
  endfacet
  facet normal 0 0 1
    outer loop
      vertex 9.70073 4.01818 4.5
      vertex 9.70073 -4.01818 4.5
      vertex 10.0479 -3.04799 4.5
    endloop
  endfacet
  facet normal 0 0 1
    outer loop
      vertex 9.26017 4.94967 4.5
      vertex 9.70073 -4.01818 4.5
      vertex 9.70073 4.01818 4.5
    endloop
  endfacet
  facet normal 0 0 1
    outer loop
      vertex 9.26017 4.94967 4.5
      vertex 9.26017 -4.94967 4.5
      vertex 9.70073 -4.01818 4.5
    endloop
  endfacet
  facet normal 0 0 1
    outer loop
      vertex 8.73043 5.83349 4.5
      vertex 9.26017 -4.94967 4.5
      vertex 9.26017 4.94967 4.5
    endloop
  endfacet
  facet normal 0 0 1
    outer loop
      vertex 8.73043 5.83349 4.5
      vertex 8.73043 -5.83349 4.5
      vertex 9.26017 -4.94967 4.5
    endloop
  endfacet
  facet normal 0 0 1
    outer loop
      vertex 8.11661 6.66113 4.5
      vertex 8.73043 -5.83349 4.5
      vertex 8.73043 5.83349 4.5
    endloop
  endfacet
  facet normal 0 0 1
    outer loop
      vertex 8.11661 6.66113 4.5
      vertex 8.11661 -6.66113 4.5
      vertex 8.73043 -5.83349 4.5
    endloop
  endfacet
  facet normal 0 0 1
    outer loop
      vertex 7.42462 7.42462 4.5
      vertex 8.11661 -6.66113 4.5
      vertex 8.11661 6.66113 4.5
    endloop
  endfacet
  facet normal 0 0 1
    outer loop
      vertex 7.42462 7.42462 4.5
      vertex 7.42462 -7.42462 4.5
      vertex 8.11661 -6.66113 4.5
    endloop
  endfacet
  facet normal 0 0 1
    outer loop
      vertex 6.66113 8.11661 4.5
      vertex 7.42462 -7.42462 4.5
      vertex 7.42462 7.42462 4.5
    endloop
  endfacet
  facet normal 0 0 1
    outer loop
      vertex 6.66113 8.11661 4.5
      vertex 6.66113 -8.11661 4.5
      vertex 7.42462 -7.42462 4.5
    endloop
  endfacet
  facet normal 0 0 1
    outer loop
      vertex 5.83349 8.73043 4.5
      vertex 6.66113 -8.11661 4.5
      vertex 6.66113 8.11661 4.5
    endloop
  endfacet
  facet normal 0 0 1
    outer loop
      vertex 5.83349 8.73043 4.5
      vertex 5.83349 -8.73043 4.5
      vertex 6.66113 -8.11661 4.5
    endloop
  endfacet
  facet normal 0 0 1
    outer loop
      vertex 4.94967 9.26017 4.5
      vertex 5.83349 -8.73043 4.5
      vertex 5.83349 8.73043 4.5
    endloop
  endfacet
  facet normal 0 0 1
    outer loop
      vertex 4.94967 9.26017 4.5
      vertex 4.94967 -9.26017 4.5
      vertex 5.83349 -8.73043 4.5
    endloop
  endfacet
  facet normal 0 0 1
    outer loop
      vertex 4.01818 9.70073 4.5
      vertex 4.94967 -9.26017 4.5
      vertex 4.94967 9.26017 4.5
    endloop
  endfacet
  facet normal 0 0 1
    outer loop
      vertex 4.01818 9.70073 4.5
      vertex 4.01818 -9.70073 4.5
      vertex 4.94967 -9.26017 4.5
    endloop
  endfacet
  facet normal 0 0 1
    outer loop
      vertex 3.04799 10.0479 4.5
      vertex 4.01818 -9.70073 4.5
      vertex 4.01818 9.70073 4.5
    endloop
  endfacet
  facet normal 0 0 1
    outer loop
      vertex 3.04799 10.0479 4.5
      vertex 3.04799 -10.0479 4.5
      vertex 4.01818 -9.70073 4.5
    endloop
  endfacet
  facet normal 0 0 1
    outer loop
      vertex 2.04845 10.2982 4.5
      vertex 3.04799 -10.0479 4.5
      vertex 3.04799 10.0479 4.5
    endloop
  endfacet
  facet normal 0 0 1
    outer loop
      vertex 2.04845 10.2982 4.5
      vertex 2.04845 -10.2982 4.5
      vertex 3.04799 -10.0479 4.5
    endloop
  endfacet
  facet normal 0 0 1
    outer loop
      vertex 1.02918 10.4494 4.5
      vertex 2.04845 -10.2982 4.5
      vertex 2.04845 10.2982 4.5
    endloop
  endfacet
  facet normal 0 0 1
    outer loop
      vertex 1.02918 10.4494 4.5
      vertex 1.02918 -10.4494 4.5
      vertex 2.04845 -10.2982 4.5
    endloop
  endfacet
  facet normal 0 0 1
    outer loop
      vertex 0 10.5 4.5
      vertex 1.02918 -10.4494 4.5
      vertex 1.02918 10.4494 4.5
    endloop
  endfacet
  facet normal 0 0 1
    outer loop
      vertex 0 10.5 4.5
      vertex 0 -10.5 4.5
      vertex 1.02918 -10.4494 4.5
    endloop
  endfacet
  facet normal -0 0 1
    outer loop
      vertex -1.02918 10.4494 4.5
      vertex 0 -10.5 4.5
      vertex 0 10.5 4.5
    endloop
  endfacet
  facet normal 0 0 1
    outer loop
      vertex -1.02918 10.4494 4.5
      vertex -1.02918 -10.4494 4.5
      vertex 0 -10.5 4.5
    endloop
  endfacet
  facet normal -0 0 1
    outer loop
      vertex -2.04845 10.2982 4.5
      vertex -1.02918 -10.4494 4.5
      vertex -1.02918 10.4494 4.5
    endloop
  endfacet
  facet normal 0 0 1
    outer loop
      vertex -2.04845 10.2982 4.5
      vertex -2.04845 -10.2982 4.5
      vertex -1.02918 -10.4494 4.5
    endloop
  endfacet
  facet normal -0 0 1
    outer loop
      vertex -3.04799 10.0479 4.5
      vertex -2.04845 -10.2982 4.5
      vertex -2.04845 10.2982 4.5
    endloop
  endfacet
  facet normal 0 0 1
    outer loop
      vertex -3.04799 10.0479 4.5
      vertex -3.04799 -10.0479 4.5
      vertex -2.04845 -10.2982 4.5
    endloop
  endfacet
  facet normal -0 0 1
    outer loop
      vertex -4.01818 9.70073 4.5
      vertex -3.04799 -10.0479 4.5
      vertex -3.04799 10.0479 4.5
    endloop
  endfacet
  facet normal 0 0 1
    outer loop
      vertex -4.01818 9.70073 4.5
      vertex -4.01818 -9.70073 4.5
      vertex -3.04799 -10.0479 4.5
    endloop
  endfacet
  facet normal -0 0 1
    outer loop
      vertex -4.94967 9.26017 4.5
      vertex -4.01818 -9.70073 4.5
      vertex -4.01818 9.70073 4.5
    endloop
  endfacet
  facet normal 0 0 1
    outer loop
      vertex -4.94967 9.26017 4.5
      vertex -4.94967 -9.26017 4.5
      vertex -4.01818 -9.70073 4.5
    endloop
  endfacet
  facet normal -0 0 1
    outer loop
      vertex -5.83349 8.73043 4.5
      vertex -4.94967 -9.26017 4.5
      vertex -4.94967 9.26017 4.5
    endloop
  endfacet
  facet normal 0 0 1
    outer loop
      vertex -5.83349 8.73043 4.5
      vertex -5.83349 -8.73043 4.5
      vertex -4.94967 -9.26017 4.5
    endloop
  endfacet
  facet normal -0 0 1
    outer loop
      vertex -6.66113 8.11661 4.5
      vertex -5.83349 -8.73043 4.5
      vertex -5.83349 8.73043 4.5
    endloop
  endfacet
  facet normal 0 0 1
    outer loop
      vertex -6.66113 8.11661 4.5
      vertex -6.66113 -8.11661 4.5
      vertex -5.83349 -8.73043 4.5
    endloop
  endfacet
  facet normal -0 0 1
    outer loop
      vertex -7.42462 7.42462 4.5
      vertex -6.66113 -8.11661 4.5
      vertex -6.66113 8.11661 4.5
    endloop
  endfacet
  facet normal 0 0 1
    outer loop
      vertex -7.42462 7.42462 4.5
      vertex -7.42462 -7.42462 4.5
      vertex -6.66113 -8.11661 4.5
    endloop
  endfacet
  facet normal -0 0 1
    outer loop
      vertex -8.11661 6.66113 4.5
      vertex -7.42462 -7.42462 4.5
      vertex -7.42462 7.42462 4.5
    endloop
  endfacet
  facet normal 0 0 1
    outer loop
      vertex -8.11661 6.66113 4.5
      vertex -8.11661 -6.66113 4.5
      vertex -7.42462 -7.42462 4.5
    endloop
  endfacet
  facet normal -0 0 1
    outer loop
      vertex -8.73043 5.83349 4.5
      vertex -8.11661 -6.66113 4.5
      vertex -8.11661 6.66113 4.5
    endloop
  endfacet
  facet normal 0 0 1
    outer loop
      vertex -8.73043 5.83349 4.5
      vertex -8.73043 -5.83349 4.5
      vertex -8.11661 -6.66113 4.5
    endloop
  endfacet
  facet normal -0 0 1
    outer loop
      vertex -9.26017 4.94967 4.5
      vertex -8.73043 -5.83349 4.5
      vertex -8.73043 5.83349 4.5
    endloop
  endfacet
  facet normal 0 0 1
    outer loop
      vertex -9.26017 4.94967 4.5
      vertex -9.26017 -4.94967 4.5
      vertex -8.73043 -5.83349 4.5
    endloop
  endfacet
  facet normal -0 0 1
    outer loop
      vertex -9.70073 4.01818 4.5
      vertex -9.26017 -4.94967 4.5
      vertex -9.26017 4.94967 4.5
    endloop
  endfacet
  facet normal 0 0 1
    outer loop
      vertex -9.70073 4.01818 4.5
      vertex -9.70073 -4.01818 4.5
      vertex -9.26017 -4.94967 4.5
    endloop
  endfacet
  facet normal -0 0 1
    outer loop
      vertex -10.0479 3.04799 4.5
      vertex -9.70073 -4.01818 4.5
      vertex -9.70073 4.01818 4.5
    endloop
  endfacet
  facet normal 0 0 1
    outer loop
      vertex -10.0479 3.04799 4.5
      vertex -10.0479 -3.04799 4.5
      vertex -9.70073 -4.01818 4.5
    endloop
  endfacet
  facet normal -0 0 1
    outer loop
      vertex -10.2982 2.04845 4.5
      vertex -10.0479 -3.04799 4.5
      vertex -10.0479 3.04799 4.5
    endloop
  endfacet
  facet normal 0 0 1
    outer loop
      vertex -10.2982 2.04845 4.5
      vertex -10.2982 -2.04845 4.5
      vertex -10.0479 -3.04799 4.5
    endloop
  endfacet
  facet normal -0 0 1
    outer loop
      vertex -10.4494 1.02918 4.5
      vertex -10.2982 -2.04845 4.5
      vertex -10.2982 2.04845 4.5
    endloop
  endfacet
  facet normal 0 0 1
    outer loop
      vertex -10.4494 1.02918 4.5
      vertex -10.4494 -1.02918 4.5
      vertex -10.2982 -2.04845 4.5
    endloop
  endfacet
  facet normal 0 -0 1
    outer loop
      vertex -10.4494 -1.02918 4.5
      vertex -10.4494 1.02918 4.5
      vertex -10.5 0 4.5
    endloop
  endfacet
  facet normal 0.5957 -0.803207 0
    outer loop
      vertex -6.66113 8.11661 4.5
      vertex -5.83349 8.73043 14.51
      vertex -6.66113 8.11661 14.51
    endloop
  endfacet
  facet normal 0.5957 -0.803207 0
    outer loop
      vertex -5.83349 8.73043 14.51
      vertex -6.66113 8.11661 4.5
      vertex -5.83349 8.73043 4.5
    endloop
  endfacet
  facet normal 0.803207 0.5957 0
    outer loop
      vertex -8.11661 -6.66113 14.51
      vertex -8.73043 -5.83349 4.5
      vertex -8.73043 -5.83349 14.51
    endloop
  endfacet
  facet normal 0.803207 0.5957 0
    outer loop
      vertex -8.73043 -5.83349 4.5
      vertex -8.11661 -6.66113 14.51
      vertex -8.11661 -6.66113 4.5
    endloop
  endfacet
  facet normal -0.427554 -0.90399 0
    outer loop
      vertex 4.01818 9.70073 4.5
      vertex 4.94967 9.26017 14.51
      vertex 4.01818 9.70073 14.51
    endloop
  endfacet
  facet normal -0.427554 -0.90399 -0
    outer loop
      vertex 4.94967 9.26017 14.51
      vertex 4.01818 9.70073 4.5
      vertex 4.94967 9.26017 4.5
    endloop
  endfacet
  facet normal -0.146736 0.989176 0
    outer loop
      vertex 2.04845 -10.2982 4.5
      vertex 1.02918 -10.4494 14.51
      vertex 2.04845 -10.2982 14.51
    endloop
  endfacet
  facet normal -0.146736 0.989176 0
    outer loop
      vertex 1.02918 -10.4494 14.51
      vertex 2.04845 -10.2982 4.5
      vertex 1.02918 -10.4494 4.5
    endloop
  endfacet
  facet normal 0.146736 -0.989176 0
    outer loop
      vertex -2.04845 10.2982 4.5
      vertex -1.02918 10.4494 14.51
      vertex -2.04845 10.2982 14.51
    endloop
  endfacet
  facet normal 0.146736 -0.989176 0
    outer loop
      vertex -1.02918 10.4494 14.51
      vertex -2.04845 10.2982 4.5
      vertex -1.02918 10.4494 4.5
    endloop
  endfacet
  facet normal 0.90399 0.427554 0
    outer loop
      vertex -9.26017 -4.94967 14.51
      vertex -9.70073 -4.01818 4.5
      vertex -9.70073 -4.01818 14.51
    endloop
  endfacet
  facet normal 0.90399 0.427554 0
    outer loop
      vertex -9.70073 -4.01818 4.5
      vertex -9.26017 -4.94967 14.51
      vertex -9.26017 -4.94967 4.5
    endloop
  endfacet
  facet normal -0.998794 0.049106 0
    outer loop
      vertex 10.4494 -1.02918 4.5
      vertex 10.5 0 14.51
      vertex 10.5 0 4.5
    endloop
  endfacet
  facet normal -0.998794 0.049106 0
    outer loop
      vertex 10.5 0 14.51
      vertex 10.4494 -1.02918 4.5
      vertex 10.4494 -1.02918 14.51
    endloop
  endfacet
  facet normal -0.242915 -0.970048 0
    outer loop
      vertex 2.04845 10.2982 4.5
      vertex 3.04799 10.0479 14.51
      vertex 2.04845 10.2982 14.51
    endloop
  endfacet
  facet normal -0.242915 -0.970048 -0
    outer loop
      vertex 3.04799 10.0479 14.51
      vertex 2.04845 10.2982 4.5
      vertex 3.04799 10.0479 4.5
    endloop
  endfacet
  facet normal 0.5957 0.803207 -0
    outer loop
      vertex -5.83349 -8.73043 4.5
      vertex -6.66113 -8.11661 14.51
      vertex -5.83349 -8.73043 14.51
    endloop
  endfacet
  facet normal 0.5957 0.803207 0
    outer loop
      vertex -6.66113 -8.11661 14.51
      vertex -5.83349 -8.73043 4.5
      vertex -6.66113 -8.11661 4.5
    endloop
  endfacet
  facet normal 0.74095 -0.671561 0
    outer loop
      vertex -8.11661 6.66113 14.51
      vertex -7.42462 7.42462 4.5
      vertex -7.42462 7.42462 14.51
    endloop
  endfacet
  facet normal 0.74095 -0.671561 0
    outer loop
      vertex -7.42462 7.42462 4.5
      vertex -8.11661 6.66113 14.51
      vertex -8.11661 6.66113 4.5
    endloop
  endfacet
  facet normal -0.857729 0.514102 0
    outer loop
      vertex 8.73043 -5.83349 4.5
      vertex 9.26017 -4.94967 14.51
      vertex 9.26017 -4.94967 4.5
    endloop
  endfacet
  facet normal -0.857729 0.514102 0
    outer loop
      vertex 9.26017 -4.94967 14.51
      vertex 8.73043 -5.83349 4.5
      vertex 8.73043 -5.83349 14.51
    endloop
  endfacet
  facet normal -0.5957 -0.803207 0
    outer loop
      vertex 5.83349 8.73043 4.5
      vertex 6.66113 8.11661 14.51
      vertex 5.83349 8.73043 14.51
    endloop
  endfacet
  facet normal -0.5957 -0.803207 -0
    outer loop
      vertex 6.66113 8.11661 14.51
      vertex 5.83349 8.73043 4.5
      vertex 6.66113 8.11661 4.5
    endloop
  endfacet
  facet normal -0.941535 0.336916 0
    outer loop
      vertex 9.70073 -4.01818 4.5
      vertex 10.0479 -3.04799 14.51
      vertex 10.0479 -3.04799 4.5
    endloop
  endfacet
  facet normal -0.941535 0.336916 0
    outer loop
      vertex 10.0479 -3.04799 14.51
      vertex 9.70073 -4.01818 4.5
      vertex 9.70073 -4.01818 14.51
    endloop
  endfacet
  facet normal -0.336916 -0.941535 0
    outer loop
      vertex 3.04799 10.0479 4.5
      vertex 4.01818 9.70073 14.51
      vertex 3.04799 10.0479 14.51
    endloop
  endfacet
  facet normal -0.336916 -0.941535 -0
    outer loop
      vertex 4.01818 9.70073 14.51
      vertex 3.04799 10.0479 4.5
      vertex 4.01818 9.70073 4.5
    endloop
  endfacet
  facet normal -0.803207 -0.5957 0
    outer loop
      vertex 8.73043 5.83349 4.5
      vertex 8.11661 6.66113 14.51
      vertex 8.11661 6.66113 4.5
    endloop
  endfacet
  facet normal -0.803207 -0.5957 0
    outer loop
      vertex 8.11661 6.66113 14.51
      vertex 8.73043 5.83349 4.5
      vertex 8.73043 5.83349 14.51
    endloop
  endfacet
  facet normal -0.857729 -0.514102 0
    outer loop
      vertex 9.26017 4.94967 4.5
      vertex 8.73043 5.83349 14.51
      vertex 8.73043 5.83349 4.5
    endloop
  endfacet
  facet normal -0.857729 -0.514102 0
    outer loop
      vertex 8.73043 5.83349 14.51
      vertex 9.26017 4.94967 4.5
      vertex 9.26017 4.94967 14.51
    endloop
  endfacet
  facet normal 0.427554 0.90399 -0
    outer loop
      vertex -4.01818 -9.70073 4.5
      vertex -4.94967 -9.26017 14.51
      vertex -4.01818 -9.70073 14.51
    endloop
  endfacet
  facet normal 0.427554 0.90399 0
    outer loop
      vertex -4.94967 -9.26017 14.51
      vertex -4.01818 -9.70073 4.5
      vertex -4.94967 -9.26017 4.5
    endloop
  endfacet
  facet normal 0.970048 0.242915 0
    outer loop
      vertex -10.0479 -3.04799 14.51
      vertex -10.2982 -2.04845 4.5
      vertex -10.2982 -2.04845 14.51
    endloop
  endfacet
  facet normal 0.970048 0.242915 0
    outer loop
      vertex -10.2982 -2.04845 4.5
      vertex -10.0479 -3.04799 14.51
      vertex -10.0479 -3.04799 4.5
    endloop
  endfacet
  facet normal -0.90399 -0.427554 0
    outer loop
      vertex 9.70073 4.01818 4.5
      vertex 9.26017 4.94967 14.51
      vertex 9.26017 4.94967 4.5
    endloop
  endfacet
  facet normal -0.90399 -0.427554 0
    outer loop
      vertex 9.26017 4.94967 14.51
      vertex 9.70073 4.01818 4.5
      vertex 9.70073 4.01818 14.51
    endloop
  endfacet
  facet normal 0.514102 0.857729 -0
    outer loop
      vertex -4.94967 -9.26017 4.5
      vertex -5.83349 -8.73043 14.51
      vertex -4.94967 -9.26017 14.51
    endloop
  endfacet
  facet normal 0.514102 0.857729 0
    outer loop
      vertex -5.83349 -8.73043 14.51
      vertex -4.94967 -9.26017 4.5
      vertex -5.83349 -8.73043 4.5
    endloop
  endfacet
  facet normal 0 0 -1
    outer loop
      vertex 7.05 -7.05 14.51
      vertex 10.5 0 14.51
      vertex 10.4494 -1.02918 14.51
    endloop
  endfacet
  facet normal 0 0 -1
    outer loop
      vertex 7.05 -7.05 14.51
      vertex 10.4494 -1.02918 14.51
      vertex 10.2982 -2.04845 14.51
    endloop
  endfacet
  facet normal -0 0 -1
    outer loop
      vertex 10.5 0 14.51
      vertex 7.05 -7.05 14.51
      vertex 10.4494 1.02918 14.51
    endloop
  endfacet
  facet normal 0 0 -1
    outer loop
      vertex 7.05 -7.05 14.51
      vertex 10.2982 -2.04845 14.51
      vertex 10.0479 -3.04799 14.51
    endloop
  endfacet
  facet normal 0 0 -1
    outer loop
      vertex 7.05 7.05 14.51
      vertex 10.4494 1.02918 14.51
      vertex 7.05 -7.05 14.51
    endloop
  endfacet
  facet normal 0 0 -1
    outer loop
      vertex 7.05 -7.05 14.51
      vertex 10.0479 -3.04799 14.51
      vertex 9.70073 -4.01818 14.51
    endloop
  endfacet
  facet normal 0 0 -1
    outer loop
      vertex 10.4494 1.02918 14.51
      vertex 7.05 7.05 14.51
      vertex 10.2982 2.04845 14.51
    endloop
  endfacet
  facet normal 0 0 -1
    outer loop
      vertex 7.05 -7.05 14.51
      vertex 9.70073 -4.01818 14.51
      vertex 9.26017 -4.94967 14.51
    endloop
  endfacet
  facet normal 0 0 -1
    outer loop
      vertex 10.2982 2.04845 14.51
      vertex 7.05 7.05 14.51
      vertex 10.0479 3.04799 14.51
    endloop
  endfacet
  facet normal 0 0 -1
    outer loop
      vertex 7.05 -7.05 14.51
      vertex 9.26017 -4.94967 14.51
      vertex 8.73043 -5.83349 14.51
    endloop
  endfacet
  facet normal 0 0 -1
    outer loop
      vertex 10.0479 3.04799 14.51
      vertex 7.05 7.05 14.51
      vertex 9.70073 4.01818 14.51
    endloop
  endfacet
  facet normal 0 0 -1
    outer loop
      vertex 7.05 -7.05 14.51
      vertex 8.73043 -5.83349 14.51
      vertex 8.11661 -6.66113 14.51
    endloop
  endfacet
  facet normal 0 0 -1
    outer loop
      vertex 9.70073 4.01818 14.51
      vertex 7.05 7.05 14.51
      vertex 9.26017 4.94967 14.51
    endloop
  endfacet
  facet normal 0 0 -1
    outer loop
      vertex 7.05 -7.05 14.51
      vertex 8.11661 -6.66113 14.51
      vertex 7.42462 -7.42462 14.51
    endloop
  endfacet
  facet normal 0 0 -1
    outer loop
      vertex 9.26017 4.94967 14.51
      vertex 7.05 7.05 14.51
      vertex 8.73043 5.83349 14.51
    endloop
  endfacet
  facet normal 0 0 -1
    outer loop
      vertex 8.73043 5.83349 14.51
      vertex 7.05 7.05 14.51
      vertex 8.11661 6.66113 14.51
    endloop
  endfacet
  facet normal 0 0 -1
    outer loop
      vertex 6.66113 -8.11661 14.51
      vertex 7.05 -7.05 14.51
      vertex 7.42462 -7.42462 14.51
    endloop
  endfacet
  facet normal 0 0 -1
    outer loop
      vertex 5.83349 -8.73043 14.51
      vertex 7.05 -7.05 14.51
      vertex 6.66113 -8.11661 14.51
    endloop
  endfacet
  facet normal 0 0 -1
    outer loop
      vertex 4.94967 -9.26017 14.51
      vertex 7.05 -7.05 14.51
      vertex 5.83349 -8.73043 14.51
    endloop
  endfacet
  facet normal 0 0 -1
    outer loop
      vertex 4.01818 -9.70073 14.51
      vertex 7.05 -7.05 14.51
      vertex 4.94967 -9.26017 14.51
    endloop
  endfacet
  facet normal 0 0 -1
    outer loop
      vertex 3.04799 -10.0479 14.51
      vertex 7.05 -7.05 14.51
      vertex 4.01818 -9.70073 14.51
    endloop
  endfacet
  facet normal 0 0 -1
    outer loop
      vertex 2.04845 -10.2982 14.51
      vertex 7.05 -7.05 14.51
      vertex 3.04799 -10.0479 14.51
    endloop
  endfacet
  facet normal 0 0 -1
    outer loop
      vertex 1.02918 -10.4494 14.51
      vertex 7.05 -7.05 14.51
      vertex 2.04845 -10.2982 14.51
    endloop
  endfacet
  facet normal 0 0 -1
    outer loop
      vertex 0 -10.5 14.51
      vertex 7.05 -7.05 14.51
      vertex 1.02918 -10.4494 14.51
    endloop
  endfacet
  facet normal 0 0 -1
    outer loop
      vertex -1.02918 -10.4494 14.51
      vertex 7.05 -7.05 14.51
      vertex 0 -10.5 14.51
    endloop
  endfacet
  facet normal 0 0 -1
    outer loop
      vertex -7.05 -7.05 14.51
      vertex -1.02918 -10.4494 14.51
      vertex -2.04845 -10.2982 14.51
    endloop
  endfacet
  facet normal 0 0 -1
    outer loop
      vertex -7.05 -7.05 14.51
      vertex -2.04845 -10.2982 14.51
      vertex -3.04799 -10.0479 14.51
    endloop
  endfacet
  facet normal 0 0 -1
    outer loop
      vertex -7.05 -7.05 14.51
      vertex -3.04799 -10.0479 14.51
      vertex -4.01818 -9.70073 14.51
    endloop
  endfacet
  facet normal 0 0 -1
    outer loop
      vertex -7.05 -7.05 14.51
      vertex -4.01818 -9.70073 14.51
      vertex -4.94967 -9.26017 14.51
    endloop
  endfacet
  facet normal 0 0 -1
    outer loop
      vertex -7.05 -7.05 14.51
      vertex -4.94967 -9.26017 14.51
      vertex -5.83349 -8.73043 14.51
    endloop
  endfacet
  facet normal 0 0 -1
    outer loop
      vertex -7.05 -7.05 14.51
      vertex -5.83349 -8.73043 14.51
      vertex -6.66113 -8.11661 14.51
    endloop
  endfacet
  facet normal 0 0 -1
    outer loop
      vertex -1.02918 -10.4494 14.51
      vertex -7.05 -7.05 14.51
      vertex 7.05 -7.05 14.51
    endloop
  endfacet
  facet normal 0 0 -1
    outer loop
      vertex -8.11661 -6.66113 14.51
      vertex -7.05 -7.05 14.51
      vertex -7.42462 -7.42462 14.51
    endloop
  endfacet
  facet normal 0 0 -1
    outer loop
      vertex -7.42462 -7.42462 14.51
      vertex -7.05 -7.05 14.51
      vertex -6.66113 -8.11661 14.51
    endloop
  endfacet
  facet normal 0 0 -1
    outer loop
      vertex 8.11661 6.66113 14.51
      vertex 7.05 7.05 14.51
      vertex 7.42462 7.42462 14.51
    endloop
  endfacet
  facet normal 0 0 -1
    outer loop
      vertex 7.05 7.05 14.51
      vertex 6.66113 8.11661 14.51
      vertex 7.42462 7.42462 14.51
    endloop
  endfacet
  facet normal 0 0 -1
    outer loop
      vertex 7.05 7.05 14.51
      vertex 5.83349 8.73043 14.51
      vertex 6.66113 8.11661 14.51
    endloop
  endfacet
  facet normal 0 0 -1
    outer loop
      vertex 7.05 7.05 14.51
      vertex 4.94967 9.26017 14.51
      vertex 5.83349 8.73043 14.51
    endloop
  endfacet
  facet normal 0 0 -1
    outer loop
      vertex 7.05 7.05 14.51
      vertex 4.01818 9.70073 14.51
      vertex 4.94967 9.26017 14.51
    endloop
  endfacet
  facet normal 0 0 -1
    outer loop
      vertex 7.05 7.05 14.51
      vertex 3.04799 10.0479 14.51
      vertex 4.01818 9.70073 14.51
    endloop
  endfacet
  facet normal 0 0 -1
    outer loop
      vertex 7.05 7.05 14.51
      vertex 2.04845 10.2982 14.51
      vertex 3.04799 10.0479 14.51
    endloop
  endfacet
  facet normal 0 0 -1
    outer loop
      vertex 7.05 7.05 14.51
      vertex 1.02918 10.4494 14.51
      vertex 2.04845 10.2982 14.51
    endloop
  endfacet
  facet normal 0 0 -1
    outer loop
      vertex 7.05 7.05 14.51
      vertex 0 10.5 14.51
      vertex 1.02918 10.4494 14.51
    endloop
  endfacet
  facet normal 0 0 -1
    outer loop
      vertex 7.05 7.05 14.51
      vertex -1.02918 10.4494 14.51
      vertex 0 10.5 14.51
    endloop
  endfacet
  facet normal 0 0 -1
    outer loop
      vertex -7.05 7.05 14.51
      vertex -1.02918 10.4494 14.51
      vertex 7.05 7.05 14.51
    endloop
  endfacet
  facet normal 0 0 -1
    outer loop
      vertex -1.02918 10.4494 14.51
      vertex -7.05 7.05 14.51
      vertex -2.04845 10.2982 14.51
    endloop
  endfacet
  facet normal 0 0 -1
    outer loop
      vertex -2.04845 10.2982 14.51
      vertex -7.05 7.05 14.51
      vertex -3.04799 10.0479 14.51
    endloop
  endfacet
  facet normal 0 0 -1
    outer loop
      vertex -3.04799 10.0479 14.51
      vertex -7.05 7.05 14.51
      vertex -4.01818 9.70073 14.51
    endloop
  endfacet
  facet normal 0 0 -1
    outer loop
      vertex -4.01818 9.70073 14.51
      vertex -7.05 7.05 14.51
      vertex -4.94967 9.26017 14.51
    endloop
  endfacet
  facet normal 0 0 -1
    outer loop
      vertex -4.94967 9.26017 14.51
      vertex -7.05 7.05 14.51
      vertex -5.83349 8.73043 14.51
    endloop
  endfacet
  facet normal 0 0 -1
    outer loop
      vertex -5.83349 8.73043 14.51
      vertex -7.05 7.05 14.51
      vertex -6.66113 8.11661 14.51
    endloop
  endfacet
  facet normal 0 0 -1
    outer loop
      vertex -7.05 7.05 14.51
      vertex -7.42462 7.42462 14.51
      vertex -6.66113 8.11661 14.51
    endloop
  endfacet
  facet normal 0 0 -1
    outer loop
      vertex -8.73043 -5.83349 14.51
      vertex -7.05 -7.05 14.51
      vertex -8.11661 -6.66113 14.51
    endloop
  endfacet
  facet normal 0 0 -1
    outer loop
      vertex -9.26017 -4.94967 14.51
      vertex -7.05 -7.05 14.51
      vertex -8.73043 -5.83349 14.51
    endloop
  endfacet
  facet normal -0 0 -1
    outer loop
      vertex -7.05 7.05 14.51
      vertex -8.11661 6.66113 14.51
      vertex -7.42462 7.42462 14.51
    endloop
  endfacet
  facet normal 0 0 -1
    outer loop
      vertex -9.70073 -4.01818 14.51
      vertex -7.05 -7.05 14.51
      vertex -9.26017 -4.94967 14.51
    endloop
  endfacet
  facet normal 0 0 -1
    outer loop
      vertex -7.05 7.05 14.51
      vertex -8.73043 5.83349 14.51
      vertex -8.11661 6.66113 14.51
    endloop
  endfacet
  facet normal 0 0 -1
    outer loop
      vertex -10.0479 -3.04799 14.51
      vertex -7.05 -7.05 14.51
      vertex -9.70073 -4.01818 14.51
    endloop
  endfacet
  facet normal 0 0 -1
    outer loop
      vertex -7.05 7.05 14.51
      vertex -9.26017 4.94967 14.51
      vertex -8.73043 5.83349 14.51
    endloop
  endfacet
  facet normal 0 0 -1
    outer loop
      vertex -10.2982 -2.04845 14.51
      vertex -7.05 -7.05 14.51
      vertex -10.0479 -3.04799 14.51
    endloop
  endfacet
  facet normal 0 0 -1
    outer loop
      vertex -7.05 7.05 14.51
      vertex -9.70073 4.01818 14.51
      vertex -9.26017 4.94967 14.51
    endloop
  endfacet
  facet normal 0 0 -1
    outer loop
      vertex -10.4494 -1.02918 14.51
      vertex -7.05 -7.05 14.51
      vertex -10.2982 -2.04845 14.51
    endloop
  endfacet
  facet normal 0 0 -1
    outer loop
      vertex -7.05 7.05 14.51
      vertex -10.0479 3.04799 14.51
      vertex -9.70073 4.01818 14.51
    endloop
  endfacet
  facet normal 0 0 -1
    outer loop
      vertex -7.05 -7.05 14.51
      vertex -10.4494 -1.02918 14.51
      vertex -7.05 7.05 14.51
    endloop
  endfacet
  facet normal 0 0 -1
    outer loop
      vertex -7.05 7.05 14.51
      vertex -10.2982 2.04845 14.51
      vertex -10.0479 3.04799 14.51
    endloop
  endfacet
  facet normal 0 0 -1
    outer loop
      vertex -10.5 0 14.51
      vertex -7.05 7.05 14.51
      vertex -10.4494 -1.02918 14.51
    endloop
  endfacet
  facet normal 0 0 -1
    outer loop
      vertex -7.05 7.05 14.51
      vertex -10.4494 1.02918 14.51
      vertex -10.2982 2.04845 14.51
    endloop
  endfacet
  facet normal 0 0 -1
    outer loop
      vertex -7.05 7.05 14.51
      vertex -10.5 0 14.51
      vertex -10.4494 1.02918 14.51
    endloop
  endfacet
  facet normal -0.427554 0.90399 0
    outer loop
      vertex 4.94967 -9.26017 4.5
      vertex 4.01818 -9.70073 14.51
      vertex 4.94967 -9.26017 14.51
    endloop
  endfacet
  facet normal -0.427554 0.90399 0
    outer loop
      vertex 4.01818 -9.70073 14.51
      vertex 4.94967 -9.26017 4.5
      vertex 4.01818 -9.70073 4.5
    endloop
  endfacet
  facet normal -0.146736 -0.989176 0
    outer loop
      vertex 1.02918 10.4494 4.5
      vertex 2.04845 10.2982 14.51
      vertex 1.02918 10.4494 14.51
    endloop
  endfacet
  facet normal -0.146736 -0.989176 -0
    outer loop
      vertex 2.04845 10.2982 14.51
      vertex 1.02918 10.4494 4.5
      vertex 2.04845 10.2982 4.5
    endloop
  endfacet
  facet normal 0.671561 -0.74095 0
    outer loop
      vertex -7.42462 7.42462 4.5
      vertex -6.66113 8.11661 14.51
      vertex -7.42462 7.42462 14.51
    endloop
  endfacet
  facet normal 0.671561 -0.74095 0
    outer loop
      vertex -6.66113 8.11661 14.51
      vertex -7.42462 7.42462 4.5
      vertex -6.66113 8.11661 4.5
    endloop
  endfacet
  facet normal 0.989176 -0.146736 0
    outer loop
      vertex -10.4494 1.02918 14.51
      vertex -10.2982 2.04845 4.5
      vertex -10.2982 2.04845 14.51
    endloop
  endfacet
  facet normal 0.989176 -0.146736 0
    outer loop
      vertex -10.2982 2.04845 4.5
      vertex -10.4494 1.02918 14.51
      vertex -10.4494 1.02918 4.5
    endloop
  endfacet
  facet normal 0.941535 -0.336916 0
    outer loop
      vertex -10.0479 3.04799 14.51
      vertex -9.70073 4.01818 4.5
      vertex -9.70073 4.01818 14.51
    endloop
  endfacet
  facet normal 0.941535 -0.336916 0
    outer loop
      vertex -9.70073 4.01818 4.5
      vertex -10.0479 3.04799 14.51
      vertex -10.0479 3.04799 4.5
    endloop
  endfacet
  facet normal 0.336916 -0.941535 0
    outer loop
      vertex -4.01818 9.70073 4.5
      vertex -3.04799 10.0479 14.51
      vertex -4.01818 9.70073 14.51
    endloop
  endfacet
  facet normal 0.336916 -0.941535 0
    outer loop
      vertex -3.04799 10.0479 14.51
      vertex -4.01818 9.70073 4.5
      vertex -3.04799 10.0479 4.5
    endloop
  endfacet
  facet normal 0.998794 0.049106 0
    outer loop
      vertex -10.4494 -1.02918 14.51
      vertex -10.5 0 4.5
      vertex -10.5 0 14.51
    endloop
  endfacet
  facet normal 0.998794 0.049106 0
    outer loop
      vertex -10.5 0 4.5
      vertex -10.4494 -1.02918 14.51
      vertex -10.4494 -1.02918 4.5
    endloop
  endfacet
  facet normal -0.671561 0.74095 0
    outer loop
      vertex 7.42462 -7.42462 4.5
      vertex 6.66113 -8.11661 14.51
      vertex 7.42462 -7.42462 14.51
    endloop
  endfacet
  facet normal -0.671561 0.74095 0
    outer loop
      vertex 6.66113 -8.11661 14.51
      vertex 7.42462 -7.42462 4.5
      vertex 6.66113 -8.11661 4.5
    endloop
  endfacet
  facet normal 0.049106 -0.998794 0
    outer loop
      vertex -1.02918 10.4494 4.5
      vertex 0 10.5 14.51
      vertex -1.02918 10.4494 14.51
    endloop
  endfacet
  facet normal 0.049106 -0.998794 0
    outer loop
      vertex 0 10.5 14.51
      vertex -1.02918 10.4494 4.5
      vertex 0 10.5 4.5
    endloop
  endfacet
  facet normal 0.803207 -0.5957 0
    outer loop
      vertex -8.73043 5.83349 14.51
      vertex -8.11661 6.66113 4.5
      vertex -8.11661 6.66113 14.51
    endloop
  endfacet
  facet normal 0.803207 -0.5957 0
    outer loop
      vertex -8.11661 6.66113 4.5
      vertex -8.73043 5.83349 14.51
      vertex -8.73043 5.83349 4.5
    endloop
  endfacet
  facet normal 0.74095 0.671561 0
    outer loop
      vertex -7.42462 -7.42462 14.51
      vertex -8.11661 -6.66113 4.5
      vertex -8.11661 -6.66113 14.51
    endloop
  endfacet
  facet normal 0.74095 0.671561 0
    outer loop
      vertex -8.11661 -6.66113 4.5
      vertex -7.42462 -7.42462 14.51
      vertex -7.42462 -7.42462 4.5
    endloop
  endfacet
  facet normal -0.049106 0.998794 0
    outer loop
      vertex 1.02918 -10.4494 4.5
      vertex 0 -10.5 14.51
      vertex 1.02918 -10.4494 14.51
    endloop
  endfacet
  facet normal -0.049106 0.998794 0
    outer loop
      vertex 0 -10.5 14.51
      vertex 1.02918 -10.4494 4.5
      vertex 0 -10.5 4.5
    endloop
  endfacet
  facet normal 0.989176 0.146736 0
    outer loop
      vertex -10.2982 -2.04845 14.51
      vertex -10.4494 -1.02918 4.5
      vertex -10.4494 -1.02918 14.51
    endloop
  endfacet
  facet normal 0.989176 0.146736 0
    outer loop
      vertex -10.4494 -1.02918 4.5
      vertex -10.2982 -2.04845 14.51
      vertex -10.2982 -2.04845 4.5
    endloop
  endfacet
  facet normal -0.049106 -0.998794 0
    outer loop
      vertex 0 10.5 4.5
      vertex 1.02918 10.4494 14.51
      vertex 0 10.5 14.51
    endloop
  endfacet
  facet normal -0.049106 -0.998794 -0
    outer loop
      vertex 1.02918 10.4494 14.51
      vertex 0 10.5 4.5
      vertex 1.02918 10.4494 4.5
    endloop
  endfacet
  facet normal 0.970048 -0.242915 0
    outer loop
      vertex -10.2982 2.04845 14.51
      vertex -10.0479 3.04799 4.5
      vertex -10.0479 3.04799 14.51
    endloop
  endfacet
  facet normal 0.970048 -0.242915 0
    outer loop
      vertex -10.0479 3.04799 4.5
      vertex -10.2982 2.04845 14.51
      vertex -10.2982 2.04845 4.5
    endloop
  endfacet
  facet normal 0.90399 -0.427554 0
    outer loop
      vertex -9.70073 4.01818 14.51
      vertex -9.26017 4.94967 4.5
      vertex -9.26017 4.94967 14.51
    endloop
  endfacet
  facet normal 0.90399 -0.427554 0
    outer loop
      vertex -9.26017 4.94967 4.5
      vertex -9.70073 4.01818 14.51
      vertex -9.70073 4.01818 4.5
    endloop
  endfacet
  facet normal 0.671561 0.74095 -0
    outer loop
      vertex -6.66113 -8.11661 4.5
      vertex -7.42462 -7.42462 14.51
      vertex -6.66113 -8.11661 14.51
    endloop
  endfacet
  facet normal 0.671561 0.74095 0
    outer loop
      vertex -7.42462 -7.42462 14.51
      vertex -6.66113 -8.11661 4.5
      vertex -7.42462 -7.42462 4.5
    endloop
  endfacet
  facet normal 0.049106 0.998794 -0
    outer loop
      vertex 0 -10.5 4.5
      vertex -1.02918 -10.4494 14.51
      vertex 0 -10.5 14.51
    endloop
  endfacet
  facet normal 0.049106 0.998794 0
    outer loop
      vertex -1.02918 -10.4494 14.51
      vertex 0 -10.5 4.5
      vertex -1.02918 -10.4494 4.5
    endloop
  endfacet
  facet normal 0.998794 -0.049106 0
    outer loop
      vertex -10.5 0 14.51
      vertex -10.4494 1.02918 4.5
      vertex -10.4494 1.02918 14.51
    endloop
  endfacet
  facet normal 0.998794 -0.049106 0
    outer loop
      vertex -10.4494 1.02918 4.5
      vertex -10.5 0 14.51
      vertex -10.5 0 4.5
    endloop
  endfacet
  facet normal 0.336916 0.941535 -0
    outer loop
      vertex -3.04799 -10.0479 4.5
      vertex -4.01818 -9.70073 14.51
      vertex -3.04799 -10.0479 14.51
    endloop
  endfacet
  facet normal 0.336916 0.941535 0
    outer loop
      vertex -4.01818 -9.70073 14.51
      vertex -3.04799 -10.0479 4.5
      vertex -4.01818 -9.70073 4.5
    endloop
  endfacet
  facet normal -0.74095 0.671561 0
    outer loop
      vertex 7.42462 -7.42462 4.5
      vertex 8.11661 -6.66113 14.51
      vertex 8.11661 -6.66113 4.5
    endloop
  endfacet
  facet normal -0.74095 0.671561 0
    outer loop
      vertex 8.11661 -6.66113 14.51
      vertex 7.42462 -7.42462 4.5
      vertex 7.42462 -7.42462 14.51
    endloop
  endfacet
  facet normal 1 -0 0
    outer loop
      vertex -7.05 -7.05 16
      vertex -7.05 7.05 14.51
      vertex -7.05 7.05 16
    endloop
  endfacet
  facet normal 1 0 0
    outer loop
      vertex -7.05 7.05 14.51
      vertex -7.05 -7.05 16
      vertex -7.05 -7.05 14.51
    endloop
  endfacet
  facet normal 0 -1 0
    outer loop
      vertex -7.05 7.05 14.51
      vertex 7.05 7.05 16
      vertex -7.05 7.05 16
    endloop
  endfacet
  facet normal 0 -1 -0
    outer loop
      vertex 7.05 7.05 16
      vertex -7.05 7.05 14.51
      vertex 7.05 7.05 14.51
    endloop
  endfacet
  facet normal -1 0 0
    outer loop
      vertex 7.05 -7.05 14.51
      vertex 7.05 7.05 16
      vertex 7.05 7.05 14.51
    endloop
  endfacet
  facet normal -1 -0 0
    outer loop
      vertex 7.05 7.05 16
      vertex 7.05 -7.05 14.51
      vertex 7.05 -7.05 16
    endloop
  endfacet
  facet normal 0 1 -0
    outer loop
      vertex 7.05 -7.05 14.51
      vertex -7.05 -7.05 16
      vertex 7.05 -7.05 16
    endloop
  endfacet
  facet normal 0 1 0
    outer loop
      vertex -7.05 -7.05 16
      vertex 7.05 -7.05 14.51
      vertex -7.05 -7.05 14.51
    endloop
  endfacet
endsolid OpenSCAD_Model
