solid OpenSCAD_Model
  facet normal -0.5913636636275174 -0.8064049958557055 0
    outer loop
      vertex -15 -6 0
      vertex 0 -17 0
      vertex -15 -6 16
    endloop
  endfacet
  facet normal -0.5913636636275174 -0.8064049958557055 0
    outer loop
      vertex -15 -6 16
      vertex 0 -17 0
      vertex 0 -17 16
    endloop
  endfacet
  facet normal 0 0 1
    outer loop
      vertex -15 -6 16
      vertex 0 -17 16
      vertex -7.05 -7.05 16
    endloop
  endfacet
  facet normal -1 0 0
    outer loop
      vertex -15 -6 0
      vertex -15 8 16
      vertex -15 8 0
    endloop
  endfacet
  facet normal 0 1 0
    outer loop
      vertex -15 8 0
      vertex -15 8 16
      vertex -6.796705429366965 8 4.5
    endloop
  endfacet
  facet normal 0 0 -1
    outer loop
      vertex -15 -6 0
      vertex -15 8 0
      vertex 15 8 0
    endloop
  endfacet
  facet normal 0 1 0
    outer loop
      vertex -15 8 0
      vertex -6.796705429366965 8 4.5
      vertex 6.796705429366965 8 4.5
    endloop
  endfacet
  facet normal -1 0 0
    outer loop
      vertex -15 -6 0
      vertex -15 -6 16
      vertex -15 8 16
    endloop
  endfacet
  facet normal 0 0 1
    outer loop
      vertex -15 -6 16
      vertex -7.05 -7.05 16
      vertex -7.05 7.05 16
    endloop
  endfacet
  facet normal 0 1 0
    outer loop
      vertex -15 8 16
      vertex -6.796705429366965 8 14.51
      vertex -6.796705429366965 8 4.5
    endloop
  endfacet
  facet normal 0 0 1
    outer loop
      vertex -15 -6 16
      vertex -7.05 7.05 16
      vertex -15 8 16
    endloop
  endfacet
  facet normal 0 0 1
    outer loop
      vertex -15 8 16
      vertex -7.05 7.05 16
      vertex 7.05 7.05 16
    endloop
  endfacet
  facet normal 0 1 0
    outer loop
      vertex -15 8 16
      vertex 15 8 16
      vertex -6.796705429366965 8 14.51
    endloop
  endfacet
  facet normal 0.5913636636275174 -0.8064049958557055 0
    outer loop
      vertex 0 -17 0
      vertex 15 -6 0
      vertex 0 -17 16
    endloop
  endfacet
  facet normal 0 0 -1
    outer loop
      vertex -15 -6 0
      vertex 15 8 0
      vertex 0 -17 0
    endloop
  endfacet
  facet normal 0 0 -1
    outer loop
      vertex 0 -17 0
      vertex 15 8 0
      vertex 15 -6 0
    endloop
  endfacet
  facet normal 0 0 1
    outer loop
      vertex 0 -17 16
      vertex 7.05 -7.05 16
      vertex -7.05 -7.05 16
    endloop
  endfacet
  facet normal 0 0 1
    outer loop
      vertex 0 -17 16
      vertex 15 -6 16
      vertex 7.05 -7.05 16
    endloop
  endfacet
  facet normal 0.5913636636275174 -0.8064049958557055 0
    outer loop
      vertex 15 -6 0
      vertex 15 -6 16
      vertex 0 -17 16
    endloop
  endfacet
  facet normal 0 1 0
    outer loop
      vertex -15 8 0
      vertex 6.796705429366965 8 4.5
      vertex 15 8 0
    endloop
  endfacet
  facet normal 1 0 0
    outer loop
      vertex 15 -6 0
      vertex 15 8 0
      vertex 15 -6 16
    endloop
  endfacet
  facet normal 0 1 0
    outer loop
      vertex 15 8 0
      vertex 6.796705429366965 8 4.5
      vertex 15 8 16
    endloop
  endfacet
  facet normal 0 0 1
    outer loop
      vertex -15 8 16
      vertex 7.05 7.05 16
      vertex 15 8 16
    endloop
  endfacet
  facet normal 0 1 0
    outer loop
      vertex 15 8 16
      vertex 6.796705429366965 8 14.51
      vertex -6.796705429366965 8 14.51
    endloop
  endfacet
  facet normal 0 0 1
    outer loop
      vertex 15 -6 16
      vertex 15 8 16
      vertex 7.05 -7.05 16
    endloop
  endfacet
  facet normal 0 1 0
    outer loop
      vertex 15 8 16
      vertex 6.796705429366965 8 4.5
      vertex 6.796705429366965 8 14.51
    endloop
  endfacet
  facet normal 1 0 0
    outer loop
      vertex 15 -6 16
      vertex 15 8 0
      vertex 15 8 16
    endloop
  endfacet
  facet normal 0 0 1
    outer loop
      vertex 15 8 16
      vertex 7.05 7.05 16
      vertex 7.05 -7.05 16
    endloop
  endfacet
  facet normal 0.8870108331782216 0.4617486132350339 0
    outer loop
      vertex -9.516231763884825 -4.437491748277344 4.5
      vertex -9.516231763884825 -4.437491748277344 14.51
      vertex -9.093266739736606 -5.25 4.5
    endloop
  endfacet
  facet normal 0.7372773368101253 0.6755902076156589 0
    outer loop
      vertex -8.043466652749268 -6.749269901708662 4.5
      vertex -8.043466652749268 -6.749269901708662 14.51
      vertex -7.4246212024587495 -7.4246212024587495 4.5
    endloop
  endfacet
  facet normal 0.7933533402912339 0.6087614290087221 9.081922917701218e-21
    outer loop
      vertex -8.043466652749268 -6.749269901708662 4.5
      vertex -8.601096465034415 -6.022552581685984 4.5
      vertex -8.601096465034415 -6.022552581685984 14.51
    endloop
  endfacet
  facet normal 0.843391445812886 0.5372996083468234 -7.678310311335661e-19
    outer loop
      vertex -8.601096465034415 -6.022552581685984 4.5
      vertex -9.093266739736606 -5.25 4.5
      vertex -9.093266739736606 -5.25 14.51
    endloop
  endfacet
  facet normal 0.6755902076156589 0.7372773368101253 0
    outer loop
      vertex -6.749269901708662 -8.043466652749268 4.5
      vertex -7.4246212024587495 -7.4246212024587495 4.5
      vertex -6.749269901708662 -8.043466652749268 14.51
    endloop
  endfacet
  facet normal 0.6087614290087221 0.7933533402912339 9.081922917701218e-21
    outer loop
      vertex -6.749269901708662 -8.043466652749268 4.5
      vertex -6.022552581685984 -8.601096465034415 14.51
      vertex -6.022552581685984 -8.601096465034415 4.5
    endloop
  endfacet
  facet normal 0.4617486132350339 0.8870108331782216 0
    outer loop
      vertex -4.437491748277344 -9.516231763884825 4.5
      vertex -5.25 -9.093266739736606 4.5
      vertex -4.437491748277344 -9.516231763884825 14.51
    endloop
  endfacet
  facet normal 0.3826834323650893 0.923879532511287 1.9713798307401768e-18
    outer loop
      vertex -4.437491748277344 -9.516231763884825 4.5
      vertex -3.5912115049195217 -9.866772518252038 14.51
      vertex -3.5912115049195217 -9.866772518252038 4.5
    endloop
  endfacet
  facet normal 0.5372996083468234 0.843391445812886 -7.678310311335661e-19
    outer loop
      vertex -6.022552581685984 -8.601096465034415 4.5
      vertex -5.25 -9.093266739736606 14.51
      vertex -5.25 -9.093266739736606 4.5
    endloop
  endfacet
  facet normal 0.30070579950427395 0.9537169507482267 -5.539450406320323e-20
    outer loop
      vertex -3.5912115049195217 -9.866772518252038 4.5
      vertex -2.7175999735764678 -10.142221176035218 14.51
      vertex -2.7175999735764678 -10.142221176035218 4.5
    endloop
  endfacet
  facet normal 0.21643961393810163 0.9762960071199337 1.2085041577299488e-18
    outer loop
      vertex -2.7175999735764678 -10.142221176035218 4.5
      vertex -1.8233058655027685 -10.340481406628184 14.51
      vertex -1.8233058655027685 -10.340481406628184 4.5
    endloop
  endfacet
  facet normal 0.13052619222005177 0.9914448613738104 -2.614048844211215e-19
    outer loop
      vertex -1.8233058655027685 -10.340481406628184 4.5
      vertex -0.9151352988504108 -10.460044329963328 14.51
      vertex -0.9151352988504108 -10.460044329963328 4.5
    endloop
  endfacet
  facet normal 0.04361938736533646 0.9990482215818577 -3.2912672280375936e-19
    outer loop
      vertex -0.9151352988504108 -10.460044329963328 4.5
      vertex 0 -10.5 14.51
      vertex 0 -10.5 4.5
    endloop
  endfacet
  facet normal 0.7372773368101253 0.6755902076156589 0
    outer loop
      vertex -7.4246212024587495 -7.4246212024587495 4.5
      vertex -8.043466652749268 -6.749269901708662 14.51
      vertex -7.4246212024587495 -7.4246212024587495 14.51
    endloop
  endfacet
  facet normal 0.7933533402912339 0.6087614290087221 0
    outer loop
      vertex -8.043466652749268 -6.749269901708662 4.5
      vertex -8.601096465034415 -6.022552581685984 14.51
      vertex -8.043466652749268 -6.749269901708662 14.51
    endloop
  endfacet
  facet normal 0.843391445812886 0.5372996083468234 0
    outer loop
      vertex -8.601096465034415 -6.022552581685984 4.5
      vertex -9.093266739736606 -5.25 14.51
      vertex -8.601096465034415 -6.022552581685984 14.51
    endloop
  endfacet
  facet normal 0.8870108331782216 0.4617486132350339 0
    outer loop
      vertex -9.093266739736606 -5.25 4.5
      vertex -9.516231763884825 -4.437491748277344 14.51
      vertex -9.093266739736606 -5.25 14.51
    endloop
  endfacet
  facet normal 0.6755902076156589 0.7372773368101253 0
    outer loop
      vertex -7.4246212024587495 -7.4246212024587495 4.5
      vertex -7.4246212024587495 -7.4246212024587495 14.51
      vertex -6.749269901708662 -8.043466652749268 14.51
    endloop
  endfacet
  facet normal 0.5372996083468234 0.843391445812886 0
    outer loop
      vertex -6.022552581685984 -8.601096465034415 4.5
      vertex -6.022552581685984 -8.601096465034415 14.51
      vertex -5.25 -9.093266739736606 14.51
    endloop
  endfacet
  facet normal 0.6087614290087221 0.7933533402912339 0
    outer loop
      vertex -6.749269901708662 -8.043466652749268 4.5
      vertex -6.749269901708662 -8.043466652749268 14.51
      vertex -6.022552581685984 -8.601096465034415 14.51
    endloop
  endfacet
  facet normal 0.4617486132350339 0.8870108331782216 0
    outer loop
      vertex -5.25 -9.093266739736606 4.5
      vertex -5.25 -9.093266739736606 14.51
      vertex -4.437491748277344 -9.516231763884825 14.51
    endloop
  endfacet
  facet normal 0.3826834323650893 0.923879532511287 0
    outer loop
      vertex -4.437491748277344 -9.516231763884825 4.5
      vertex -4.437491748277344 -9.516231763884825 14.51
      vertex -3.5912115049195217 -9.866772518252038 14.51
    endloop
  endfacet
  facet normal 0.30070579950427395 0.9537169507482267 0
    outer loop
      vertex -3.5912115049195217 -9.866772518252038 4.5
      vertex -3.5912115049195217 -9.866772518252038 14.51
      vertex -2.7175999735764678 -10.142221176035218 14.51
    endloop
  endfacet
  facet normal 0.21643961393810163 0.9762960071199337 0
    outer loop
      vertex -2.7175999735764678 -10.142221176035218 4.5
      vertex -2.7175999735764678 -10.142221176035218 14.51
      vertex -1.8233058655027685 -10.340481406628184 14.51
    endloop
  endfacet
  facet normal 0.13052619222005177 0.9914448613738104 0
    outer loop
      vertex -1.8233058655027685 -10.340481406628184 4.5
      vertex -1.8233058655027685 -10.340481406628184 14.51
      vertex -0.9151352988504108 -10.460044329963328 14.51
    endloop
  endfacet
  facet normal 0.04361938736533646 0.9990482215818577 0
    outer loop
      vertex -0.9151352988504108 -10.460044329963328 4.5
      vertex -0.9151352988504108 -10.460044329963328 14.51
      vertex 0 -10.5 14.51
    endloop
  endfacet
  facet normal 0 0 -1
    outer loop
      vertex -6.749269901708662 -8.043466652749268 14.51
      vertex -7.4246212024587495 -7.4246212024587495 14.51
      vertex -7.05 -7.05 14.51
    endloop
  endfacet
  facet normal 0 0 -1
    outer loop
      vertex -6.749269901708662 -8.043466652749268 14.51
      vertex 7.05 -7.05 14.51
      vertex -6.022552581685984 -8.601096465034415 14.51
    endloop
  endfacet
  facet normal 0 0 -1
    outer loop
      vertex -6.022552581685984 -8.601096465034415 14.51
      vertex 7.05 -7.05 14.51
      vertex -5.25 -9.093266739736606 14.51
    endloop
  endfacet
  facet normal 0 0 -1
    outer loop
      vertex -4.437491748277344 -9.516231763884825 14.51
      vertex -5.25 -9.093266739736606 14.51
      vertex 7.05 -7.05 14.51
    endloop
  endfacet
  facet normal 0 0 -1
    outer loop
      vertex -4.437491748277344 -9.516231763884825 14.51
      vertex 7.05 -7.05 14.51
      vertex -3.5912115049195217 -9.866772518252038 14.51
    endloop
  endfacet
  facet normal 0 0 -1
    outer loop
      vertex -6.749269901708662 -8.043466652749268 14.51
      vertex -7.05 -7.05 14.51
      vertex 7.05 -7.05 14.51
    endloop
  endfacet
  facet normal 0 0 1
    outer loop
      vertex -9.516231763884825 -4.437491748277344 4.5
      vertex -9.093266739736606 -5.25 4.5
      vertex -9.093266739736606 5.25 4.5
    endloop
  endfacet
  facet normal 0 0 1
    outer loop
      vertex -8.601096465034415 -6.022552581685984 4.5
      vertex -8.601096465034415 6.022552581685984 4.5
      vertex -9.093266739736606 -5.25 4.5
    endloop
  endfacet
  facet normal 0 0 1
    outer loop
      vertex -8.043466652749268 -6.749269901708662 4.5
      vertex -7.4246212024587495 -7.4246212024587495 4.5
      vertex -7.4246212024587495 7.4246212024587495 4.5
    endloop
  endfacet
  facet normal 0 0 1
    outer loop
      vertex -8.043466652749268 -6.749269901708662 4.5
      vertex -8.043466652749268 6.749269901708662 4.5
      vertex -8.601096465034415 -6.022552581685984 4.5
    endloop
  endfacet
  facet normal 0.923879532511287 0.3826834323650893 1.9713798307401768e-18
    outer loop
      vertex -9.516231763884825 -4.437491748277344 4.5
      vertex -9.866772518252038 -3.5912115049195217 4.5
      vertex -9.866772518252038 -3.5912115049195217 14.51
    endloop
  endfacet
  facet normal 0.9537169507482267 0.30070579950427395 -5.539450406320323e-20
    outer loop
      vertex -9.866772518252038 -3.5912115049195217 4.5
      vertex -10.142221176035218 -2.7175999735764678 4.5
      vertex -10.142221176035218 -2.7175999735764678 14.51
    endloop
  endfacet
  facet normal 0.9762960071199337 0.21643961393810163 1.2085041577299488e-18
    outer loop
      vertex -10.142221176035218 -2.7175999735764678 4.5
      vertex -10.340481406628184 -1.8233058655027685 4.5
      vertex -10.340481406628184 -1.8233058655027685 14.51
    endloop
  endfacet
  facet normal 0 0 1
    outer loop
      vertex -10.340481406628184 -1.8233058655027685 4.5
      vertex -10.340481406628184 1.8233058655027685 4.5
      vertex -10.460044329963328 -0.9151352988504108 4.5
    endloop
  endfacet
  facet normal 0 0 1
    outer loop
      vertex -10.460044329963328 -0.9151352988504108 4.5
      vertex -10.460044329963328 0.9151352988504108 4.5
      vertex -10.5 0 4.5
    endloop
  endfacet
  facet normal 0 0 1
    outer loop
      vertex -10.142221176035218 -2.7175999735764678 4.5
      vertex -10.142221176035218 2.7175999735764678 4.5
      vertex -10.340481406628184 -1.8233058655027685 4.5
    endloop
  endfacet
  facet normal 0 0 1
    outer loop
      vertex -9.866772518252038 -3.5912115049195217 4.5
      vertex -9.866772518252038 3.5912115049195217 4.5
      vertex -10.142221176035218 -2.7175999735764678 4.5
    endloop
  endfacet
  facet normal 0 0 1
    outer loop
      vertex -9.516231763884825 -4.437491748277344 4.5
      vertex -9.516231763884825 4.437491748277344 4.5
      vertex -9.866772518252038 -3.5912115049195217 4.5
    endloop
  endfacet
  facet normal 0 0 1
    outer loop
      vertex -10.460044329963328 -0.9151352988504108 4.5
      vertex -10.340481406628184 1.8233058655027685 4.5
      vertex -10.460044329963328 0.9151352988504108 4.5
    endloop
  endfacet
  facet normal 0 0 1
    outer loop
      vertex -10.340481406628184 -1.8233058655027685 4.5
      vertex -10.142221176035218 2.7175999735764678 4.5
      vertex -10.340481406628184 1.8233058655027685 4.5
    endloop
  endfacet
  facet normal 0 0 1
    outer loop
      vertex -10.142221176035218 -2.7175999735764678 4.5
      vertex -9.866772518252038 3.5912115049195217 4.5
      vertex -10.142221176035218 2.7175999735764678 4.5
    endloop
  endfacet
  facet normal 0 0 1
    outer loop
      vertex -9.866772518252038 -3.5912115049195217 4.5
      vertex -9.516231763884825 4.437491748277344 4.5
      vertex -9.866772518252038 3.5912115049195217 4.5
    endloop
  endfacet
  facet normal 0.9914448613738104 0.13052619222005177 -2.614048844211215e-19
    outer loop
      vertex -10.340481406628184 -1.8233058655027685 4.5
      vertex -10.460044329963328 -0.9151352988504108 4.5
      vertex -10.460044329963328 -0.9151352988504108 14.51
    endloop
  endfacet
  facet normal 0.9990482215818577 0.04361938736533646 -3.2912672280375936e-19
    outer loop
      vertex -10.460044329963328 -0.9151352988504108 4.5
      vertex -10.5 0 4.5
      vertex -10.5 0 14.51
    endloop
  endfacet
  facet normal 0.9990482215818577 -0.04361938736533646 3.2912672280375936e-19
    outer loop
      vertex -10.5 0 4.5
      vertex -10.460044329963328 0.9151352988504108 4.5
      vertex -10.460044329963328 0.9151352988504108 14.51
    endloop
  endfacet
  facet normal 0.9914448613738104 -0.13052619222005177 2.614048844211215e-19
    outer loop
      vertex -10.460044329963328 0.9151352988504108 4.5
      vertex -10.340481406628184 1.8233058655027685 4.5
      vertex -10.340481406628184 1.8233058655027685 14.51
    endloop
  endfacet
  facet normal 0 0 1
    outer loop
      vertex -9.516231763884825 -4.437491748277344 4.5
      vertex -9.093266739736606 5.25 4.5
      vertex -9.516231763884825 4.437491748277344 4.5
    endloop
  endfacet
  facet normal 0 0 1
    outer loop
      vertex -9.093266739736606 -5.25 4.5
      vertex -8.601096465034415 6.022552581685984 4.5
      vertex -9.093266739736606 5.25 4.5
    endloop
  endfacet
  facet normal 0 0 1
    outer loop
      vertex -8.601096465034415 -6.022552581685984 4.5
      vertex -8.043466652749268 6.749269901708662 4.5
      vertex -8.601096465034415 6.022552581685984 4.5
    endloop
  endfacet
  facet normal 0 0 1
    outer loop
      vertex -8.043466652749268 -6.749269901708662 4.5
      vertex -7.4246212024587495 7.4246212024587495 4.5
      vertex -8.043466652749268 6.749269901708662 4.5
    endloop
  endfacet
  facet normal 0.9762960071199337 -0.21643961393810163 -1.2085041577299488e-18
    outer loop
      vertex -10.340481406628184 1.8233058655027685 4.5
      vertex -10.142221176035218 2.7175999735764678 4.5
      vertex -10.142221176035218 2.7175999735764678 14.51
    endloop
  endfacet
  facet normal 0.9537169507482267 -0.30070579950427395 5.539450406320323e-20
    outer loop
      vertex -10.142221176035218 2.7175999735764678 4.5
      vertex -9.866772518252038 3.5912115049195217 4.5
      vertex -9.866772518252038 3.5912115049195217 14.51
    endloop
  endfacet
  facet normal 0.923879532511287 -0.3826834323650893 -1.9713798307401768e-18
    outer loop
      vertex -9.866772518252038 3.5912115049195217 4.5
      vertex -9.516231763884825 4.437491748277344 4.5
      vertex -9.516231763884825 4.437491748277344 14.51
    endloop
  endfacet
  facet normal 0.8870108331782216 -0.4617486132350339 1.6782947396370461e-18
    outer loop
      vertex -9.516231763884825 4.437491748277344 4.5
      vertex -9.093266739736606 5.25 4.5
      vertex -9.093266739736606 5.25 14.51
    endloop
  endfacet
  facet normal 0.843391445812886 -0.5372996083468234 7.678310311335661e-19
    outer loop
      vertex -9.093266739736606 5.25 4.5
      vertex -8.601096465034415 6.022552581685984 4.5
      vertex -8.601096465034415 6.022552581685984 14.51
    endloop
  endfacet
  facet normal 0.7933533402912339 -0.6087614290087221 -9.081922917701218e-21
    outer loop
      vertex -8.601096465034415 6.022552581685984 4.5
      vertex -8.043466652749268 6.749269901708662 4.5
      vertex -8.043466652749268 6.749269901708662 14.51
    endloop
  endfacet
  facet normal 0.7372773368101253 -0.6755902076156589 3.6990856380888776e-19
    outer loop
      vertex -8.043466652749268 6.749269901708662 4.5
      vertex -7.4246212024587495 7.4246212024587495 4.5
      vertex -7.4246212024587495 7.4246212024587495 14.51
    endloop
  endfacet
  facet normal 0 0 1
    outer loop
      vertex -6.749269901708662 -8.043466652749268 4.5
      vertex 6.796705429366965 8 4.5
      vertex -7.4246212024587495 -7.4246212024587495 4.5
    endloop
  endfacet
  facet normal 0 0 1
    outer loop
      vertex -6.749269901708662 -8.043466652749268 4.5
      vertex -6.022552581685984 -8.601096465034415 4.5
      vertex 6.796705429366965 8 4.5
    endloop
  endfacet
  facet normal 0 0 1
    outer loop
      vertex -6.022552581685984 -8.601096465034415 4.5
      vertex -5.25 -9.093266739736606 4.5
      vertex 6.796705429366965 8 4.5
    endloop
  endfacet
  facet normal 0 0 1
    outer loop
      vertex -4.437491748277344 -9.516231763884825 4.5
      vertex 6.796705429366965 8 4.5
      vertex -5.25 -9.093266739736606 4.5
    endloop
  endfacet
  facet normal 0 0 1
    outer loop
      vertex -4.437491748277344 -9.516231763884825 4.5
      vertex -3.5912115049195217 -9.866772518252038 4.5
      vertex 6.796705429366965 8 4.5
    endloop
  endfacet
  facet normal 0.6755902076156589 -0.7372773368101252 0
    outer loop
      vertex -7.4246212024587495 7.4246212024587495 4.5
      vertex -6.796705429366965 8 4.5
      vertex -7.4246212024587495 7.4246212024587495 14.51
    endloop
  endfacet
  facet normal 0 0 1
    outer loop
      vertex -7.4246212024587495 -7.4246212024587495 4.5
      vertex 6.796705429366965 8 4.5
      vertex -7.4246212024587495 7.4246212024587495 4.5
    endloop
  endfacet
  facet normal 0 0 1
    outer loop
      vertex -7.4246212024587495 7.4246212024587495 4.5
      vertex 6.796705429366965 8 4.5
      vertex -6.796705429366965 8 4.5
    endloop
  endfacet
  facet normal 0.923879532511287 0.3826834323650893 0
    outer loop
      vertex -9.516231763884825 -4.437491748277344 4.5
      vertex -9.866772518252038 -3.5912115049195217 14.51
      vertex -9.516231763884825 -4.437491748277344 14.51
    endloop
  endfacet
  facet normal 0.9537169507482267 0.30070579950427395 0
    outer loop
      vertex -9.866772518252038 -3.5912115049195217 4.5
      vertex -10.142221176035218 -2.7175999735764678 14.51
      vertex -9.866772518252038 -3.5912115049195217 14.51
    endloop
  endfacet
  facet normal 0.9914448613738104 0.13052619222005177 0
    outer loop
      vertex -10.340481406628184 -1.8233058655027685 4.5
      vertex -10.460044329963328 -0.9151352988504108 14.51
      vertex -10.340481406628184 -1.8233058655027685 14.51
    endloop
  endfacet
  facet normal 0.9762960071199337 0.21643961393810163 0
    outer loop
      vertex -10.142221176035218 -2.7175999735764678 4.5
      vertex -10.340481406628184 -1.8233058655027685 14.51
      vertex -10.142221176035218 -2.7175999735764678 14.51
    endloop
  endfacet
  facet normal 0.9990482215818577 0.04361938736533646 0
    outer loop
      vertex -10.460044329963328 -0.9151352988504108 4.5
      vertex -10.5 0 14.51
      vertex -10.460044329963328 -0.9151352988504108 14.51
    endloop
  endfacet
  facet normal 0.9990482215818577 -0.04361938736533646 0
    outer loop
      vertex -10.5 0 4.5
      vertex -10.460044329963328 0.9151352988504108 14.51
      vertex -10.5 0 14.51
    endloop
  endfacet
  facet normal 0.9914448613738104 -0.13052619222005177 0
    outer loop
      vertex -10.460044329963328 0.9151352988504108 4.5
      vertex -10.340481406628184 1.8233058655027685 14.51
      vertex -10.460044329963328 0.9151352988504108 14.51
    endloop
  endfacet
  facet normal 0 0 -1
    outer loop
      vertex -9.516231763884825 -4.437491748277344 14.51
      vertex -9.866772518252038 -3.5912115049195217 14.51
      vertex -9.866772518252038 3.5912115049195217 14.51
    endloop
  endfacet
  facet normal 0 0 -1
    outer loop
      vertex -9.516231763884825 -4.437491748277344 14.51
      vertex -9.516231763884825 4.437491748277344 14.51
      vertex -9.093266739736606 -5.25 14.51
    endloop
  endfacet
  facet normal 0 0 -1
    outer loop
      vertex -8.601096465034415 -6.022552581685984 14.51
      vertex -9.093266739736606 -5.25 14.51
      vertex -9.093266739736606 5.25 14.51
    endloop
  endfacet
  facet normal 0 0 -1
    outer loop
      vertex -8.043466652749268 -6.749269901708662 14.51
      vertex -8.601096465034415 -6.022552581685984 14.51
      vertex -8.601096465034415 6.022552581685984 14.51
    endloop
  endfacet
  facet normal 0 0 -1
    outer loop
      vertex -8.043466652749268 -6.749269901708662 14.51
      vertex -8.043466652749268 6.749269901708662 14.51
      vertex -7.4246212024587495 -7.4246212024587495 14.51
    endloop
  endfacet
  facet normal 0 0 -1
    outer loop
      vertex -10.340481406628184 -1.8233058655027685 14.51
      vertex -10.460044329963328 -0.9151352988504108 14.51
      vertex -10.460044329963328 0.9151352988504108 14.51
    endloop
  endfacet
  facet normal 0 0 -1
    outer loop
      vertex -10.460044329963328 -0.9151352988504108 14.51
      vertex -10.5 0 14.51
      vertex -10.460044329963328 0.9151352988504108 14.51
    endloop
  endfacet
  facet normal 0 0 -1
    outer loop
      vertex -9.866772518252038 -3.5912115049195217 14.51
      vertex -10.142221176035218 -2.7175999735764678 14.51
      vertex -10.142221176035218 2.7175999735764678 14.51
    endloop
  endfacet
  facet normal 0 0 -1
    outer loop
      vertex -10.142221176035218 -2.7175999735764678 14.51
      vertex -10.340481406628184 -1.8233058655027685 14.51
      vertex -10.340481406628184 1.8233058655027685 14.51
    endloop
  endfacet
  facet normal 0 0 -1
    outer loop
      vertex -10.340481406628184 -1.8233058655027685 14.51
      vertex -10.460044329963328 0.9151352988504108 14.51
      vertex -10.340481406628184 1.8233058655027685 14.51
    endloop
  endfacet
  facet normal 0 0 -1
    outer loop
      vertex -10.142221176035218 -2.7175999735764678 14.51
      vertex -10.340481406628184 1.8233058655027685 14.51
      vertex -10.142221176035218 2.7175999735764678 14.51
    endloop
  endfacet
  facet normal 0 0 -1
    outer loop
      vertex -9.866772518252038 -3.5912115049195217 14.51
      vertex -10.142221176035218 2.7175999735764678 14.51
      vertex -9.866772518252038 3.5912115049195217 14.51
    endloop
  endfacet
  facet normal 0 0 -1
    outer loop
      vertex -9.516231763884825 -4.437491748277344 14.51
      vertex -9.866772518252038 3.5912115049195217 14.51
      vertex -9.516231763884825 4.437491748277344 14.51
    endloop
  endfacet
  facet normal 0 0 -1
    outer loop
      vertex -9.093266739736606 -5.25 14.51
      vertex -9.516231763884825 4.437491748277344 14.51
      vertex -9.093266739736606 5.25 14.51
    endloop
  endfacet
  facet normal 0.9762960071199337 -0.21643961393810163 0
    outer loop
      vertex -10.340481406628184 1.8233058655027685 4.5
      vertex -10.142221176035218 2.7175999735764678 14.51
      vertex -10.340481406628184 1.8233058655027685 14.51
    endloop
  endfacet
  facet normal 0.9537169507482267 -0.30070579950427395 0
    outer loop
      vertex -10.142221176035218 2.7175999735764678 4.5
      vertex -9.866772518252038 3.5912115049195217 14.51
      vertex -10.142221176035218 2.7175999735764678 14.51
    endloop
  endfacet
  facet normal 0.923879532511287 -0.3826834323650893 0
    outer loop
      vertex -9.866772518252038 3.5912115049195217 4.5
      vertex -9.516231763884825 4.437491748277344 14.51
      vertex -9.866772518252038 3.5912115049195217 14.51
    endloop
  endfacet
  facet normal 0.8870108331782216 -0.4617486132350339 0
    outer loop
      vertex -9.516231763884825 4.437491748277344 4.5
      vertex -9.093266739736606 5.25 14.51
      vertex -9.516231763884825 4.437491748277344 14.51
    endloop
  endfacet
  facet normal 0.843391445812886 -0.5372996083468234 0
    outer loop
      vertex -9.093266739736606 5.25 4.5
      vertex -8.601096465034415 6.022552581685984 14.51
      vertex -9.093266739736606 5.25 14.51
    endloop
  endfacet
  facet normal 0.7933533402912339 -0.6087614290087221 0
    outer loop
      vertex -8.601096465034415 6.022552581685984 4.5
      vertex -8.043466652749268 6.749269901708662 14.51
      vertex -8.601096465034415 6.022552581685984 14.51
    endloop
  endfacet
  facet normal 0.7372773368101253 -0.6755902076156589 0
    outer loop
      vertex -8.043466652749268 6.749269901708662 4.5
      vertex -7.4246212024587495 7.4246212024587495 14.51
      vertex -8.043466652749268 6.749269901708662 14.51
    endloop
  endfacet
  facet normal 0 0 -1
    outer loop
      vertex -8.601096465034415 -6.022552581685984 14.51
      vertex -9.093266739736606 5.25 14.51
      vertex -8.601096465034415 6.022552581685984 14.51
    endloop
  endfacet
  facet normal 0 0 -1
    outer loop
      vertex -8.043466652749268 -6.749269901708662 14.51
      vertex -8.601096465034415 6.022552581685984 14.51
      vertex -8.043466652749268 6.749269901708662 14.51
    endloop
  endfacet
  facet normal 0 0 -1
    outer loop
      vertex -7.4246212024587495 -7.4246212024587495 14.51
      vertex -8.043466652749268 6.749269901708662 14.51
      vertex -7.4246212024587495 7.4246212024587495 14.51
    endloop
  endfacet
  facet normal 0 0 -1
    outer loop
      vertex -7.4246212024587495 -7.4246212024587495 14.51
      vertex -7.4246212024587495 7.4246212024587495 14.51
      vertex -7.05 -7.05 14.51
    endloop
  endfacet
  facet normal 0.6755902076156589 -0.7372773368101252 2.1256016928025935e-18
    outer loop
      vertex -7.4246212024587495 7.4246212024587495 14.51
      vertex -6.796705429366965 8 4.5
      vertex -6.796705429366965 8 14.51
    endloop
  endfacet
  facet normal 0 0 -1
    outer loop
      vertex -7.05 -7.05 14.51
      vertex -7.4246212024587495 7.4246212024587495 14.51
      vertex -7.05 7.05 14.51
    endloop
  endfacet
  facet normal 0 0 -1
    outer loop
      vertex -7.4246212024587495 7.4246212024587495 14.51
      vertex -6.796705429366965 8 14.51
      vertex -7.05 7.05 14.51
    endloop
  endfacet
  facet normal 0 0 -1
    outer loop
      vertex -7.05 7.05 14.51
      vertex -6.796705429366965 8 14.51
      vertex 7.05 7.05 14.51
    endloop
  endfacet
  facet normal -0.04361938736533646 0.9990482215818577 3.2912672280375936e-19
    outer loop
      vertex 0 -10.5 4.5
      vertex 0.9151352988504108 -10.460044329963328 14.51
      vertex 0.9151352988504108 -10.460044329963328 4.5
    endloop
  endfacet
  facet normal -0.13052619222005177 0.9914448613738104 2.614048844211215e-19
    outer loop
      vertex 0.9151352988504108 -10.460044329963328 4.5
      vertex 1.8233058655027685 -10.340481406628184 14.51
      vertex 1.8233058655027685 -10.340481406628184 4.5
    endloop
  endfacet
  facet normal -0.21643961393810163 0.9762960071199337 -1.2085041577299488e-18
    outer loop
      vertex 1.8233058655027685 -10.340481406628184 4.5
      vertex 2.7175999735764678 -10.142221176035218 14.51
      vertex 2.7175999735764678 -10.142221176035218 4.5
    endloop
  endfacet
  facet normal -0.30070579950427395 0.9537169507482267 5.539450406320323e-20
    outer loop
      vertex 2.7175999735764678 -10.142221176035218 4.5
      vertex 3.5912115049195217 -9.866772518252038 14.51
      vertex 3.5912115049195217 -9.866772518252038 4.5
    endloop
  endfacet
  facet normal -0.3826834323650893 0.923879532511287 -1.9713798307401768e-18
    outer loop
      vertex 3.5912115049195217 -9.866772518252038 4.5
      vertex 4.437491748277344 -9.516231763884825 14.51
      vertex 4.437491748277344 -9.516231763884825 4.5
    endloop
  endfacet
  facet normal -0.4617486132350339 0.8870108331782216 1.6782947396370461e-18
    outer loop
      vertex 4.437491748277344 -9.516231763884825 4.5
      vertex 5.25 -9.093266739736606 14.51
      vertex 5.25 -9.093266739736606 4.5
    endloop
  endfacet
  facet normal -0.5372996083468234 0.843391445812886 7.678310311335661e-19
    outer loop
      vertex 5.25 -9.093266739736606 4.5
      vertex 6.022552581685984 -8.601096465034415 14.51
      vertex 6.022552581685984 -8.601096465034415 4.5
    endloop
  endfacet
  facet normal -0.6087614290087221 0.7933533402912339 -9.081922917701218e-21
    outer loop
      vertex 6.022552581685984 -8.601096465034415 4.5
      vertex 6.749269901708662 -8.043466652749268 14.51
      vertex 6.749269901708662 -8.043466652749268 4.5
    endloop
  endfacet
  facet normal -0.6755902076156589 0.7372773368101253 3.6990856380888776e-19
    outer loop
      vertex 6.749269901708662 -8.043466652749268 4.5
      vertex 7.4246212024587495 -7.4246212024587495 14.51
      vertex 7.4246212024587495 -7.4246212024587495 4.5
    endloop
  endfacet
  facet normal -0.7372773368101253 0.6755902076156589 0
    outer loop
      vertex 7.4246212024587495 -7.4246212024587495 4.5
      vertex 7.4246212024587495 -7.4246212024587495 14.51
      vertex 8.043466652749268 -6.749269901708662 4.5
    endloop
  endfacet
  facet normal -0.7933533402912339 0.6087614290087221 0
    outer loop
      vertex 8.043466652749268 -6.749269901708662 4.5
      vertex 8.043466652749268 -6.749269901708662 14.51
      vertex 8.601096465034415 -6.022552581685984 4.5
    endloop
  endfacet
  facet normal -0.843391445812886 0.5372996083468234 0
    outer loop
      vertex 8.601096465034415 -6.022552581685984 4.5
      vertex 8.601096465034415 -6.022552581685984 14.51
      vertex 9.093266739736606 -5.25 4.5
    endloop
  endfacet
  facet normal -0.8870108331782216 0.4617486132350339 0
    outer loop
      vertex 9.093266739736606 -5.25 4.5
      vertex 9.093266739736606 -5.25 14.51
      vertex 9.516231763884825 -4.437491748277344 4.5
    endloop
  endfacet
  facet normal -0.04361938736533646 0.9990482215818577 0
    outer loop
      vertex 0 -10.5 4.5
      vertex 0 -10.5 14.51
      vertex 0.9151352988504108 -10.460044329963328 14.51
    endloop
  endfacet
  facet normal -0.13052619222005177 0.9914448613738104 0
    outer loop
      vertex 0.9151352988504108 -10.460044329963328 4.5
      vertex 0.9151352988504108 -10.460044329963328 14.51
      vertex 1.8233058655027685 -10.340481406628184 14.51
    endloop
  endfacet
  facet normal -0.21643961393810163 0.9762960071199337 0
    outer loop
      vertex 1.8233058655027685 -10.340481406628184 4.5
      vertex 1.8233058655027685 -10.340481406628184 14.51
      vertex 2.7175999735764678 -10.142221176035218 14.51
    endloop
  endfacet
  facet normal -0.30070579950427395 0.9537169507482267 0
    outer loop
      vertex 2.7175999735764678 -10.142221176035218 4.5
      vertex 2.7175999735764678 -10.142221176035218 14.51
      vertex 3.5912115049195217 -9.866772518252038 14.51
    endloop
  endfacet
  facet normal -0.3826834323650893 0.923879532511287 0
    outer loop
      vertex 3.5912115049195217 -9.866772518252038 4.5
      vertex 3.5912115049195217 -9.866772518252038 14.51
      vertex 4.437491748277344 -9.516231763884825 14.51
    endloop
  endfacet
  facet normal -0.4617486132350339 0.8870108331782216 0
    outer loop
      vertex 4.437491748277344 -9.516231763884825 4.5
      vertex 4.437491748277344 -9.516231763884825 14.51
      vertex 5.25 -9.093266739736606 14.51
    endloop
  endfacet
  facet normal -0.5372996083468234 0.843391445812886 0
    outer loop
      vertex 5.25 -9.093266739736606 4.5
      vertex 5.25 -9.093266739736606 14.51
      vertex 6.022552581685984 -8.601096465034415 14.51
    endloop
  endfacet
  facet normal -0.6087614290087221 0.7933533402912339 0
    outer loop
      vertex 6.022552581685984 -8.601096465034415 4.5
      vertex 6.022552581685984 -8.601096465034415 14.51
      vertex 6.749269901708662 -8.043466652749268 14.51
    endloop
  endfacet
  facet normal -0.6755902076156589 0.7372773368101253 0
    outer loop
      vertex 6.749269901708662 -8.043466652749268 4.5
      vertex 6.749269901708662 -8.043466652749268 14.51
      vertex 7.4246212024587495 -7.4246212024587495 14.51
    endloop
  endfacet
  facet normal 0 0 -1
    outer loop
      vertex -1.8233058655027685 -10.340481406628184 14.51
      vertex 7.05 -7.05 14.51
      vertex -0.9151352988504108 -10.460044329963328 14.51
    endloop
  endfacet
  facet normal 0 0 -1
    outer loop
      vertex -3.5912115049195217 -9.866772518252038 14.51
      vertex 7.05 -7.05 14.51
      vertex -2.7175999735764678 -10.142221176035218 14.51
    endloop
  endfacet
  facet normal 0 0 -1
    outer loop
      vertex -2.7175999735764678 -10.142221176035218 14.51
      vertex 7.05 -7.05 14.51
      vertex -1.8233058655027685 -10.340481406628184 14.51
    endloop
  endfacet
  facet normal 0 0 -1
    outer loop
      vertex -0.9151352988504108 -10.460044329963328 14.51
      vertex 7.05 -7.05 14.51
      vertex 0 -10.5 14.51
    endloop
  endfacet
  facet normal 0 0 -1
    outer loop
      vertex 0 -10.5 14.51
      vertex 7.05 -7.05 14.51
      vertex 0.9151352988504108 -10.460044329963328 14.51
    endloop
  endfacet
  facet normal 0 0 -1
    outer loop
      vertex 0.9151352988504108 -10.460044329963328 14.51
      vertex 7.05 -7.05 14.51
      vertex 1.8233058655027685 -10.340481406628184 14.51
    endloop
  endfacet
  facet normal 0 0 -1
    outer loop
      vertex 1.8233058655027685 -10.340481406628184 14.51
      vertex 7.05 -7.05 14.51
      vertex 2.7175999735764678 -10.142221176035218 14.51
    endloop
  endfacet
  facet normal 0 0 -1
    outer loop
      vertex 2.7175999735764678 -10.142221176035218 14.51
      vertex 7.05 -7.05 14.51
      vertex 3.5912115049195217 -9.866772518252038 14.51
    endloop
  endfacet
  facet normal 0 0 -1
    outer loop
      vertex 3.5912115049195217 -9.866772518252038 14.51
      vertex 7.05 -7.05 14.51
      vertex 4.437491748277344 -9.516231763884825 14.51
    endloop
  endfacet
  facet normal 0 0 -1
    outer loop
      vertex 4.437491748277344 -9.516231763884825 14.51
      vertex 7.05 -7.05 14.51
      vertex 5.25 -9.093266739736606 14.51
    endloop
  endfacet
  facet normal 0 0 -1
    outer loop
      vertex 5.25 -9.093266739736606 14.51
      vertex 7.05 -7.05 14.51
      vertex 6.022552581685984 -8.601096465034415 14.51
    endloop
  endfacet
  facet normal 0 0 -1
    outer loop
      vertex 6.022552581685984 -8.601096465034415 14.51
      vertex 7.05 -7.05 14.51
      vertex 6.749269901708662 -8.043466652749268 14.51
    endloop
  endfacet
  facet normal 0 0 -1
    outer loop
      vertex 6.749269901708662 -8.043466652749268 14.51
      vertex 7.05 -7.05 14.51
      vertex 7.4246212024587495 -7.4246212024587495 14.51
    endloop
  endfacet
  facet normal -0.7372773368101253 0.6755902076156589 0
    outer loop
      vertex 8.043466652749268 -6.749269901708662 4.5
      vertex 7.4246212024587495 -7.4246212024587495 14.51
      vertex 8.043466652749268 -6.749269901708662 14.51
    endloop
  endfacet
  facet normal -0.7933533402912339 0.6087614290087221 0
    outer loop
      vertex 8.601096465034415 -6.022552581685984 4.5
      vertex 8.043466652749268 -6.749269901708662 14.51
      vertex 8.601096465034415 -6.022552581685984 14.51
    endloop
  endfacet
  facet normal -0.843391445812886 0.5372996083468234 0
    outer loop
      vertex 9.093266739736606 -5.25 4.5
      vertex 8.601096465034415 -6.022552581685984 14.51
      vertex 9.093266739736606 -5.25 14.51
    endloop
  endfacet
  facet normal -0.8870108331782216 0.4617486132350339 0
    outer loop
      vertex 9.516231763884825 -4.437491748277344 4.5
      vertex 9.093266739736606 -5.25 14.51
      vertex 9.516231763884825 -4.437491748277344 14.51
    endloop
  endfacet
  facet normal 0 0 1
    outer loop
      vertex -3.5912115049195217 -9.866772518252038 4.5
      vertex -2.7175999735764678 -10.142221176035218 4.5
      vertex 6.796705429366965 8 4.5
    endloop
  endfacet
  facet normal 0 0 1
    outer loop
      vertex -2.7175999735764678 -10.142221176035218 4.5
      vertex -1.8233058655027685 -10.340481406628184 4.5
      vertex 6.796705429366965 8 4.5
    endloop
  endfacet
  facet normal 0 0 1
    outer loop
      vertex -1.8233058655027685 -10.340481406628184 4.5
      vertex -0.9151352988504108 -10.460044329963328 4.5
      vertex 6.796705429366965 8 4.5
    endloop
  endfacet
  facet normal 0 0 1
    outer loop
      vertex -0.9151352988504108 -10.460044329963328 4.5
      vertex 0 -10.5 4.5
      vertex 6.796705429366965 8 4.5
    endloop
  endfacet
  facet normal 0 0 1
    outer loop
      vertex 0 -10.5 4.5
      vertex 0.9151352988504108 -10.460044329963328 4.5
      vertex 6.796705429366965 8 4.5
    endloop
  endfacet
  facet normal 0 0 1
    outer loop
      vertex 0.9151352988504108 -10.460044329963328 4.5
      vertex 1.8233058655027685 -10.340481406628184 4.5
      vertex 6.796705429366965 8 4.5
    endloop
  endfacet
  facet normal 0 0 1
    outer loop
      vertex 1.8233058655027685 -10.340481406628184 4.5
      vertex 2.7175999735764678 -10.142221176035218 4.5
      vertex 6.796705429366965 8 4.5
    endloop
  endfacet
  facet normal 0 0 1
    outer loop
      vertex 2.7175999735764678 -10.142221176035218 4.5
      vertex 3.5912115049195217 -9.866772518252038 4.5
      vertex 6.796705429366965 8 4.5
    endloop
  endfacet
  facet normal 0 0 1
    outer loop
      vertex 3.5912115049195217 -9.866772518252038 4.5
      vertex 4.437491748277344 -9.516231763884825 4.5
      vertex 6.796705429366965 8 4.5
    endloop
  endfacet
  facet normal 0 0 1
    outer loop
      vertex 4.437491748277344 -9.516231763884825 4.5
      vertex 5.25 -9.093266739736606 4.5
      vertex 6.796705429366965 8 4.5
    endloop
  endfacet
  facet normal 0 0 1
    outer loop
      vertex 5.25 -9.093266739736606 4.5
      vertex 6.022552581685984 -8.601096465034415 4.5
      vertex 6.796705429366965 8 4.5
    endloop
  endfacet
  facet normal 0 0 1
    outer loop
      vertex 6.022552581685984 -8.601096465034415 4.5
      vertex 6.749269901708662 -8.043466652749268 4.5
      vertex 6.796705429366965 8 4.5
    endloop
  endfacet
  facet normal 0 0 1
    outer loop
      vertex 6.749269901708662 -8.043466652749268 4.5
      vertex 7.4246212024587495 -7.4246212024587495 4.5
      vertex 7.4246212024587495 7.4246212024587495 4.5
    endloop
  endfacet
  facet normal 0 0 1
    outer loop
      vertex 6.749269901708662 -8.043466652749268 4.5
      vertex 7.4246212024587495 7.4246212024587495 4.5
      vertex 6.796705429366965 8 4.5
    endloop
  endfacet
  facet normal -0.6755902076156589 -0.7372773368101252 -2.1256016928025935e-18
    outer loop
      vertex 7.4246212024587495 7.4246212024587495 4.5
      vertex 6.796705429366965 8 14.51
      vertex 6.796705429366965 8 4.5
    endloop
  endfacet
  facet normal 0 0 1
    outer loop
      vertex 7.4246212024587495 -7.4246212024587495 4.5
      vertex 8.043466652749268 -6.749269901708662 4.5
      vertex 8.043466652749268 6.749269901708662 4.5
    endloop
  endfacet
  facet normal 0 0 1
    outer loop
      vertex 8.043466652749268 -6.749269901708662 4.5
      vertex 8.601096465034415 -6.022552581685984 4.5
      vertex 8.601096465034415 6.022552581685984 4.5
    endloop
  endfacet
  facet normal 0 0 1
    outer loop
      vertex 8.601096465034415 -6.022552581685984 4.5
      vertex 9.093266739736606 -5.25 4.5
      vertex 9.093266739736606 5.25 4.5
    endloop
  endfacet
  facet normal 0 0 1
    outer loop
      vertex 9.093266739736606 -5.25 4.5
      vertex 9.516231763884825 -4.437491748277344 4.5
      vertex 9.516231763884825 4.437491748277344 4.5
    endloop
  endfacet
  facet normal 0 0 1
    outer loop
      vertex 9.516231763884825 -4.437491748277344 4.5
      vertex 9.866772518252038 -3.5912115049195217 4.5
      vertex 9.866772518252038 3.5912115049195217 4.5
    endloop
  endfacet
  facet normal -0.923879532511287 0.3826834323650893 0
    outer loop
      vertex 9.516231763884825 -4.437491748277344 4.5
      vertex 9.516231763884825 -4.437491748277344 14.51
      vertex 9.866772518252038 -3.5912115049195217 4.5
    endloop
  endfacet
  facet normal -0.9537169507482267 0.30070579950427395 0
    outer loop
      vertex 9.866772518252038 -3.5912115049195217 4.5
      vertex 9.866772518252038 -3.5912115049195217 14.51
      vertex 10.142221176035218 -2.7175999735764678 4.5
    endloop
  endfacet
  facet normal -0.9762960071199337 0.21643961393810163 0
    outer loop
      vertex 10.142221176035218 -2.7175999735764678 4.5
      vertex 10.142221176035218 -2.7175999735764678 14.51
      vertex 10.340481406628184 -1.8233058655027685 4.5
    endloop
  endfacet
  facet normal -0.9914448613738104 0.13052619222005177 0
    outer loop
      vertex 10.340481406628184 -1.8233058655027685 4.5
      vertex 10.340481406628184 -1.8233058655027685 14.51
      vertex 10.460044329963328 -0.9151352988504108 4.5
    endloop
  endfacet
  facet normal 0 0 1
    outer loop
      vertex 9.093266739736606 -5.25 4.5
      vertex 9.516231763884825 4.437491748277344 4.5
      vertex 9.093266739736606 5.25 4.5
    endloop
  endfacet
  facet normal 0 0 1
    outer loop
      vertex 9.866772518252038 -3.5912115049195217 4.5
      vertex 10.142221176035218 -2.7175999735764678 4.5
      vertex 10.142221176035218 2.7175999735764678 4.5
    endloop
  endfacet
  facet normal 0 0 1
    outer loop
      vertex 10.142221176035218 -2.7175999735764678 4.5
      vertex 10.340481406628184 -1.8233058655027685 4.5
      vertex 10.340481406628184 1.8233058655027685 4.5
    endloop
  endfacet
  facet normal 0 0 1
    outer loop
      vertex 10.340481406628184 -1.8233058655027685 4.5
      vertex 10.460044329963328 -0.9151352988504108 4.5
      vertex 10.460044329963328 0.9151352988504108 4.5
    endloop
  endfacet
  facet normal 0 0 1
    outer loop
      vertex 10.460044329963328 -0.9151352988504108 4.5
      vertex 10.5 0 4.5
      vertex 10.460044329963328 0.9151352988504108 4.5
    endloop
  endfacet
  facet normal 0 0 1
    outer loop
      vertex 9.866772518252038 -3.5912115049195217 4.5
      vertex 10.142221176035218 2.7175999735764678 4.5
      vertex 9.866772518252038 3.5912115049195217 4.5
    endloop
  endfacet
  facet normal 0 0 1
    outer loop
      vertex 10.142221176035218 -2.7175999735764678 4.5
      vertex 10.340481406628184 1.8233058655027685 4.5
      vertex 10.142221176035218 2.7175999735764678 4.5
    endloop
  endfacet
  facet normal 0 0 1
    outer loop
      vertex 9.516231763884825 -4.437491748277344 4.5
      vertex 9.866772518252038 3.5912115049195217 4.5
      vertex 9.516231763884825 4.437491748277344 4.5
    endloop
  endfacet
  facet normal 0 0 1
    outer loop
      vertex 10.340481406628184 -1.8233058655027685 4.5
      vertex 10.460044329963328 0.9151352988504108 4.5
      vertex 10.340481406628184 1.8233058655027685 4.5
    endloop
  endfacet
  facet normal -0.9990482215818577 0.04361938736533646 0
    outer loop
      vertex 10.460044329963328 -0.9151352988504108 4.5
      vertex 10.460044329963328 -0.9151352988504108 14.51
      vertex 10.5 0 4.5
    endloop
  endfacet
  facet normal -0.9990482215818577 -0.04361938736533646 0
    outer loop
      vertex 10.5 0 4.5
      vertex 10.5 0 14.51
      vertex 10.460044329963328 0.9151352988504108 4.5
    endloop
  endfacet
  facet normal -0.9914448613738104 -0.13052619222005177 0
    outer loop
      vertex 10.460044329963328 0.9151352988504108 4.5
      vertex 10.460044329963328 0.9151352988504108 14.51
      vertex 10.340481406628184 1.8233058655027685 4.5
    endloop
  endfacet
  facet normal 0 0 1
    outer loop
      vertex 7.4246212024587495 -7.4246212024587495 4.5
      vertex 8.043466652749268 6.749269901708662 4.5
      vertex 7.4246212024587495 7.4246212024587495 4.5
    endloop
  endfacet
  facet normal 0 0 1
    outer loop
      vertex 8.043466652749268 -6.749269901708662 4.5
      vertex 8.601096465034415 6.022552581685984 4.5
      vertex 8.043466652749268 6.749269901708662 4.5
    endloop
  endfacet
  facet normal 0 0 1
    outer loop
      vertex 8.601096465034415 -6.022552581685984 4.5
      vertex 9.093266739736606 5.25 4.5
      vertex 8.601096465034415 6.022552581685984 4.5
    endloop
  endfacet
  facet normal -0.9762960071199337 -0.21643961393810163 0
    outer loop
      vertex 10.340481406628184 1.8233058655027685 4.5
      vertex 10.340481406628184 1.8233058655027685 14.51
      vertex 10.142221176035218 2.7175999735764678 4.5
    endloop
  endfacet
  facet normal -0.9537169507482267 -0.30070579950427395 0
    outer loop
      vertex 10.142221176035218 2.7175999735764678 4.5
      vertex 10.142221176035218 2.7175999735764678 14.51
      vertex 9.866772518252038 3.5912115049195217 4.5
    endloop
  endfacet
  facet normal -0.923879532511287 -0.3826834323650893 0
    outer loop
      vertex 9.866772518252038 3.5912115049195217 4.5
      vertex 9.866772518252038 3.5912115049195217 14.51
      vertex 9.516231763884825 4.437491748277344 4.5
    endloop
  endfacet
  facet normal -0.8870108331782216 -0.4617486132350339 0
    outer loop
      vertex 9.516231763884825 4.437491748277344 4.5
      vertex 9.516231763884825 4.437491748277344 14.51
      vertex 9.093266739736606 5.25 4.5
    endloop
  endfacet
  facet normal -0.7933533402912339 -0.6087614290087221 0
    outer loop
      vertex 8.601096465034415 6.022552581685984 4.5
      vertex 8.601096465034415 6.022552581685984 14.51
      vertex 8.043466652749268 6.749269901708662 4.5
    endloop
  endfacet
  facet normal -0.843391445812886 -0.5372996083468234 0
    outer loop
      vertex 9.093266739736606 5.25 4.5
      vertex 9.093266739736606 5.25 14.51
      vertex 8.601096465034415 6.022552581685984 4.5
    endloop
  endfacet
  facet normal -0.7372773368101253 -0.6755902076156589 -3.6990856380888776e-19
    outer loop
      vertex 7.4246212024587495 7.4246212024587495 4.5
      vertex 8.043466652749268 6.749269901708662 4.5
      vertex 8.043466652749268 6.749269901708662 14.51
    endloop
  endfacet
  facet normal 0 0 -1
    outer loop
      vertex 7.05 -7.05 14.51
      vertex 7.05 7.05 14.51
      vertex 7.4246212024587495 -7.4246212024587495 14.51
    endloop
  endfacet
  facet normal -0.6755902076156589 -0.7372773368101252 0
    outer loop
      vertex 7.4246212024587495 7.4246212024587495 4.5
      vertex 7.4246212024587495 7.4246212024587495 14.51
      vertex 6.796705429366965 8 14.51
    endloop
  endfacet
  facet normal 0 0 -1
    outer loop
      vertex 7.05 7.05 14.51
      vertex -6.796705429366965 8 14.51
      vertex 7.4246212024587495 7.4246212024587495 14.51
    endloop
  endfacet
  facet normal 0 0 -1
    outer loop
      vertex 7.4246212024587495 7.4246212024587495 14.51
      vertex -6.796705429366965 8 14.51
      vertex 6.796705429366965 8 14.51
    endloop
  endfacet
  facet normal 0 0 -1
    outer loop
      vertex 7.4246212024587495 -7.4246212024587495 14.51
      vertex 7.05 7.05 14.51
      vertex 7.4246212024587495 7.4246212024587495 14.51
    endloop
  endfacet
  facet normal -0.923879532511287 0.3826834323650893 0
    outer loop
      vertex 9.866772518252038 -3.5912115049195217 4.5
      vertex 9.516231763884825 -4.437491748277344 14.51
      vertex 9.866772518252038 -3.5912115049195217 14.51
    endloop
  endfacet
  facet normal -0.9537169507482267 0.30070579950427395 0
    outer loop
      vertex 10.142221176035218 -2.7175999735764678 4.5
      vertex 9.866772518252038 -3.5912115049195217 14.51
      vertex 10.142221176035218 -2.7175999735764678 14.51
    endloop
  endfacet
  facet normal -0.9762960071199337 0.21643961393810163 0
    outer loop
      vertex 10.340481406628184 -1.8233058655027685 4.5
      vertex 10.142221176035218 -2.7175999735764678 14.51
      vertex 10.340481406628184 -1.8233058655027685 14.51
    endloop
  endfacet
  facet normal -0.9914448613738104 0.13052619222005177 0
    outer loop
      vertex 10.460044329963328 -0.9151352988504108 4.5
      vertex 10.340481406628184 -1.8233058655027685 14.51
      vertex 10.460044329963328 -0.9151352988504108 14.51
    endloop
  endfacet
  facet normal -0.9990482215818577 0.04361938736533646 3.2912672280375936e-19
    outer loop
      vertex 10.460044329963328 -0.9151352988504108 14.51
      vertex 10.5 0 14.51
      vertex 10.5 0 4.5
    endloop
  endfacet
  facet normal -0.9990482215818577 -0.04361938736533646 0
    outer loop
      vertex 10.460044329963328 0.9151352988504108 4.5
      vertex 10.5 0 14.51
      vertex 10.460044329963328 0.9151352988504108 14.51
    endloop
  endfacet
  facet normal -0.9914448613738104 -0.13052619222005177 0
    outer loop
      vertex 10.340481406628184 1.8233058655027685 4.5
      vertex 10.460044329963328 0.9151352988504108 14.51
      vertex 10.340481406628184 1.8233058655027685 14.51
    endloop
  endfacet
  facet normal 0 0 -1
    outer loop
      vertex 7.4246212024587495 -7.4246212024587495 14.51
      vertex 7.4246212024587495 7.4246212024587495 14.51
      vertex 8.043466652749268 -6.749269901708662 14.51
    endloop
  endfacet
  facet normal 0 0 -1
    outer loop
      vertex 8.043466652749268 -6.749269901708662 14.51
      vertex 8.043466652749268 6.749269901708662 14.51
      vertex 8.601096465034415 -6.022552581685984 14.51
    endloop
  endfacet
  facet normal 0 0 -1
    outer loop
      vertex 8.601096465034415 -6.022552581685984 14.51
      vertex 8.601096465034415 6.022552581685984 14.51
      vertex 9.093266739736606 -5.25 14.51
    endloop
  endfacet
  facet normal 0 0 -1
    outer loop
      vertex 9.093266739736606 -5.25 14.51
      vertex 9.093266739736606 5.25 14.51
      vertex 9.516231763884825 -4.437491748277344 14.51
    endloop
  endfacet
  facet normal 0 0 -1
    outer loop
      vertex 9.516231763884825 -4.437491748277344 14.51
      vertex 9.516231763884825 4.437491748277344 14.51
      vertex 9.866772518252038 -3.5912115049195217 14.51
    endloop
  endfacet
  facet normal 0 0 -1
    outer loop
      vertex 9.866772518252038 -3.5912115049195217 14.51
      vertex 9.866772518252038 3.5912115049195217 14.51
      vertex 10.142221176035218 -2.7175999735764678 14.51
    endloop
  endfacet
  facet normal 0 0 -1
    outer loop
      vertex 10.142221176035218 -2.7175999735764678 14.51
      vertex 10.142221176035218 2.7175999735764678 14.51
      vertex 10.340481406628184 -1.8233058655027685 14.51
    endloop
  endfacet
  facet normal 0 0 -1
    outer loop
      vertex 10.340481406628184 -1.8233058655027685 14.51
      vertex 10.340481406628184 1.8233058655027685 14.51
      vertex 10.460044329963328 -0.9151352988504108 14.51
    endloop
  endfacet
  facet normal 0 0 -1
    outer loop
      vertex 10.460044329963328 -0.9151352988504108 14.51
      vertex 10.460044329963328 0.9151352988504108 14.51
      vertex 10.5 0 14.51
    endloop
  endfacet
  facet normal 0 0 -1
    outer loop
      vertex 10.340481406628184 -1.8233058655027685 14.51
      vertex 10.142221176035218 2.7175999735764678 14.51
      vertex 10.340481406628184 1.8233058655027685 14.51
    endloop
  endfacet
  facet normal 0 0 -1
    outer loop
      vertex 9.866772518252038 -3.5912115049195217 14.51
      vertex 9.516231763884825 4.437491748277344 14.51
      vertex 9.866772518252038 3.5912115049195217 14.51
    endloop
  endfacet
  facet normal 0 0 -1
    outer loop
      vertex 10.142221176035218 -2.7175999735764678 14.51
      vertex 9.866772518252038 3.5912115049195217 14.51
      vertex 10.142221176035218 2.7175999735764678 14.51
    endloop
  endfacet
  facet normal 0 0 -1
    outer loop
      vertex 10.460044329963328 -0.9151352988504108 14.51
      vertex 10.340481406628184 1.8233058655027685 14.51
      vertex 10.460044329963328 0.9151352988504108 14.51
    endloop
  endfacet
  facet normal -0.9762960071199337 -0.21643961393810163 0
    outer loop
      vertex 10.142221176035218 2.7175999735764678 4.5
      vertex 10.340481406628184 1.8233058655027685 14.51
      vertex 10.142221176035218 2.7175999735764678 14.51
    endloop
  endfacet
  facet normal -0.9537169507482267 -0.30070579950427395 0
    outer loop
      vertex 9.866772518252038 3.5912115049195217 4.5
      vertex 10.142221176035218 2.7175999735764678 14.51
      vertex 9.866772518252038 3.5912115049195217 14.51
    endloop
  endfacet
  facet normal -0.923879532511287 -0.3826834323650893 0
    outer loop
      vertex 9.516231763884825 4.437491748277344 4.5
      vertex 9.866772518252038 3.5912115049195217 14.51
      vertex 9.516231763884825 4.437491748277344 14.51
    endloop
  endfacet
  facet normal -0.8870108331782216 -0.4617486132350339 0
    outer loop
      vertex 9.093266739736606 5.25 4.5
      vertex 9.516231763884825 4.437491748277344 14.51
      vertex 9.093266739736606 5.25 14.51
    endloop
  endfacet
  facet normal -0.843391445812886 -0.5372996083468234 0
    outer loop
      vertex 8.601096465034415 6.022552581685984 4.5
      vertex 9.093266739736606 5.25 14.51
      vertex 8.601096465034415 6.022552581685984 14.51
    endloop
  endfacet
  facet normal -0.7372773368101253 -0.6755902076156589 0
    outer loop
      vertex 7.4246212024587495 7.4246212024587495 4.5
      vertex 8.043466652749268 6.749269901708662 14.51
      vertex 7.4246212024587495 7.4246212024587495 14.51
    endloop
  endfacet
  facet normal -0.7933533402912339 -0.6087614290087221 0
    outer loop
      vertex 8.043466652749268 6.749269901708662 4.5
      vertex 8.601096465034415 6.022552581685984 14.51
      vertex 8.043466652749268 6.749269901708662 14.51
    endloop
  endfacet
  facet normal 0 0 -1
    outer loop
      vertex 8.043466652749268 -6.749269901708662 14.51
      vertex 7.4246212024587495 7.4246212024587495 14.51
      vertex 8.043466652749268 6.749269901708662 14.51
    endloop
  endfacet
  facet normal 0 0 -1
    outer loop
      vertex 8.601096465034415 -6.022552581685984 14.51
      vertex 8.043466652749268 6.749269901708662 14.51
      vertex 8.601096465034415 6.022552581685984 14.51
    endloop
  endfacet
  facet normal 0 0 -1
    outer loop
      vertex 9.093266739736606 -5.25 14.51
      vertex 8.601096465034415 6.022552581685984 14.51
      vertex 9.093266739736606 5.25 14.51
    endloop
  endfacet
  facet normal 0 0 -1
    outer loop
      vertex 9.516231763884825 -4.437491748277344 14.51
      vertex 9.093266739736606 5.25 14.51
      vertex 9.516231763884825 4.437491748277344 14.51
    endloop
  endfacet
  facet normal 0 1 0
    outer loop
      vertex -7.05 -7.05 14.51
      vertex -7.05 -7.05 16
      vertex 7.05 -7.05 14.51
    endloop
  endfacet
  facet normal 1 0 0
    outer loop
      vertex -7.05 -7.05 14.51
      vertex -7.05 7.05 16
      vertex -7.05 -7.05 16
    endloop
  endfacet
  facet normal 1 0 0
    outer loop
      vertex -7.05 -7.05 14.51
      vertex -7.05 7.05 14.51
      vertex -7.05 7.05 16
    endloop
  endfacet
  facet normal 0 -1 0
    outer loop
      vertex -7.05 7.05 14.51
      vertex 7.05 7.05 16
      vertex -7.05 7.05 16
    endloop
  endfacet
  facet normal 0 1 0
    outer loop
      vertex 7.05 -7.05 14.51
      vertex -7.05 -7.05 16
      vertex 7.05 -7.05 16
    endloop
  endfacet
  facet normal -1 0 0
    outer loop
      vertex 7.05 -7.05 14.51
      vertex 7.05 -7.05 16
      vertex 7.05 7.05 14.51
    endloop
  endfacet
  facet normal 0 -1 0
    outer loop
      vertex -7.05 7.05 14.51
      vertex 7.05 7.05 14.51
      vertex 7.05 7.05 16
    endloop
  endfacet
  facet normal -1 0 0
    outer loop
      vertex 7.05 7.05 14.51
      vertex 7.05 -7.05 16
      vertex 7.05 7.05 16
    endloop
  endfacet
endsolid OpenSCAD_Model
